G04 EAGLE Gerber RS-274X export*
G75*
%MOMM*%
%FSLAX34Y34*%
%LPD*%
%INBottom Copper*%
%IPPOS*%
%AMOC8*
5,1,8,0,0,1.08239X$1,22.5*%
G01*
%ADD10P,3.436588X8X22.500000*%
%ADD11C,2.016000*%
%ADD12C,1.828800*%
%ADD13C,2.216000*%
%ADD14C,2.016000*%
%ADD15C,1.625600*%
%ADD16P,1.979475X8X22.500000*%
%ADD17P,1.979475X8X112.500000*%
%ADD18C,2.032000*%
%ADD19C,1.000000*%
%ADD20C,1.462000*%

G36*
X428233Y3580D02*
X428233Y3580D01*
X428501Y3598D01*
X428770Y3610D01*
X428816Y3618D01*
X428864Y3621D01*
X429127Y3672D01*
X429393Y3718D01*
X429438Y3732D01*
X429484Y3741D01*
X429739Y3825D01*
X429997Y3904D01*
X430040Y3924D01*
X430085Y3939D01*
X430328Y4054D01*
X430572Y4165D01*
X430613Y4190D01*
X430655Y4210D01*
X430882Y4356D01*
X431111Y4496D01*
X431147Y4526D01*
X431187Y4552D01*
X431394Y4725D01*
X431603Y4893D01*
X431636Y4927D01*
X431672Y4958D01*
X431855Y5155D01*
X432041Y5349D01*
X432069Y5387D01*
X432101Y5421D01*
X432258Y5640D01*
X432418Y5856D01*
X432441Y5897D01*
X432469Y5936D01*
X432596Y6172D01*
X432728Y6407D01*
X432746Y6451D01*
X432769Y6492D01*
X432865Y6743D01*
X432967Y6992D01*
X432979Y7038D01*
X432996Y7082D01*
X433060Y7343D01*
X433129Y7603D01*
X433135Y7650D01*
X433146Y7696D01*
X433177Y7962D01*
X433213Y8230D01*
X433213Y8277D01*
X433219Y8324D01*
X433215Y8593D01*
X433217Y8862D01*
X433212Y8909D01*
X433211Y8956D01*
X433174Y9222D01*
X433142Y9489D01*
X433130Y9535D01*
X433124Y9582D01*
X433053Y9841D01*
X432988Y10102D01*
X432970Y10146D01*
X432958Y10192D01*
X432856Y10440D01*
X432757Y10691D01*
X432735Y10732D01*
X432717Y10776D01*
X432584Y11009D01*
X432455Y11246D01*
X432427Y11284D01*
X432404Y11325D01*
X432242Y11540D01*
X432084Y11758D01*
X432052Y11793D01*
X432024Y11830D01*
X431836Y12023D01*
X431653Y12220D01*
X431616Y12250D01*
X431583Y12284D01*
X431373Y12452D01*
X431166Y12623D01*
X431122Y12651D01*
X431089Y12678D01*
X430971Y12749D01*
X430726Y12909D01*
X427807Y14594D01*
X422594Y19807D01*
X418907Y26192D01*
X416999Y33314D01*
X416999Y40686D01*
X418907Y47808D01*
X422594Y54193D01*
X427807Y59406D01*
X434192Y63093D01*
X441314Y65001D01*
X448686Y65001D01*
X455808Y63093D01*
X462193Y59406D01*
X467483Y54116D01*
X467512Y54071D01*
X467537Y54041D01*
X467558Y54009D01*
X467740Y53799D01*
X467918Y53586D01*
X467947Y53560D01*
X467972Y53531D01*
X468179Y53345D01*
X468382Y53157D01*
X468414Y53135D01*
X468443Y53109D01*
X468671Y52951D01*
X468897Y52790D01*
X468931Y52772D01*
X468963Y52750D01*
X469209Y52622D01*
X469454Y52491D01*
X469490Y52477D01*
X469524Y52459D01*
X469785Y52364D01*
X470044Y52264D01*
X470081Y52255D01*
X470118Y52241D01*
X470387Y52180D01*
X470658Y52113D01*
X470696Y52109D01*
X470734Y52100D01*
X471009Y52073D01*
X471286Y52042D01*
X471324Y52042D01*
X471363Y52038D01*
X471640Y52046D01*
X471918Y52050D01*
X471956Y52055D01*
X471995Y52056D01*
X472269Y52099D01*
X472544Y52137D01*
X472581Y52148D01*
X472619Y52154D01*
X472886Y52231D01*
X473153Y52303D01*
X473189Y52318D01*
X473226Y52329D01*
X473481Y52439D01*
X473738Y52545D01*
X473771Y52564D01*
X473807Y52580D01*
X474045Y52721D01*
X474286Y52859D01*
X474317Y52882D01*
X474351Y52902D01*
X474569Y53071D01*
X474791Y53239D01*
X474819Y53266D01*
X474850Y53289D01*
X475046Y53486D01*
X475244Y53680D01*
X475268Y53710D01*
X475296Y53737D01*
X475465Y53957D01*
X475638Y54174D01*
X475658Y54207D01*
X475682Y54238D01*
X475822Y54477D01*
X475966Y54714D01*
X475982Y54749D01*
X476002Y54783D01*
X476111Y55039D01*
X476224Y55292D01*
X476235Y55329D01*
X476250Y55364D01*
X476326Y55632D01*
X476406Y55897D01*
X476413Y55935D01*
X476423Y55972D01*
X476465Y56247D01*
X476511Y56520D01*
X476513Y56563D01*
X476518Y56597D01*
X476521Y56729D01*
X476537Y57044D01*
X475728Y464926D01*
X475723Y465008D01*
X475725Y465089D01*
X475702Y465322D01*
X475687Y465557D01*
X475671Y465637D01*
X475663Y465718D01*
X475611Y465947D01*
X475566Y466177D01*
X475541Y466255D01*
X475523Y466334D01*
X475406Y466664D01*
X475368Y466778D01*
X475358Y466800D01*
X475347Y466829D01*
X474977Y467723D01*
X474896Y467889D01*
X474823Y468059D01*
X474757Y468173D01*
X474699Y468291D01*
X474597Y468445D01*
X474504Y468605D01*
X474423Y468709D01*
X474351Y468818D01*
X474231Y468959D01*
X474118Y469105D01*
X474025Y469198D01*
X473940Y469298D01*
X473802Y469422D01*
X473672Y469553D01*
X473569Y469634D01*
X473471Y469722D01*
X473319Y469828D01*
X473173Y469941D01*
X473060Y470008D01*
X472952Y470084D01*
X472789Y470169D01*
X472629Y470264D01*
X472509Y470316D01*
X472392Y470377D01*
X472219Y470441D01*
X472049Y470515D01*
X471923Y470551D01*
X471800Y470597D01*
X471620Y470639D01*
X471442Y470690D01*
X471312Y470711D01*
X471184Y470740D01*
X471000Y470759D01*
X470817Y470788D01*
X470686Y470792D01*
X470555Y470805D01*
X470370Y470801D01*
X470186Y470806D01*
X470055Y470793D01*
X469923Y470790D01*
X469740Y470762D01*
X469557Y470744D01*
X469429Y470715D01*
X469298Y470695D01*
X469120Y470645D01*
X468940Y470604D01*
X468796Y470553D01*
X468690Y470523D01*
X468590Y470480D01*
X468445Y470429D01*
X462581Y467999D01*
X455419Y467999D01*
X451554Y469600D01*
X451390Y469657D01*
X451228Y469722D01*
X451091Y469759D01*
X450956Y469805D01*
X450786Y469840D01*
X450617Y469885D01*
X450476Y469904D01*
X450337Y469932D01*
X450164Y469945D01*
X449991Y469969D01*
X449848Y469970D01*
X449707Y469980D01*
X449533Y469972D01*
X449359Y469973D01*
X449218Y469956D01*
X449076Y469949D01*
X448904Y469918D01*
X448731Y469897D01*
X448593Y469863D01*
X448453Y469838D01*
X448287Y469786D01*
X448118Y469743D01*
X447986Y469691D01*
X447850Y469649D01*
X447692Y469576D01*
X447530Y469513D01*
X447405Y469445D01*
X447275Y469386D01*
X447127Y469294D01*
X446975Y469210D01*
X446859Y469127D01*
X446739Y469052D01*
X446604Y468942D01*
X446462Y468840D01*
X446359Y468743D01*
X446248Y468653D01*
X446128Y468527D01*
X446001Y468408D01*
X445910Y468299D01*
X445812Y468196D01*
X445709Y468056D01*
X445598Y467922D01*
X445506Y467781D01*
X445437Y467687D01*
X445388Y467598D01*
X445312Y467481D01*
X444816Y466623D01*
X443809Y465311D01*
X442639Y464141D01*
X441327Y463134D01*
X439894Y462306D01*
X439109Y461981D01*
X438914Y461886D01*
X438714Y461797D01*
X438630Y461746D01*
X438541Y461703D01*
X438360Y461583D01*
X438173Y461471D01*
X438096Y461409D01*
X438014Y461355D01*
X437848Y461214D01*
X437678Y461078D01*
X437609Y461008D01*
X437534Y460944D01*
X437388Y460782D01*
X437235Y460627D01*
X437176Y460548D01*
X437110Y460475D01*
X436985Y460296D01*
X436854Y460123D01*
X436805Y460037D01*
X436748Y459956D01*
X436648Y459764D01*
X436539Y459575D01*
X436501Y459484D01*
X436455Y459396D01*
X436379Y459192D01*
X436296Y458991D01*
X436269Y458896D01*
X436235Y458804D01*
X436186Y458592D01*
X436128Y458382D01*
X436114Y458284D01*
X436092Y458188D01*
X436069Y457972D01*
X436038Y457756D01*
X436037Y457658D01*
X436027Y457560D01*
X436032Y457342D01*
X436029Y457124D01*
X436039Y457026D01*
X436042Y456928D01*
X436074Y456713D01*
X436099Y456496D01*
X436122Y456400D01*
X436137Y456303D01*
X436196Y456094D01*
X436247Y455882D01*
X436282Y455789D01*
X436309Y455695D01*
X436395Y455494D01*
X436472Y455291D01*
X436519Y455204D01*
X436557Y455113D01*
X436668Y454925D01*
X436770Y454733D01*
X436827Y454653D01*
X436877Y454568D01*
X437010Y454396D01*
X437136Y454218D01*
X437211Y454134D01*
X437263Y454067D01*
X437354Y453976D01*
X437487Y453828D01*
X444283Y447032D01*
X445501Y444091D01*
X445501Y366058D01*
X445508Y365939D01*
X445506Y365820D01*
X445528Y365624D01*
X445541Y365428D01*
X445563Y365311D01*
X445576Y365192D01*
X445623Y365000D01*
X445660Y364807D01*
X445697Y364693D01*
X445725Y364577D01*
X445795Y364394D01*
X445857Y364206D01*
X445908Y364098D01*
X445950Y363987D01*
X446043Y363813D01*
X446127Y363635D01*
X446192Y363534D01*
X446248Y363429D01*
X446362Y363269D01*
X446468Y363103D01*
X446545Y363011D01*
X446614Y362914D01*
X446784Y362725D01*
X446873Y362617D01*
X446916Y362578D01*
X446965Y362523D01*
X447585Y361904D01*
X449279Y357814D01*
X449279Y353386D01*
X448381Y351220D01*
X448353Y351138D01*
X448318Y351059D01*
X448251Y350839D01*
X448177Y350622D01*
X448159Y350537D01*
X448134Y350454D01*
X448096Y350227D01*
X448049Y350002D01*
X448043Y349916D01*
X448028Y349831D01*
X448011Y349498D01*
X448001Y349372D01*
X448003Y349343D01*
X448001Y349307D01*
X448001Y332885D01*
X448008Y332766D01*
X448006Y332646D01*
X448028Y332450D01*
X448041Y332254D01*
X448063Y332137D01*
X448076Y332018D01*
X448123Y331827D01*
X448160Y331633D01*
X448197Y331520D01*
X448225Y331404D01*
X448295Y331220D01*
X448357Y331032D01*
X448408Y330924D01*
X448450Y330813D01*
X448543Y330640D01*
X448627Y330461D01*
X448692Y330361D01*
X448748Y330256D01*
X448862Y330095D01*
X448968Y329929D01*
X449045Y329837D01*
X449114Y329740D01*
X449284Y329551D01*
X449373Y329444D01*
X449416Y329404D01*
X449465Y329350D01*
X461783Y317032D01*
X463001Y314091D01*
X463001Y293409D01*
X461783Y290468D01*
X434465Y263150D01*
X434386Y263061D01*
X434300Y262978D01*
X434177Y262824D01*
X434047Y262676D01*
X433980Y262577D01*
X433906Y262484D01*
X433803Y262316D01*
X433693Y262153D01*
X433639Y262046D01*
X433576Y261944D01*
X433496Y261765D01*
X433407Y261589D01*
X433367Y261476D01*
X433318Y261367D01*
X433261Y261179D01*
X433194Y260993D01*
X433169Y260877D01*
X433134Y260763D01*
X433101Y260568D01*
X433059Y260376D01*
X433048Y260257D01*
X433028Y260140D01*
X433015Y259886D01*
X433002Y259747D01*
X433005Y259689D01*
X433001Y259615D01*
X433001Y211714D01*
X433008Y211595D01*
X433006Y211476D01*
X433028Y211280D01*
X433041Y211083D01*
X433063Y210966D01*
X433076Y210848D01*
X433123Y210656D01*
X433160Y210463D01*
X433197Y210349D01*
X433225Y210233D01*
X433295Y210049D01*
X433357Y209862D01*
X433408Y209754D01*
X433450Y209643D01*
X433543Y209469D01*
X433627Y209291D01*
X433692Y209190D01*
X433748Y209085D01*
X433862Y208925D01*
X433968Y208758D01*
X434045Y208667D01*
X434114Y208570D01*
X434284Y208381D01*
X434373Y208273D01*
X434416Y208234D01*
X434465Y208179D01*
X444326Y198319D01*
X444326Y182681D01*
X433269Y171624D01*
X419010Y171624D01*
X418891Y171617D01*
X418771Y171619D01*
X418575Y171597D01*
X418379Y171584D01*
X418262Y171562D01*
X418143Y171549D01*
X417952Y171502D01*
X417758Y171465D01*
X417645Y171428D01*
X417529Y171400D01*
X417345Y171330D01*
X417157Y171268D01*
X417049Y171217D01*
X416938Y171175D01*
X416765Y171082D01*
X416586Y170998D01*
X416486Y170933D01*
X416381Y170877D01*
X416220Y170763D01*
X416054Y170657D01*
X415962Y170580D01*
X415865Y170511D01*
X415676Y170341D01*
X415569Y170252D01*
X415529Y170209D01*
X415475Y170160D01*
X401032Y155717D01*
X398091Y154499D01*
X375885Y154499D01*
X375766Y154492D01*
X375646Y154494D01*
X375450Y154472D01*
X375254Y154459D01*
X375137Y154437D01*
X375018Y154424D01*
X374827Y154377D01*
X374633Y154340D01*
X374520Y154303D01*
X374404Y154275D01*
X374220Y154205D01*
X374032Y154143D01*
X373925Y154092D01*
X373813Y154050D01*
X373639Y153957D01*
X373461Y153873D01*
X373361Y153808D01*
X373256Y153752D01*
X373095Y153638D01*
X372929Y153532D01*
X372837Y153455D01*
X372740Y153386D01*
X372551Y153216D01*
X372444Y153127D01*
X372404Y153084D01*
X372350Y153035D01*
X370426Y151111D01*
X370282Y150948D01*
X370132Y150790D01*
X370074Y150711D01*
X370008Y150637D01*
X369886Y150457D01*
X369757Y150282D01*
X369709Y150196D01*
X369654Y150114D01*
X369555Y149920D01*
X369449Y149729D01*
X369413Y149638D01*
X369368Y149550D01*
X369295Y149345D01*
X369214Y149143D01*
X369189Y149048D01*
X369156Y148955D01*
X369109Y148742D01*
X369054Y148531D01*
X369041Y148433D01*
X369020Y148337D01*
X369001Y148121D01*
X368973Y147905D01*
X368972Y147806D01*
X368964Y147708D01*
X368972Y147490D01*
X368971Y147272D01*
X368983Y147175D01*
X368987Y147076D01*
X369022Y146861D01*
X369049Y146645D01*
X369074Y146550D01*
X369090Y146452D01*
X369152Y146244D01*
X369206Y146033D01*
X369243Y145941D01*
X369271Y145847D01*
X369359Y145648D01*
X369439Y145445D01*
X369487Y145359D01*
X369526Y145269D01*
X369639Y145082D01*
X369744Y144892D01*
X369802Y144812D01*
X369853Y144728D01*
X369988Y144557D01*
X370117Y144381D01*
X370184Y144309D01*
X370245Y144232D01*
X370401Y144080D01*
X370551Y143921D01*
X370627Y143859D01*
X370697Y143790D01*
X370870Y143659D01*
X371039Y143520D01*
X371123Y143468D01*
X371201Y143408D01*
X371390Y143300D01*
X371574Y143184D01*
X371676Y143135D01*
X371749Y143093D01*
X371868Y143044D01*
X372048Y142958D01*
X374141Y142091D01*
X377041Y139191D01*
X378611Y135401D01*
X378611Y135275D01*
X378618Y135156D01*
X378616Y135036D01*
X378638Y134840D01*
X378651Y134644D01*
X378673Y134527D01*
X378686Y134408D01*
X378733Y134217D01*
X378770Y134023D01*
X378807Y133910D01*
X378835Y133794D01*
X378905Y133610D01*
X378967Y133422D01*
X379018Y133314D01*
X379060Y133203D01*
X379153Y133030D01*
X379237Y132851D01*
X379302Y132751D01*
X379358Y132646D01*
X379472Y132485D01*
X379578Y132319D01*
X379655Y132227D01*
X379724Y132130D01*
X379894Y131941D01*
X379983Y131834D01*
X380026Y131794D01*
X380075Y131740D01*
X390283Y121532D01*
X391501Y118591D01*
X391501Y118462D01*
X391510Y118310D01*
X391510Y118158D01*
X391530Y117995D01*
X391541Y117831D01*
X391569Y117682D01*
X391588Y117531D01*
X391629Y117372D01*
X391660Y117210D01*
X391707Y117066D01*
X391745Y116918D01*
X391805Y116766D01*
X391857Y116610D01*
X391922Y116472D01*
X391978Y116331D01*
X392057Y116187D01*
X392127Y116039D01*
X392210Y115910D01*
X392283Y115777D01*
X392380Y115645D01*
X392468Y115506D01*
X392566Y115389D01*
X392655Y115266D01*
X392768Y115147D01*
X392873Y115021D01*
X392985Y114918D01*
X393089Y114807D01*
X393216Y114703D01*
X393337Y114591D01*
X393460Y114502D01*
X393578Y114406D01*
X393717Y114318D01*
X393850Y114223D01*
X393984Y114150D01*
X394113Y114069D01*
X394293Y113983D01*
X394406Y113922D01*
X394485Y113892D01*
X394587Y113843D01*
X395326Y113537D01*
X399287Y109576D01*
X401431Y104401D01*
X401431Y98799D01*
X399287Y93624D01*
X395326Y89663D01*
X390151Y87519D01*
X384549Y87519D01*
X379374Y89663D01*
X375413Y93624D01*
X373269Y98799D01*
X373269Y104401D01*
X375119Y108866D01*
X375147Y108948D01*
X375182Y109027D01*
X375249Y109247D01*
X375323Y109464D01*
X375341Y109549D01*
X375366Y109631D01*
X375404Y109858D01*
X375451Y110083D01*
X375457Y110169D01*
X375472Y110255D01*
X375489Y110588D01*
X375499Y110713D01*
X375497Y110743D01*
X375499Y110779D01*
X375499Y111615D01*
X375492Y111734D01*
X375494Y111854D01*
X375472Y112050D01*
X375459Y112246D01*
X375437Y112363D01*
X375424Y112482D01*
X375377Y112673D01*
X375340Y112867D01*
X375303Y112980D01*
X375275Y113096D01*
X375205Y113280D01*
X375143Y113468D01*
X375092Y113575D01*
X375050Y113687D01*
X374957Y113861D01*
X374873Y114039D01*
X374808Y114139D01*
X374752Y114244D01*
X374638Y114405D01*
X374532Y114571D01*
X374455Y114663D01*
X374386Y114760D01*
X374216Y114949D01*
X374127Y115056D01*
X374084Y115096D01*
X374035Y115150D01*
X367535Y121650D01*
X367347Y121816D01*
X367163Y121986D01*
X367110Y122025D01*
X367061Y122068D01*
X366853Y122209D01*
X366650Y122355D01*
X366592Y122386D01*
X366537Y122423D01*
X366314Y122536D01*
X366094Y122655D01*
X366032Y122679D01*
X365974Y122708D01*
X365738Y122793D01*
X365504Y122883D01*
X365440Y122899D01*
X365378Y122921D01*
X365134Y122974D01*
X364890Y123035D01*
X364825Y123042D01*
X364761Y123056D01*
X364511Y123079D01*
X364263Y123108D01*
X364197Y123107D01*
X364131Y123113D01*
X363880Y123104D01*
X363630Y123101D01*
X363566Y123092D01*
X363500Y123089D01*
X363252Y123049D01*
X363004Y123014D01*
X362941Y122997D01*
X362876Y122987D01*
X362636Y122915D01*
X362394Y122850D01*
X362333Y122825D01*
X362270Y122806D01*
X362041Y122704D01*
X361810Y122609D01*
X361752Y122577D01*
X361692Y122550D01*
X361478Y122421D01*
X361260Y122297D01*
X361207Y122257D01*
X361151Y122223D01*
X360955Y122068D01*
X360754Y121918D01*
X360707Y121872D01*
X360655Y121831D01*
X360480Y121652D01*
X360300Y121478D01*
X360259Y121426D01*
X360213Y121379D01*
X360063Y121180D01*
X359906Y120984D01*
X359871Y120928D01*
X359832Y120875D01*
X359707Y120659D01*
X359576Y120444D01*
X359549Y120384D01*
X359517Y120327D01*
X359420Y120096D01*
X359318Y119868D01*
X359299Y119805D01*
X359273Y119744D01*
X359207Y119502D01*
X359134Y119263D01*
X359123Y119198D01*
X359106Y119135D01*
X359070Y118887D01*
X359028Y118640D01*
X359024Y118566D01*
X359016Y118509D01*
X359014Y118369D01*
X359009Y118265D01*
X359008Y118257D01*
X359008Y118248D01*
X359001Y118115D01*
X359001Y115409D01*
X357783Y112468D01*
X352895Y107580D01*
X352816Y107491D01*
X352730Y107408D01*
X352607Y107254D01*
X352477Y107106D01*
X352410Y107007D01*
X352336Y106914D01*
X352233Y106746D01*
X352123Y106583D01*
X352069Y106476D01*
X352006Y106374D01*
X351926Y106195D01*
X351837Y106019D01*
X351797Y105906D01*
X351748Y105797D01*
X351691Y105609D01*
X351624Y105423D01*
X351599Y105307D01*
X351564Y105193D01*
X351531Y104998D01*
X351489Y104806D01*
X351478Y104687D01*
X351458Y104570D01*
X351445Y104316D01*
X351432Y104177D01*
X351435Y104119D01*
X351431Y104045D01*
X351431Y98799D01*
X349287Y93624D01*
X345326Y89663D01*
X340151Y87519D01*
X338365Y87519D01*
X338115Y87503D01*
X337864Y87494D01*
X337799Y87483D01*
X337734Y87479D01*
X337488Y87432D01*
X337241Y87391D01*
X337178Y87372D01*
X337113Y87360D01*
X336875Y87282D01*
X336635Y87210D01*
X336575Y87184D01*
X336512Y87163D01*
X336286Y87056D01*
X336057Y86955D01*
X336001Y86921D01*
X335941Y86893D01*
X335730Y86757D01*
X335516Y86628D01*
X335464Y86587D01*
X335409Y86552D01*
X335216Y86391D01*
X335020Y86236D01*
X334974Y86189D01*
X334924Y86147D01*
X334753Y85963D01*
X334578Y85784D01*
X334538Y85732D01*
X334494Y85683D01*
X334348Y85480D01*
X334196Y85280D01*
X334164Y85223D01*
X334125Y85170D01*
X334007Y84950D01*
X333882Y84732D01*
X333856Y84671D01*
X333825Y84614D01*
X333735Y84380D01*
X333638Y84149D01*
X333621Y84085D01*
X333597Y84024D01*
X333537Y83781D01*
X333470Y83539D01*
X333461Y83474D01*
X333445Y83410D01*
X333417Y83162D01*
X333381Y82914D01*
X333380Y82848D01*
X333372Y82783D01*
X333375Y82533D01*
X333371Y82282D01*
X333378Y82216D01*
X333379Y82150D01*
X333413Y81903D01*
X333441Y81653D01*
X333457Y81589D01*
X333466Y81524D01*
X333531Y81283D01*
X333590Y81039D01*
X333613Y80977D01*
X333630Y80914D01*
X333726Y80683D01*
X333815Y80448D01*
X333846Y80390D01*
X333871Y80330D01*
X333995Y80111D01*
X334113Y79891D01*
X334151Y79837D01*
X334183Y79780D01*
X334334Y79579D01*
X334478Y79375D01*
X334528Y79321D01*
X334562Y79274D01*
X334660Y79174D01*
X334830Y78985D01*
X352962Y60853D01*
X353051Y60774D01*
X353134Y60688D01*
X353288Y60565D01*
X353436Y60435D01*
X353535Y60368D01*
X353628Y60294D01*
X353796Y60191D01*
X353959Y60081D01*
X354066Y60027D01*
X354168Y59964D01*
X354347Y59884D01*
X354523Y59795D01*
X354636Y59755D01*
X354745Y59706D01*
X354933Y59649D01*
X355119Y59582D01*
X355235Y59557D01*
X355349Y59522D01*
X355544Y59489D01*
X355736Y59447D01*
X355855Y59436D01*
X355972Y59416D01*
X356226Y59403D01*
X356365Y59390D01*
X356423Y59393D01*
X356497Y59389D01*
X358016Y59389D01*
X362479Y57540D01*
X365896Y54123D01*
X367745Y49660D01*
X367745Y26540D01*
X365896Y22077D01*
X362479Y18660D01*
X358016Y16811D01*
X353184Y16811D01*
X348721Y18660D01*
X346435Y20946D01*
X346296Y21068D01*
X346164Y21197D01*
X346059Y21277D01*
X345961Y21364D01*
X345807Y21467D01*
X345660Y21579D01*
X345546Y21644D01*
X345437Y21718D01*
X345272Y21802D01*
X345112Y21894D01*
X344991Y21944D01*
X344874Y22004D01*
X344699Y22066D01*
X344529Y22137D01*
X344402Y22172D01*
X344278Y22216D01*
X344098Y22256D01*
X343919Y22305D01*
X343789Y22324D01*
X343661Y22352D01*
X343477Y22368D01*
X343294Y22394D01*
X343162Y22397D01*
X343031Y22408D01*
X342846Y22401D01*
X342661Y22404D01*
X342531Y22390D01*
X342400Y22385D01*
X342217Y22355D01*
X342033Y22334D01*
X341905Y22303D01*
X341776Y22282D01*
X341599Y22229D01*
X341419Y22186D01*
X341296Y22139D01*
X341170Y22101D01*
X341001Y22026D01*
X340828Y21961D01*
X340712Y21899D01*
X340592Y21845D01*
X340434Y21750D01*
X340271Y21663D01*
X340164Y21587D01*
X340051Y21519D01*
X339906Y21404D01*
X339755Y21297D01*
X339641Y21194D01*
X339555Y21126D01*
X339479Y21049D01*
X339365Y20946D01*
X337079Y18660D01*
X332616Y16811D01*
X327784Y16811D01*
X323321Y18660D01*
X319904Y22077D01*
X318055Y26540D01*
X318055Y27000D01*
X318044Y27185D01*
X318042Y27370D01*
X318024Y27500D01*
X318015Y27631D01*
X317980Y27812D01*
X317955Y27996D01*
X317921Y28122D01*
X317896Y28252D01*
X317838Y28428D01*
X317790Y28606D01*
X317740Y28727D01*
X317699Y28852D01*
X317620Y29020D01*
X317550Y29190D01*
X317485Y29305D01*
X317429Y29423D01*
X317329Y29579D01*
X317238Y29740D01*
X317159Y29845D01*
X317088Y29956D01*
X316969Y30098D01*
X316858Y30246D01*
X316767Y30340D01*
X316683Y30441D01*
X316547Y30567D01*
X316418Y30700D01*
X316316Y30782D01*
X316219Y30871D01*
X316069Y30979D01*
X315925Y31094D01*
X315812Y31163D01*
X315706Y31239D01*
X315543Y31327D01*
X315385Y31424D01*
X315265Y31477D01*
X315150Y31540D01*
X314977Y31606D01*
X314808Y31682D01*
X314683Y31720D01*
X314560Y31768D01*
X314380Y31812D01*
X314203Y31866D01*
X314074Y31888D01*
X313946Y31919D01*
X313763Y31941D01*
X313580Y31972D01*
X313427Y31980D01*
X313319Y31992D01*
X313210Y31991D01*
X313056Y31999D01*
X309244Y31999D01*
X309059Y31988D01*
X308874Y31986D01*
X308744Y31968D01*
X308613Y31959D01*
X308432Y31924D01*
X308248Y31899D01*
X308122Y31865D01*
X307992Y31840D01*
X307816Y31782D01*
X307638Y31734D01*
X307517Y31684D01*
X307392Y31643D01*
X307224Y31564D01*
X307054Y31494D01*
X306939Y31429D01*
X306821Y31373D01*
X306665Y31273D01*
X306504Y31182D01*
X306399Y31103D01*
X306288Y31032D01*
X306146Y30913D01*
X305998Y30802D01*
X305904Y30711D01*
X305803Y30627D01*
X305677Y30491D01*
X305544Y30362D01*
X305462Y30260D01*
X305373Y30163D01*
X305265Y30013D01*
X305150Y29869D01*
X305081Y29756D01*
X305005Y29650D01*
X304917Y29487D01*
X304820Y29329D01*
X304767Y29209D01*
X304704Y29094D01*
X304638Y28921D01*
X304562Y28752D01*
X304524Y28627D01*
X304476Y28504D01*
X304432Y28324D01*
X304378Y28147D01*
X304356Y28018D01*
X304325Y27890D01*
X304303Y27707D01*
X304272Y27524D01*
X304264Y27371D01*
X304252Y27263D01*
X304253Y27154D01*
X304245Y27000D01*
X304245Y26540D01*
X302396Y22077D01*
X298979Y18660D01*
X294516Y16811D01*
X289684Y16811D01*
X285221Y18660D01*
X282935Y20946D01*
X282796Y21068D01*
X282664Y21197D01*
X282559Y21277D01*
X282461Y21364D01*
X282308Y21467D01*
X282160Y21579D01*
X282046Y21645D01*
X281937Y21718D01*
X281773Y21802D01*
X281612Y21894D01*
X281491Y21945D01*
X281374Y22004D01*
X281200Y22066D01*
X281029Y22137D01*
X280902Y22172D01*
X280778Y22216D01*
X280598Y22256D01*
X280419Y22305D01*
X280289Y22324D01*
X280161Y22352D01*
X279977Y22368D01*
X279794Y22394D01*
X279662Y22397D01*
X279531Y22408D01*
X279347Y22401D01*
X279162Y22404D01*
X279031Y22390D01*
X278900Y22385D01*
X278717Y22355D01*
X278533Y22334D01*
X278406Y22303D01*
X278276Y22282D01*
X278099Y22229D01*
X277919Y22186D01*
X277796Y22139D01*
X277670Y22101D01*
X277501Y22026D01*
X277328Y21961D01*
X277213Y21899D01*
X277092Y21845D01*
X276934Y21750D01*
X276771Y21663D01*
X276664Y21587D01*
X276551Y21519D01*
X276406Y21404D01*
X276255Y21297D01*
X276141Y21194D01*
X276056Y21127D01*
X275979Y21048D01*
X275865Y20946D01*
X273579Y18660D01*
X269116Y16811D01*
X264284Y16811D01*
X259821Y18660D01*
X256404Y22077D01*
X254555Y26540D01*
X254555Y49660D01*
X256404Y54123D01*
X258035Y55754D01*
X258114Y55844D01*
X258200Y55927D01*
X258323Y56081D01*
X258453Y56229D01*
X258520Y56327D01*
X258594Y56421D01*
X258697Y56589D01*
X258807Y56752D01*
X258861Y56858D01*
X258924Y56960D01*
X259004Y57140D01*
X259093Y57316D01*
X259133Y57428D01*
X259182Y57537D01*
X259239Y57726D01*
X259306Y57911D01*
X259331Y58028D01*
X259366Y58142D01*
X259399Y58336D01*
X259441Y58528D01*
X259452Y58647D01*
X259472Y58765D01*
X259485Y59019D01*
X259498Y59158D01*
X259495Y59216D01*
X259499Y59289D01*
X259499Y82991D01*
X259487Y83186D01*
X259484Y83383D01*
X259467Y83502D01*
X259459Y83621D01*
X259422Y83814D01*
X259394Y84009D01*
X259363Y84124D01*
X259340Y84242D01*
X259279Y84429D01*
X259227Y84618D01*
X259181Y84729D01*
X259143Y84843D01*
X259059Y85021D01*
X258984Y85202D01*
X258924Y85306D01*
X258873Y85414D01*
X258766Y85580D01*
X258669Y85750D01*
X258597Y85845D01*
X258532Y85946D01*
X258406Y86097D01*
X258287Y86254D01*
X258203Y86340D01*
X258199Y86344D01*
X258199Y101600D01*
X258199Y114272D01*
X259237Y113842D01*
X260784Y112950D01*
X262200Y111863D01*
X263463Y110600D01*
X264550Y109184D01*
X265442Y107637D01*
X265766Y106856D01*
X265862Y106660D01*
X265950Y106462D01*
X266001Y106377D01*
X266044Y106289D01*
X266164Y106106D01*
X266276Y105920D01*
X266338Y105843D01*
X266392Y105761D01*
X266534Y105595D01*
X266669Y105425D01*
X266739Y105356D01*
X266803Y105281D01*
X266965Y105135D01*
X267120Y104983D01*
X267199Y104923D01*
X267272Y104857D01*
X267451Y104733D01*
X267624Y104601D01*
X267710Y104552D01*
X267791Y104496D01*
X267983Y104395D01*
X268172Y104286D01*
X268264Y104248D01*
X268351Y104202D01*
X268555Y104127D01*
X268756Y104043D01*
X268851Y104017D01*
X268943Y103982D01*
X269155Y103933D01*
X269365Y103875D01*
X269463Y103861D01*
X269559Y103839D01*
X269775Y103816D01*
X269991Y103786D01*
X270090Y103784D01*
X270188Y103774D01*
X270405Y103779D01*
X270623Y103776D01*
X270721Y103787D01*
X270820Y103789D01*
X271035Y103822D01*
X271251Y103846D01*
X271347Y103869D01*
X271444Y103884D01*
X271654Y103943D01*
X271866Y103994D01*
X271958Y104030D01*
X272052Y104056D01*
X272253Y104142D01*
X272456Y104219D01*
X272543Y104266D01*
X272634Y104305D01*
X272822Y104415D01*
X273014Y104517D01*
X273094Y104574D01*
X273179Y104624D01*
X273352Y104757D01*
X273529Y104883D01*
X273613Y104958D01*
X273680Y105010D01*
X273772Y105101D01*
X273920Y105234D01*
X303035Y134350D01*
X303114Y134439D01*
X303200Y134522D01*
X303323Y134676D01*
X303453Y134824D01*
X303520Y134923D01*
X303594Y135016D01*
X303697Y135184D01*
X303807Y135347D01*
X303861Y135454D01*
X303924Y135556D01*
X304004Y135735D01*
X304093Y135911D01*
X304133Y136024D01*
X304182Y136133D01*
X304239Y136321D01*
X304306Y136507D01*
X304331Y136623D01*
X304366Y136737D01*
X304399Y136932D01*
X304441Y137124D01*
X304452Y137243D01*
X304472Y137360D01*
X304485Y137614D01*
X304498Y137753D01*
X304495Y137811D01*
X304499Y137885D01*
X304499Y174091D01*
X305717Y177032D01*
X329291Y200606D01*
X329370Y200695D01*
X329456Y200778D01*
X329579Y200932D01*
X329709Y201080D01*
X329776Y201179D01*
X329850Y201272D01*
X329953Y201440D01*
X330063Y201603D01*
X330117Y201710D01*
X330180Y201812D01*
X330260Y201991D01*
X330349Y202167D01*
X330389Y202280D01*
X330438Y202389D01*
X330495Y202577D01*
X330562Y202763D01*
X330587Y202879D01*
X330622Y202993D01*
X330655Y203188D01*
X330697Y203380D01*
X330708Y203499D01*
X330728Y203616D01*
X330741Y203870D01*
X330754Y204009D01*
X330751Y204067D01*
X330755Y204141D01*
X330755Y208231D01*
X337869Y215345D01*
X347931Y215345D01*
X355045Y208231D01*
X355045Y202658D01*
X355061Y202408D01*
X355070Y202157D01*
X355081Y202092D01*
X355085Y202027D01*
X355132Y201781D01*
X355173Y201534D01*
X355192Y201471D01*
X355204Y201406D01*
X355282Y201168D01*
X355354Y200928D01*
X355380Y200868D01*
X355401Y200805D01*
X355508Y200579D01*
X355609Y200350D01*
X355643Y200294D01*
X355671Y200234D01*
X355807Y200023D01*
X355936Y199809D01*
X355977Y199757D01*
X356012Y199702D01*
X356173Y199509D01*
X356328Y199313D01*
X356375Y199267D01*
X356417Y199217D01*
X356601Y199046D01*
X356780Y198871D01*
X356832Y198831D01*
X356881Y198787D01*
X357084Y198641D01*
X357122Y198612D01*
X356968Y198591D01*
X356718Y198563D01*
X356654Y198548D01*
X356589Y198539D01*
X356348Y198474D01*
X356104Y198415D01*
X356042Y198391D01*
X355979Y198374D01*
X355748Y198279D01*
X355513Y198190D01*
X355455Y198159D01*
X355395Y198134D01*
X355176Y198010D01*
X354956Y197892D01*
X354902Y197854D01*
X354845Y197821D01*
X354645Y197671D01*
X354440Y197526D01*
X354385Y197477D01*
X354339Y197442D01*
X354239Y197345D01*
X354050Y197175D01*
X347931Y191055D01*
X344441Y191055D01*
X344322Y191048D01*
X344202Y191050D01*
X344006Y191028D01*
X343810Y191015D01*
X343693Y190993D01*
X343574Y190980D01*
X343383Y190933D01*
X343189Y190896D01*
X343076Y190859D01*
X342960Y190831D01*
X342776Y190761D01*
X342588Y190699D01*
X342481Y190648D01*
X342369Y190606D01*
X342195Y190513D01*
X342017Y190429D01*
X341917Y190364D01*
X341812Y190308D01*
X341651Y190194D01*
X341485Y190088D01*
X341393Y190011D01*
X341296Y189942D01*
X341107Y189772D01*
X341000Y189683D01*
X340960Y189640D01*
X340906Y189591D01*
X335430Y184115D01*
X335308Y183976D01*
X335178Y183844D01*
X335099Y183740D01*
X335012Y183641D01*
X334908Y183488D01*
X334797Y183340D01*
X334731Y183226D01*
X334658Y183118D01*
X334574Y182953D01*
X334482Y182792D01*
X334431Y182671D01*
X334372Y182554D01*
X334310Y182380D01*
X334238Y182209D01*
X334204Y182082D01*
X334159Y181959D01*
X334120Y181778D01*
X334071Y181600D01*
X334052Y181469D01*
X334024Y181341D01*
X334007Y181157D01*
X333981Y180974D01*
X333979Y180842D01*
X333967Y180712D01*
X333974Y180527D01*
X333971Y180342D01*
X333986Y180211D01*
X333991Y180080D01*
X334021Y179897D01*
X334041Y179714D01*
X334072Y179586D01*
X334094Y179456D01*
X334147Y179279D01*
X334190Y179099D01*
X334237Y178976D01*
X334274Y178851D01*
X334349Y178681D01*
X334415Y178509D01*
X334477Y178393D01*
X334530Y178273D01*
X334626Y178114D01*
X334713Y177951D01*
X334789Y177844D01*
X334857Y177731D01*
X334972Y177586D01*
X335079Y177435D01*
X335182Y177321D01*
X335249Y177236D01*
X335327Y177159D01*
X335430Y177045D01*
X342345Y170131D01*
X342345Y160069D01*
X339465Y157190D01*
X339386Y157100D01*
X339300Y157017D01*
X339177Y156863D01*
X339047Y156715D01*
X338980Y156617D01*
X338906Y156523D01*
X338803Y156355D01*
X338693Y156192D01*
X338639Y156086D01*
X338576Y155984D01*
X338496Y155804D01*
X338407Y155628D01*
X338367Y155516D01*
X338318Y155407D01*
X338261Y155218D01*
X338194Y155033D01*
X338169Y154917D01*
X338134Y154802D01*
X338101Y154608D01*
X338059Y154416D01*
X338048Y154297D01*
X338028Y154179D01*
X338015Y153925D01*
X338002Y153786D01*
X338005Y153728D01*
X338001Y153655D01*
X338001Y153385D01*
X338017Y153135D01*
X338026Y152884D01*
X338037Y152819D01*
X338041Y152754D01*
X338088Y152508D01*
X338129Y152261D01*
X338148Y152198D01*
X338160Y152133D01*
X338238Y151895D01*
X338310Y151655D01*
X338336Y151595D01*
X338357Y151532D01*
X338464Y151306D01*
X338565Y151077D01*
X338599Y151021D01*
X338627Y150961D01*
X338763Y150750D01*
X338892Y150536D01*
X338933Y150484D01*
X338968Y150429D01*
X339129Y150236D01*
X339284Y150040D01*
X339331Y149994D01*
X339373Y149944D01*
X339557Y149773D01*
X339736Y149598D01*
X339788Y149558D01*
X339837Y149514D01*
X340040Y149368D01*
X340240Y149216D01*
X340297Y149184D01*
X340350Y149145D01*
X340570Y149027D01*
X340788Y148902D01*
X340849Y148876D01*
X340906Y148845D01*
X341140Y148755D01*
X341371Y148658D01*
X341435Y148641D01*
X341496Y148617D01*
X341739Y148557D01*
X341981Y148490D01*
X342046Y148481D01*
X342110Y148465D01*
X342358Y148437D01*
X342606Y148401D01*
X342672Y148400D01*
X342737Y148392D01*
X342987Y148395D01*
X343238Y148391D01*
X343304Y148398D01*
X343370Y148399D01*
X343617Y148433D01*
X343867Y148461D01*
X343931Y148477D01*
X343996Y148486D01*
X344237Y148551D01*
X344481Y148610D01*
X344543Y148633D01*
X344606Y148650D01*
X344837Y148746D01*
X345072Y148835D01*
X345130Y148866D01*
X345190Y148891D01*
X345409Y149015D01*
X345629Y149133D01*
X345683Y149171D01*
X345740Y149203D01*
X345941Y149354D01*
X346145Y149498D01*
X346199Y149548D01*
X346246Y149582D01*
X346346Y149680D01*
X346535Y149850D01*
X363014Y166329D01*
X365968Y169283D01*
X366272Y169409D01*
X366468Y169505D01*
X366667Y169593D01*
X366751Y169644D01*
X366840Y169687D01*
X367021Y169807D01*
X367208Y169919D01*
X367285Y169980D01*
X367367Y170035D01*
X367533Y170177D01*
X367703Y170312D01*
X367772Y170382D01*
X367847Y170446D01*
X367993Y170607D01*
X368146Y170763D01*
X368205Y170842D01*
X368271Y170915D01*
X368395Y171093D01*
X368527Y171267D01*
X368576Y171353D01*
X368633Y171434D01*
X368733Y171626D01*
X368842Y171815D01*
X368880Y171906D01*
X368926Y171994D01*
X369002Y172198D01*
X369085Y172399D01*
X369111Y172494D01*
X369146Y172586D01*
X369195Y172798D01*
X369253Y173008D01*
X369267Y173106D01*
X369289Y173202D01*
X369312Y173418D01*
X369343Y173634D01*
X369344Y173732D01*
X369354Y173830D01*
X369349Y174048D01*
X369352Y174266D01*
X369342Y174364D01*
X369339Y174462D01*
X369307Y174677D01*
X369282Y174894D01*
X369259Y174990D01*
X369244Y175087D01*
X369185Y175296D01*
X369134Y175508D01*
X369099Y175600D01*
X369072Y175695D01*
X368986Y175896D01*
X368909Y176099D01*
X368862Y176186D01*
X368824Y176277D01*
X368713Y176465D01*
X368611Y176657D01*
X368554Y176737D01*
X368504Y176822D01*
X368371Y176995D01*
X368245Y177172D01*
X368170Y177256D01*
X368118Y177323D01*
X368027Y177414D01*
X367894Y177562D01*
X362584Y182872D01*
X362584Y185501D01*
X381000Y185501D01*
X381184Y185512D01*
X381369Y185514D01*
X381499Y185532D01*
X381630Y185541D01*
X381812Y185575D01*
X381995Y185601D01*
X382122Y185635D01*
X382251Y185660D01*
X382427Y185717D01*
X382606Y185766D01*
X382727Y185815D01*
X382852Y185856D01*
X383019Y185936D01*
X383190Y186006D01*
X383304Y186071D01*
X383423Y186127D01*
X383579Y186227D01*
X383740Y186318D01*
X383845Y186397D01*
X383955Y186468D01*
X384098Y186587D01*
X384245Y186698D01*
X384340Y186789D01*
X384441Y186873D01*
X384441Y186874D01*
X384566Y187009D01*
X384699Y187137D01*
X384699Y187138D01*
X384700Y187138D01*
X384782Y187241D01*
X384871Y187337D01*
X384979Y187487D01*
X385094Y187632D01*
X385163Y187744D01*
X385239Y187851D01*
X385327Y188013D01*
X385424Y188171D01*
X385478Y188291D01*
X385540Y188407D01*
X385607Y188579D01*
X385682Y188748D01*
X385720Y188874D01*
X385768Y188996D01*
X385812Y189176D01*
X385866Y189353D01*
X385888Y189483D01*
X385919Y189610D01*
X385941Y189793D01*
X385972Y189976D01*
X385980Y190130D01*
X385992Y190238D01*
X385991Y190347D01*
X385999Y190500D01*
X385999Y208916D01*
X388628Y208916D01*
X399365Y198179D01*
X399504Y198057D01*
X399636Y197927D01*
X399740Y197848D01*
X399839Y197761D01*
X399992Y197658D01*
X400140Y197546D01*
X400254Y197480D01*
X400362Y197407D01*
X400527Y197323D01*
X400688Y197231D01*
X400809Y197180D01*
X400926Y197121D01*
X401100Y197059D01*
X401271Y196988D01*
X401398Y196953D01*
X401521Y196909D01*
X401702Y196869D01*
X401880Y196820D01*
X402011Y196801D01*
X402139Y196773D01*
X402323Y196757D01*
X402506Y196730D01*
X402638Y196728D01*
X402768Y196716D01*
X402953Y196723D01*
X403138Y196720D01*
X403269Y196735D01*
X403400Y196740D01*
X403583Y196770D01*
X403766Y196790D01*
X403894Y196821D01*
X404024Y196843D01*
X404201Y196896D01*
X404381Y196939D01*
X404504Y196986D01*
X404629Y197024D01*
X404798Y197098D01*
X404971Y197164D01*
X405087Y197226D01*
X405207Y197279D01*
X405366Y197375D01*
X405529Y197462D01*
X405636Y197538D01*
X405749Y197606D01*
X405894Y197721D01*
X406044Y197828D01*
X406159Y197930D01*
X406244Y197998D01*
X406321Y198076D01*
X406435Y198179D01*
X415535Y207279D01*
X415614Y207369D01*
X415700Y207452D01*
X415823Y207606D01*
X415953Y207754D01*
X416020Y207852D01*
X416094Y207946D01*
X416197Y208114D01*
X416307Y208277D01*
X416361Y208383D01*
X416424Y208485D01*
X416504Y208665D01*
X416593Y208841D01*
X416633Y208953D01*
X416682Y209062D01*
X416739Y209251D01*
X416806Y209436D01*
X416831Y209553D01*
X416866Y209667D01*
X416899Y209861D01*
X416941Y210053D01*
X416952Y210172D01*
X416972Y210290D01*
X416985Y210544D01*
X416998Y210683D01*
X416995Y210741D01*
X416999Y210814D01*
X416999Y254615D01*
X416992Y254734D01*
X416994Y254853D01*
X416972Y255049D01*
X416959Y255246D01*
X416937Y255363D01*
X416924Y255482D01*
X416877Y255673D01*
X416840Y255867D01*
X416803Y255980D01*
X416775Y256096D01*
X416705Y256280D01*
X416643Y256468D01*
X416592Y256575D01*
X416550Y256687D01*
X416457Y256860D01*
X416373Y257039D01*
X416308Y257139D01*
X416252Y257244D01*
X416138Y257405D01*
X416032Y257571D01*
X415955Y257663D01*
X415886Y257760D01*
X415716Y257949D01*
X415627Y258056D01*
X415584Y258095D01*
X415535Y258150D01*
X415315Y258370D01*
X415127Y258536D01*
X414943Y258706D01*
X414890Y258744D01*
X414841Y258788D01*
X414633Y258929D01*
X414430Y259075D01*
X414372Y259106D01*
X414318Y259143D01*
X414094Y259256D01*
X413874Y259375D01*
X413812Y259399D01*
X413754Y259428D01*
X413518Y259512D01*
X413284Y259603D01*
X413220Y259619D01*
X413159Y259641D01*
X412914Y259694D01*
X412670Y259755D01*
X412605Y259762D01*
X412541Y259776D01*
X412291Y259799D01*
X412043Y259828D01*
X411977Y259827D01*
X411912Y259833D01*
X411660Y259824D01*
X411410Y259821D01*
X411346Y259812D01*
X411280Y259809D01*
X411032Y259769D01*
X410784Y259734D01*
X410721Y259717D01*
X410656Y259707D01*
X410416Y259635D01*
X410174Y259570D01*
X410113Y259545D01*
X410051Y259526D01*
X409821Y259424D01*
X409590Y259329D01*
X409533Y259297D01*
X409473Y259270D01*
X409258Y259141D01*
X409040Y259017D01*
X408987Y258977D01*
X408931Y258944D01*
X408735Y258788D01*
X408534Y258638D01*
X408487Y258592D01*
X408436Y258551D01*
X408260Y258372D01*
X408080Y258198D01*
X408039Y258146D01*
X407994Y258100D01*
X407842Y257900D01*
X407686Y257704D01*
X407651Y257648D01*
X407612Y257596D01*
X407487Y257379D01*
X407356Y257164D01*
X407330Y257105D01*
X407297Y257048D01*
X407200Y256816D01*
X407098Y256588D01*
X407079Y256525D01*
X407054Y256464D01*
X406987Y256223D01*
X406914Y255983D01*
X406903Y255918D01*
X406886Y255855D01*
X406850Y255607D01*
X406808Y255360D01*
X406804Y255286D01*
X406796Y255229D01*
X406794Y255089D01*
X406781Y254835D01*
X406781Y241318D01*
X404789Y236510D01*
X401110Y232831D01*
X396302Y230839D01*
X391098Y230839D01*
X386290Y232831D01*
X384210Y234911D01*
X384071Y235034D01*
X383939Y235163D01*
X383834Y235242D01*
X383735Y235329D01*
X383582Y235433D01*
X383435Y235545D01*
X383321Y235610D01*
X383212Y235684D01*
X383047Y235767D01*
X382887Y235860D01*
X382765Y235910D01*
X382648Y235969D01*
X382474Y236032D01*
X382303Y236103D01*
X382177Y236138D01*
X382053Y236182D01*
X381872Y236222D01*
X381694Y236271D01*
X381564Y236289D01*
X381436Y236317D01*
X381251Y236334D01*
X381068Y236360D01*
X380937Y236362D01*
X380806Y236374D01*
X380621Y236367D01*
X380436Y236370D01*
X380306Y236355D01*
X380174Y236350D01*
X379992Y236320D01*
X379808Y236300D01*
X379680Y236269D01*
X379551Y236248D01*
X379374Y236195D01*
X379194Y236151D01*
X379071Y236104D01*
X378945Y236067D01*
X378776Y235992D01*
X378603Y235926D01*
X378487Y235864D01*
X378367Y235811D01*
X378209Y235716D01*
X378045Y235628D01*
X377938Y235552D01*
X377826Y235484D01*
X377681Y235370D01*
X377530Y235263D01*
X377416Y235160D01*
X377330Y235092D01*
X377254Y235014D01*
X377140Y234911D01*
X376639Y234411D01*
X375327Y233404D01*
X373894Y232577D01*
X373299Y232330D01*
X373299Y254000D01*
X373288Y254184D01*
X373286Y254369D01*
X373268Y254499D01*
X373259Y254630D01*
X373225Y254812D01*
X373199Y254995D01*
X373165Y255122D01*
X373140Y255251D01*
X373083Y255427D01*
X373034Y255606D01*
X372985Y255727D01*
X372944Y255852D01*
X372864Y256019D01*
X372794Y256190D01*
X372729Y256304D01*
X372673Y256423D01*
X372573Y256579D01*
X372482Y256740D01*
X372403Y256845D01*
X372332Y256955D01*
X372213Y257098D01*
X372102Y257245D01*
X372011Y257340D01*
X371927Y257441D01*
X371791Y257566D01*
X371663Y257699D01*
X371560Y257781D01*
X371464Y257871D01*
X371313Y257978D01*
X371169Y258094D01*
X371056Y258163D01*
X370950Y258239D01*
X370787Y258327D01*
X370629Y258423D01*
X370509Y258477D01*
X370394Y258539D01*
X370221Y258606D01*
X370052Y258682D01*
X369927Y258720D01*
X369804Y258767D01*
X369625Y258812D01*
X369448Y258865D01*
X369318Y258887D01*
X369191Y258919D01*
X369007Y258940D01*
X368824Y258971D01*
X368671Y258979D01*
X368563Y258992D01*
X368562Y258992D01*
X368454Y258991D01*
X368300Y258999D01*
X368115Y258987D01*
X367930Y258985D01*
X367800Y258967D01*
X367669Y258959D01*
X367487Y258924D01*
X367304Y258899D01*
X367177Y258865D01*
X367048Y258840D01*
X366872Y258782D01*
X366694Y258734D01*
X366573Y258684D01*
X366448Y258643D01*
X366280Y258564D01*
X366109Y258493D01*
X365995Y258429D01*
X365876Y258372D01*
X365720Y258272D01*
X365560Y258181D01*
X365455Y258102D01*
X365344Y258032D01*
X365202Y257913D01*
X365054Y257802D01*
X364960Y257711D01*
X364859Y257626D01*
X364733Y257491D01*
X364600Y257362D01*
X364518Y257259D01*
X364429Y257163D01*
X364321Y257013D01*
X364206Y256868D01*
X364137Y256756D01*
X364061Y256649D01*
X363973Y256487D01*
X363876Y256329D01*
X363822Y256209D01*
X363760Y256093D01*
X363693Y255921D01*
X363618Y255752D01*
X363580Y255626D01*
X363532Y255504D01*
X363488Y255324D01*
X363434Y255147D01*
X363412Y255017D01*
X363381Y254890D01*
X363359Y254707D01*
X363328Y254524D01*
X363320Y254370D01*
X363307Y254262D01*
X363309Y254153D01*
X363301Y254000D01*
X363301Y232330D01*
X362706Y232577D01*
X361273Y233404D01*
X359961Y234411D01*
X359460Y234911D01*
X359321Y235034D01*
X359189Y235163D01*
X359085Y235242D01*
X358986Y235329D01*
X358833Y235433D01*
X358685Y235545D01*
X358572Y235610D01*
X358463Y235684D01*
X358298Y235767D01*
X358137Y235860D01*
X358016Y235910D01*
X357899Y235969D01*
X357725Y236032D01*
X357554Y236103D01*
X357427Y236138D01*
X357304Y236182D01*
X357123Y236221D01*
X356945Y236271D01*
X356814Y236289D01*
X356686Y236317D01*
X356502Y236334D01*
X356319Y236360D01*
X356187Y236362D01*
X356057Y236374D01*
X355872Y236367D01*
X355687Y236370D01*
X355556Y236355D01*
X355425Y236350D01*
X355243Y236320D01*
X355059Y236300D01*
X354931Y236269D01*
X354801Y236248D01*
X354624Y236195D01*
X354444Y236151D01*
X354322Y236104D01*
X354196Y236067D01*
X354026Y235992D01*
X353854Y235926D01*
X353738Y235864D01*
X353618Y235811D01*
X353459Y235715D01*
X353296Y235628D01*
X353189Y235552D01*
X353076Y235484D01*
X352932Y235370D01*
X352780Y235263D01*
X352666Y235160D01*
X352581Y235092D01*
X352505Y235014D01*
X352390Y234911D01*
X350310Y232831D01*
X345502Y230839D01*
X340298Y230839D01*
X335490Y232831D01*
X333735Y234586D01*
X333596Y234708D01*
X333464Y234838D01*
X333359Y234917D01*
X333261Y235004D01*
X333107Y235108D01*
X332960Y235219D01*
X332846Y235285D01*
X332737Y235358D01*
X332572Y235442D01*
X332412Y235534D01*
X332291Y235585D01*
X332174Y235644D01*
X331999Y235706D01*
X331829Y235778D01*
X331702Y235812D01*
X331578Y235857D01*
X331398Y235896D01*
X331219Y235945D01*
X331089Y235964D01*
X330961Y235992D01*
X330777Y236009D01*
X330594Y236035D01*
X330462Y236037D01*
X330331Y236049D01*
X330146Y236042D01*
X329961Y236045D01*
X329831Y236030D01*
X329700Y236025D01*
X329517Y235995D01*
X329333Y235975D01*
X329205Y235944D01*
X329076Y235922D01*
X328899Y235869D01*
X328719Y235826D01*
X328596Y235779D01*
X328470Y235742D01*
X328301Y235667D01*
X328128Y235601D01*
X328012Y235539D01*
X327892Y235486D01*
X327734Y235390D01*
X327571Y235303D01*
X327464Y235227D01*
X327351Y235159D01*
X327206Y235044D01*
X327055Y234937D01*
X326941Y234834D01*
X326855Y234767D01*
X326779Y234689D01*
X326665Y234586D01*
X324910Y232831D01*
X320102Y230839D01*
X314898Y230839D01*
X310090Y232831D01*
X308335Y234586D01*
X308196Y234708D01*
X308064Y234838D01*
X307959Y234917D01*
X307861Y235004D01*
X307707Y235108D01*
X307560Y235219D01*
X307446Y235285D01*
X307337Y235358D01*
X307172Y235442D01*
X307012Y235534D01*
X306891Y235585D01*
X306774Y235644D01*
X306599Y235706D01*
X306429Y235778D01*
X306302Y235812D01*
X306178Y235857D01*
X305998Y235896D01*
X305819Y235945D01*
X305689Y235964D01*
X305561Y235992D01*
X305377Y236009D01*
X305194Y236035D01*
X305062Y236037D01*
X304931Y236049D01*
X304746Y236042D01*
X304561Y236045D01*
X304431Y236030D01*
X304300Y236025D01*
X304117Y235995D01*
X303933Y235975D01*
X303805Y235944D01*
X303676Y235922D01*
X303499Y235869D01*
X303319Y235826D01*
X303196Y235779D01*
X303070Y235742D01*
X302901Y235667D01*
X302728Y235601D01*
X302612Y235539D01*
X302492Y235486D01*
X302334Y235390D01*
X302171Y235303D01*
X302064Y235227D01*
X301951Y235159D01*
X301806Y235044D01*
X301655Y234937D01*
X301541Y234834D01*
X301455Y234767D01*
X301379Y234689D01*
X301265Y234586D01*
X299510Y232831D01*
X294702Y230839D01*
X289498Y230839D01*
X288780Y231137D01*
X288512Y231228D01*
X288245Y231324D01*
X288213Y231331D01*
X288182Y231341D01*
X287904Y231398D01*
X287628Y231459D01*
X287595Y231462D01*
X287563Y231469D01*
X287281Y231490D01*
X286998Y231516D01*
X286965Y231514D01*
X286932Y231517D01*
X286650Y231503D01*
X286366Y231492D01*
X286334Y231487D01*
X286301Y231485D01*
X286023Y231436D01*
X285743Y231389D01*
X285711Y231380D01*
X285679Y231374D01*
X285408Y231290D01*
X285137Y231209D01*
X285107Y231195D01*
X285076Y231185D01*
X284817Y231067D01*
X284559Y230953D01*
X284531Y230936D01*
X284501Y230922D01*
X284260Y230772D01*
X284018Y230626D01*
X283992Y230606D01*
X283964Y230588D01*
X283744Y230409D01*
X283522Y230234D01*
X283499Y230210D01*
X283474Y230190D01*
X283278Y229984D01*
X283080Y229782D01*
X283060Y229756D01*
X283038Y229732D01*
X282869Y229503D01*
X282698Y229278D01*
X282682Y229250D01*
X282663Y229223D01*
X282525Y228976D01*
X282383Y228730D01*
X282371Y228700D01*
X282355Y228671D01*
X282249Y228408D01*
X282140Y228147D01*
X282131Y228115D01*
X282119Y228085D01*
X282048Y227812D01*
X281972Y227537D01*
X281968Y227505D01*
X281959Y227473D01*
X281923Y227194D01*
X281883Y226912D01*
X281882Y226879D01*
X281878Y226846D01*
X281878Y226563D01*
X281873Y226280D01*
X281877Y226247D01*
X281877Y226214D01*
X281912Y225933D01*
X281943Y225651D01*
X281951Y225619D01*
X281955Y225587D01*
X282025Y225314D01*
X282092Y225037D01*
X282104Y225006D01*
X282112Y224975D01*
X282216Y224712D01*
X282317Y224446D01*
X282332Y224417D01*
X282344Y224387D01*
X282481Y224138D01*
X282615Y223889D01*
X282634Y223862D01*
X282650Y223833D01*
X282816Y223605D01*
X282980Y223373D01*
X283005Y223346D01*
X283022Y223323D01*
X283108Y223231D01*
X283332Y222983D01*
X291783Y214532D01*
X293001Y211591D01*
X293001Y193409D01*
X291783Y190468D01*
X279532Y178217D01*
X276183Y176830D01*
X276105Y176792D01*
X276024Y176761D01*
X275822Y176653D01*
X275616Y176552D01*
X275543Y176504D01*
X275467Y176463D01*
X275280Y176331D01*
X275088Y176204D01*
X275022Y176148D01*
X274951Y176098D01*
X274704Y175875D01*
X274608Y175793D01*
X274588Y175771D01*
X274561Y175746D01*
X267609Y168794D01*
X267530Y168705D01*
X267444Y168622D01*
X267321Y168468D01*
X267191Y168320D01*
X267124Y168221D01*
X267050Y168128D01*
X266947Y167960D01*
X266837Y167797D01*
X266783Y167690D01*
X266720Y167588D01*
X266640Y167409D01*
X266551Y167233D01*
X266511Y167120D01*
X266462Y167011D01*
X266405Y166823D01*
X266338Y166637D01*
X266313Y166521D01*
X266278Y166407D01*
X266245Y166212D01*
X266203Y166020D01*
X266192Y165901D01*
X266172Y165784D01*
X266159Y165530D01*
X266146Y165391D01*
X266149Y165333D01*
X266145Y165259D01*
X266145Y160069D01*
X259031Y152955D01*
X248969Y152955D01*
X241855Y160069D01*
X241855Y170131D01*
X248969Y177245D01*
X251359Y177245D01*
X251478Y177252D01*
X251598Y177250D01*
X251794Y177272D01*
X251990Y177285D01*
X252107Y177307D01*
X252226Y177320D01*
X252417Y177367D01*
X252611Y177404D01*
X252724Y177441D01*
X252840Y177469D01*
X253024Y177539D01*
X253212Y177601D01*
X253319Y177652D01*
X253431Y177694D01*
X253605Y177787D01*
X253783Y177871D01*
X253883Y177936D01*
X253988Y177992D01*
X254149Y178106D01*
X254315Y178212D01*
X254407Y178289D01*
X254504Y178358D01*
X254693Y178528D01*
X254800Y178617D01*
X254840Y178660D01*
X254894Y178709D01*
X260920Y184735D01*
X261042Y184873D01*
X261172Y185006D01*
X261251Y185111D01*
X261338Y185209D01*
X261441Y185362D01*
X261553Y185510D01*
X261619Y185624D01*
X261692Y185732D01*
X261776Y185897D01*
X261868Y186058D01*
X261919Y186179D01*
X261978Y186296D01*
X262040Y186470D01*
X262112Y186641D01*
X262146Y186768D01*
X262191Y186891D01*
X262230Y187072D01*
X262279Y187251D01*
X262298Y187381D01*
X262326Y187509D01*
X262343Y187693D01*
X262369Y187876D01*
X262371Y188008D01*
X262383Y188138D01*
X262376Y188323D01*
X262379Y188508D01*
X262364Y188639D01*
X262359Y188770D01*
X262329Y188953D01*
X262309Y189136D01*
X262278Y189264D01*
X262256Y189394D01*
X262203Y189571D01*
X262160Y189751D01*
X262113Y189874D01*
X262076Y189999D01*
X262001Y190169D01*
X261935Y190341D01*
X261873Y190458D01*
X261820Y190577D01*
X261724Y190736D01*
X261637Y190899D01*
X261561Y191006D01*
X261493Y191119D01*
X261378Y191264D01*
X261271Y191415D01*
X261168Y191529D01*
X261101Y191614D01*
X261023Y191690D01*
X260920Y191805D01*
X257190Y195535D01*
X257100Y195614D01*
X257017Y195700D01*
X256863Y195823D01*
X256715Y195953D01*
X256617Y196020D01*
X256523Y196094D01*
X256355Y196197D01*
X256192Y196307D01*
X256086Y196361D01*
X255984Y196424D01*
X255804Y196504D01*
X255628Y196593D01*
X255516Y196633D01*
X255407Y196682D01*
X255218Y196739D01*
X255033Y196806D01*
X254917Y196831D01*
X254802Y196866D01*
X254608Y196899D01*
X254416Y196941D01*
X254297Y196952D01*
X254179Y196972D01*
X253925Y196985D01*
X253786Y196998D01*
X253728Y196995D01*
X253655Y196999D01*
X250909Y196999D01*
X247968Y198217D01*
X238785Y207400D01*
X238597Y207566D01*
X238413Y207736D01*
X238360Y207775D01*
X238311Y207818D01*
X238103Y207959D01*
X237900Y208105D01*
X237842Y208136D01*
X237787Y208173D01*
X237564Y208286D01*
X237344Y208405D01*
X237282Y208429D01*
X237224Y208458D01*
X236988Y208543D01*
X236754Y208633D01*
X236690Y208649D01*
X236628Y208671D01*
X236384Y208724D01*
X236140Y208785D01*
X236075Y208792D01*
X236011Y208806D01*
X235761Y208829D01*
X235513Y208858D01*
X235447Y208857D01*
X235381Y208863D01*
X235130Y208854D01*
X234880Y208851D01*
X234816Y208842D01*
X234750Y208839D01*
X234502Y208799D01*
X234254Y208764D01*
X234191Y208747D01*
X234126Y208737D01*
X233886Y208665D01*
X233644Y208600D01*
X233583Y208575D01*
X233520Y208556D01*
X233291Y208455D01*
X233060Y208359D01*
X233002Y208327D01*
X232942Y208300D01*
X232728Y208171D01*
X232510Y208047D01*
X232457Y208007D01*
X232401Y207973D01*
X232205Y207818D01*
X232004Y207668D01*
X231957Y207622D01*
X231905Y207581D01*
X231730Y207402D01*
X231550Y207228D01*
X231509Y207176D01*
X231463Y207129D01*
X231313Y206930D01*
X231156Y206734D01*
X231121Y206678D01*
X231082Y206625D01*
X230957Y206409D01*
X230826Y206194D01*
X230799Y206134D01*
X230767Y206077D01*
X230671Y205847D01*
X230568Y205618D01*
X230549Y205555D01*
X230523Y205494D01*
X230457Y205252D01*
X230384Y205013D01*
X230373Y204948D01*
X230356Y204885D01*
X230320Y204636D01*
X230278Y204390D01*
X230274Y204316D01*
X230266Y204259D01*
X230264Y204119D01*
X230251Y203865D01*
X230251Y141972D01*
X230256Y141886D01*
X230254Y141799D01*
X230276Y141571D01*
X230291Y141341D01*
X230307Y141256D01*
X230315Y141170D01*
X230367Y140947D01*
X230410Y140721D01*
X230437Y140638D01*
X230456Y140554D01*
X230567Y140241D01*
X230607Y140120D01*
X230619Y140093D01*
X230631Y140059D01*
X232561Y135401D01*
X232561Y131299D01*
X230991Y127509D01*
X228091Y124609D01*
X224301Y123039D01*
X220199Y123039D01*
X217413Y124193D01*
X217207Y124264D01*
X217004Y124342D01*
X216908Y124366D01*
X216815Y124398D01*
X216602Y124442D01*
X216390Y124494D01*
X216292Y124505D01*
X216196Y124525D01*
X215979Y124542D01*
X215763Y124567D01*
X215664Y124566D01*
X215566Y124573D01*
X215348Y124562D01*
X215130Y124560D01*
X215033Y124547D01*
X214934Y124542D01*
X214720Y124503D01*
X214504Y124474D01*
X214409Y124448D01*
X214312Y124431D01*
X214104Y124366D01*
X213894Y124309D01*
X213803Y124271D01*
X213709Y124242D01*
X213511Y124151D01*
X213310Y124068D01*
X213224Y124020D01*
X213134Y123979D01*
X212949Y123864D01*
X212760Y123756D01*
X212681Y123697D01*
X212597Y123645D01*
X212428Y123507D01*
X212254Y123377D01*
X212184Y123308D01*
X212107Y123246D01*
X211957Y123088D01*
X211800Y122937D01*
X211739Y122860D01*
X211671Y122789D01*
X211542Y122613D01*
X211406Y122443D01*
X211354Y122359D01*
X211296Y122280D01*
X211190Y122090D01*
X211076Y121904D01*
X211036Y121814D01*
X210988Y121728D01*
X210907Y121526D01*
X210818Y121327D01*
X210789Y121232D01*
X210753Y121141D01*
X210698Y120931D01*
X210634Y120722D01*
X210618Y120625D01*
X210593Y120529D01*
X210565Y120314D01*
X210528Y120099D01*
X210522Y119987D01*
X210512Y119903D01*
X210511Y119774D01*
X210501Y119575D01*
X210501Y116283D01*
X210508Y116164D01*
X210506Y116045D01*
X210528Y115849D01*
X210541Y115652D01*
X210563Y115535D01*
X210576Y115416D01*
X210623Y115225D01*
X210660Y115032D01*
X210697Y114918D01*
X210725Y114802D01*
X210795Y114618D01*
X210857Y114431D01*
X210908Y114323D01*
X210950Y114211D01*
X211043Y114038D01*
X211127Y113860D01*
X211192Y113759D01*
X211248Y113654D01*
X211362Y113493D01*
X211468Y113327D01*
X211545Y113236D01*
X211614Y113138D01*
X211784Y112949D01*
X211873Y112842D01*
X211916Y112803D01*
X211965Y112748D01*
X215137Y109576D01*
X217281Y104401D01*
X217281Y98799D01*
X215137Y93624D01*
X211176Y89663D01*
X209586Y89004D01*
X209390Y88908D01*
X209191Y88820D01*
X209107Y88769D01*
X209019Y88726D01*
X208837Y88606D01*
X208650Y88494D01*
X208573Y88432D01*
X208491Y88378D01*
X208326Y88237D01*
X208155Y88101D01*
X208086Y88031D01*
X208011Y87967D01*
X207865Y87805D01*
X207713Y87650D01*
X207653Y87571D01*
X207587Y87498D01*
X207462Y87319D01*
X207331Y87146D01*
X207282Y87060D01*
X207225Y86979D01*
X207124Y86786D01*
X207016Y86598D01*
X206978Y86507D01*
X206932Y86419D01*
X206857Y86216D01*
X206773Y86014D01*
X206746Y85919D01*
X206712Y85827D01*
X206663Y85615D01*
X206605Y85405D01*
X206591Y85307D01*
X206569Y85211D01*
X206546Y84995D01*
X206515Y84779D01*
X206514Y84681D01*
X206504Y84583D01*
X206509Y84365D01*
X206506Y84147D01*
X206517Y84049D01*
X206519Y83951D01*
X206551Y83736D01*
X206576Y83519D01*
X206599Y83423D01*
X206614Y83326D01*
X206673Y83116D01*
X206724Y82905D01*
X206759Y82813D01*
X206786Y82718D01*
X206872Y82517D01*
X206949Y82314D01*
X206996Y82227D01*
X207034Y82136D01*
X207145Y81948D01*
X207247Y81756D01*
X207304Y81676D01*
X207354Y81591D01*
X207487Y81418D01*
X207613Y81241D01*
X207688Y81158D01*
X207740Y81090D01*
X207831Y80998D01*
X207964Y80851D01*
X227962Y60853D01*
X228051Y60774D01*
X228134Y60688D01*
X228288Y60565D01*
X228436Y60435D01*
X228535Y60368D01*
X228628Y60294D01*
X228796Y60191D01*
X228959Y60081D01*
X229066Y60027D01*
X229168Y59964D01*
X229347Y59884D01*
X229523Y59795D01*
X229636Y59755D01*
X229744Y59706D01*
X229933Y59649D01*
X230119Y59582D01*
X230235Y59557D01*
X230349Y59522D01*
X230544Y59489D01*
X230736Y59447D01*
X230855Y59436D01*
X230933Y59423D01*
X235479Y57540D01*
X238896Y54123D01*
X240745Y49660D01*
X240745Y26540D01*
X238896Y22077D01*
X235479Y18660D01*
X231016Y16811D01*
X226184Y16811D01*
X221721Y18660D01*
X219435Y20946D01*
X219296Y21068D01*
X219164Y21197D01*
X219059Y21277D01*
X218961Y21364D01*
X218808Y21467D01*
X218660Y21579D01*
X218546Y21645D01*
X218437Y21718D01*
X218273Y21802D01*
X218112Y21894D01*
X217991Y21945D01*
X217874Y22004D01*
X217700Y22066D01*
X217529Y22137D01*
X217402Y22172D01*
X217278Y22216D01*
X217098Y22256D01*
X216919Y22305D01*
X216789Y22324D01*
X216661Y22352D01*
X216477Y22368D01*
X216294Y22394D01*
X216162Y22397D01*
X216031Y22408D01*
X215847Y22401D01*
X215662Y22404D01*
X215531Y22390D01*
X215400Y22385D01*
X215217Y22355D01*
X215033Y22334D01*
X214906Y22303D01*
X214776Y22282D01*
X214599Y22229D01*
X214419Y22186D01*
X214296Y22139D01*
X214170Y22101D01*
X214001Y22026D01*
X213828Y21961D01*
X213713Y21899D01*
X213592Y21845D01*
X213434Y21750D01*
X213271Y21663D01*
X213164Y21587D01*
X213051Y21519D01*
X212906Y21404D01*
X212755Y21297D01*
X212641Y21194D01*
X212556Y21127D01*
X212479Y21048D01*
X212365Y20946D01*
X210079Y18660D01*
X205616Y16811D01*
X200784Y16811D01*
X196321Y18660D01*
X192904Y22077D01*
X191055Y26540D01*
X191055Y27000D01*
X191044Y27185D01*
X191042Y27370D01*
X191024Y27500D01*
X191015Y27631D01*
X190980Y27812D01*
X190955Y27996D01*
X190921Y28122D01*
X190896Y28252D01*
X190838Y28428D01*
X190790Y28606D01*
X190740Y28727D01*
X190699Y28852D01*
X190620Y29020D01*
X190550Y29190D01*
X190485Y29305D01*
X190429Y29423D01*
X190329Y29579D01*
X190238Y29740D01*
X190159Y29845D01*
X190088Y29956D01*
X189969Y30098D01*
X189858Y30246D01*
X189767Y30340D01*
X189683Y30441D01*
X189547Y30567D01*
X189418Y30700D01*
X189316Y30782D01*
X189219Y30871D01*
X189069Y30979D01*
X188925Y31094D01*
X188812Y31163D01*
X188706Y31239D01*
X188543Y31327D01*
X188385Y31424D01*
X188265Y31477D01*
X188150Y31540D01*
X187977Y31606D01*
X187808Y31682D01*
X187683Y31720D01*
X187560Y31768D01*
X187380Y31812D01*
X187203Y31866D01*
X187074Y31888D01*
X186946Y31919D01*
X186763Y31941D01*
X186580Y31972D01*
X186427Y31980D01*
X186319Y31992D01*
X186210Y31991D01*
X186056Y31999D01*
X182244Y31999D01*
X182059Y31988D01*
X181874Y31986D01*
X181744Y31968D01*
X181613Y31959D01*
X181432Y31924D01*
X181248Y31899D01*
X181122Y31865D01*
X180992Y31840D01*
X180816Y31782D01*
X180638Y31734D01*
X180517Y31684D01*
X180392Y31643D01*
X180224Y31564D01*
X180054Y31494D01*
X179939Y31429D01*
X179821Y31373D01*
X179665Y31273D01*
X179504Y31182D01*
X179399Y31103D01*
X179288Y31032D01*
X179146Y30913D01*
X178998Y30802D01*
X178904Y30711D01*
X178803Y30627D01*
X178677Y30491D01*
X178544Y30362D01*
X178462Y30260D01*
X178373Y30163D01*
X178265Y30013D01*
X178150Y29869D01*
X178081Y29756D01*
X178005Y29650D01*
X177917Y29487D01*
X177820Y29329D01*
X177767Y29209D01*
X177704Y29094D01*
X177638Y28921D01*
X177562Y28752D01*
X177524Y28627D01*
X177476Y28504D01*
X177432Y28324D01*
X177378Y28147D01*
X177356Y28018D01*
X177325Y27890D01*
X177303Y27707D01*
X177272Y27524D01*
X177264Y27371D01*
X177252Y27263D01*
X177253Y27154D01*
X177245Y27000D01*
X177245Y26540D01*
X175396Y22077D01*
X171979Y18660D01*
X167516Y16811D01*
X162684Y16811D01*
X158221Y18660D01*
X155935Y20946D01*
X155796Y21068D01*
X155664Y21197D01*
X155559Y21277D01*
X155461Y21364D01*
X155307Y21467D01*
X155160Y21579D01*
X155046Y21644D01*
X154937Y21718D01*
X154772Y21802D01*
X154612Y21894D01*
X154491Y21944D01*
X154374Y22004D01*
X154199Y22066D01*
X154029Y22137D01*
X153902Y22172D01*
X153778Y22216D01*
X153598Y22256D01*
X153419Y22305D01*
X153289Y22324D01*
X153161Y22352D01*
X152977Y22368D01*
X152794Y22394D01*
X152662Y22397D01*
X152531Y22408D01*
X152346Y22401D01*
X152161Y22404D01*
X152031Y22390D01*
X151900Y22385D01*
X151717Y22355D01*
X151533Y22334D01*
X151405Y22303D01*
X151276Y22282D01*
X151099Y22229D01*
X150919Y22186D01*
X150796Y22139D01*
X150670Y22101D01*
X150501Y22026D01*
X150328Y21961D01*
X150212Y21899D01*
X150092Y21845D01*
X149934Y21750D01*
X149771Y21663D01*
X149664Y21587D01*
X149551Y21519D01*
X149406Y21404D01*
X149255Y21297D01*
X149141Y21194D01*
X149055Y21126D01*
X148979Y21049D01*
X148865Y20946D01*
X146579Y18660D01*
X142116Y16811D01*
X137284Y16811D01*
X132821Y18660D01*
X129404Y22077D01*
X127555Y26540D01*
X127555Y31559D01*
X127548Y31678D01*
X127550Y31798D01*
X127528Y31994D01*
X127515Y32190D01*
X127493Y32307D01*
X127480Y32426D01*
X127433Y32617D01*
X127396Y32811D01*
X127359Y32924D01*
X127331Y33040D01*
X127261Y33224D01*
X127199Y33412D01*
X127148Y33520D01*
X127106Y33631D01*
X127013Y33804D01*
X126929Y33983D01*
X126864Y34083D01*
X126808Y34188D01*
X126694Y34349D01*
X126588Y34515D01*
X126511Y34607D01*
X126442Y34704D01*
X126272Y34893D01*
X126183Y35000D01*
X126140Y35040D01*
X126091Y35094D01*
X92244Y68941D01*
X92155Y69020D01*
X92072Y69106D01*
X91918Y69229D01*
X91770Y69359D01*
X91671Y69426D01*
X91578Y69500D01*
X91410Y69603D01*
X91247Y69713D01*
X91140Y69767D01*
X91038Y69830D01*
X90859Y69910D01*
X90683Y69999D01*
X90570Y70039D01*
X90461Y70088D01*
X90273Y70145D01*
X90087Y70212D01*
X89971Y70237D01*
X89857Y70272D01*
X89662Y70305D01*
X89470Y70347D01*
X89351Y70358D01*
X89234Y70378D01*
X88980Y70391D01*
X88841Y70404D01*
X88783Y70401D01*
X88709Y70405D01*
X88000Y70405D01*
X87815Y70394D01*
X87630Y70392D01*
X87500Y70374D01*
X87369Y70365D01*
X87188Y70330D01*
X87004Y70305D01*
X86878Y70271D01*
X86748Y70246D01*
X86572Y70188D01*
X86394Y70140D01*
X86273Y70090D01*
X86148Y70049D01*
X85980Y69970D01*
X85810Y69900D01*
X85695Y69835D01*
X85577Y69779D01*
X85421Y69679D01*
X85260Y69588D01*
X85155Y69509D01*
X85044Y69438D01*
X84902Y69319D01*
X84754Y69208D01*
X84660Y69117D01*
X84559Y69033D01*
X84433Y68897D01*
X84300Y68768D01*
X84218Y68666D01*
X84129Y68569D01*
X84021Y68419D01*
X83906Y68275D01*
X83837Y68162D01*
X83761Y68056D01*
X83673Y67893D01*
X83576Y67735D01*
X83523Y67615D01*
X83460Y67500D01*
X83394Y67327D01*
X83318Y67158D01*
X83280Y67033D01*
X83232Y66910D01*
X83188Y66730D01*
X83134Y66553D01*
X83112Y66424D01*
X83081Y66296D01*
X83059Y66113D01*
X83028Y65930D01*
X83020Y65777D01*
X83008Y65669D01*
X83009Y65560D01*
X83001Y65406D01*
X83001Y60064D01*
X83008Y59945D01*
X83006Y59826D01*
X83028Y59630D01*
X83041Y59434D01*
X83063Y59316D01*
X83076Y59198D01*
X83123Y59006D01*
X83160Y58813D01*
X83197Y58699D01*
X83225Y58583D01*
X83295Y58399D01*
X83357Y58212D01*
X83408Y58104D01*
X83450Y57993D01*
X83543Y57819D01*
X83627Y57641D01*
X83692Y57540D01*
X83748Y57435D01*
X83862Y57275D01*
X83968Y57109D01*
X84045Y57017D01*
X84114Y56920D01*
X84284Y56731D01*
X84373Y56623D01*
X84416Y56584D01*
X84465Y56529D01*
X95076Y45919D01*
X95076Y30281D01*
X84019Y19224D01*
X68381Y19224D01*
X57324Y30281D01*
X57324Y45919D01*
X65535Y54129D01*
X65614Y54219D01*
X65700Y54302D01*
X65823Y54456D01*
X65953Y54604D01*
X66020Y54702D01*
X66094Y54796D01*
X66197Y54964D01*
X66307Y55127D01*
X66361Y55233D01*
X66424Y55335D01*
X66504Y55515D01*
X66593Y55691D01*
X66633Y55803D01*
X66682Y55912D01*
X66739Y56101D01*
X66806Y56286D01*
X66831Y56403D01*
X66866Y56517D01*
X66899Y56711D01*
X66941Y56903D01*
X66952Y57022D01*
X66972Y57140D01*
X66985Y57394D01*
X66998Y57533D01*
X66995Y57591D01*
X66999Y57664D01*
X66999Y64615D01*
X66992Y64734D01*
X66994Y64854D01*
X66972Y65050D01*
X66959Y65246D01*
X66937Y65363D01*
X66924Y65482D01*
X66877Y65673D01*
X66840Y65867D01*
X66803Y65980D01*
X66775Y66096D01*
X66705Y66280D01*
X66643Y66468D01*
X66592Y66575D01*
X66550Y66687D01*
X66457Y66861D01*
X66373Y67039D01*
X66308Y67139D01*
X66252Y67244D01*
X66138Y67405D01*
X66032Y67571D01*
X65955Y67663D01*
X65886Y67760D01*
X65716Y67949D01*
X65627Y68056D01*
X65584Y68096D01*
X65535Y68150D01*
X58671Y75014D01*
X55014Y78671D01*
X48671Y85014D01*
X45717Y87968D01*
X44229Y91561D01*
X44191Y91638D01*
X44160Y91719D01*
X44052Y91921D01*
X43951Y92128D01*
X43903Y92200D01*
X43863Y92277D01*
X43730Y92464D01*
X43603Y92656D01*
X43547Y92722D01*
X43497Y92792D01*
X43274Y93039D01*
X43192Y93136D01*
X43170Y93156D01*
X43146Y93182D01*
X41310Y95018D01*
X41171Y95140D01*
X41039Y95270D01*
X40934Y95349D01*
X40835Y95436D01*
X40682Y95540D01*
X40535Y95652D01*
X40421Y95717D01*
X40312Y95791D01*
X40147Y95874D01*
X39987Y95966D01*
X39866Y96017D01*
X39748Y96076D01*
X39574Y96139D01*
X39403Y96210D01*
X39277Y96245D01*
X39153Y96289D01*
X38972Y96328D01*
X38794Y96377D01*
X38664Y96396D01*
X38536Y96424D01*
X38351Y96441D01*
X38168Y96467D01*
X38037Y96469D01*
X37906Y96481D01*
X37721Y96474D01*
X37536Y96477D01*
X37406Y96462D01*
X37274Y96457D01*
X37092Y96427D01*
X36908Y96407D01*
X36780Y96376D01*
X36651Y96354D01*
X36474Y96302D01*
X36294Y96258D01*
X36171Y96211D01*
X36045Y96174D01*
X35876Y96099D01*
X35703Y96033D01*
X35587Y95971D01*
X35467Y95918D01*
X35308Y95822D01*
X35145Y95735D01*
X35039Y95659D01*
X34926Y95591D01*
X34781Y95476D01*
X34630Y95369D01*
X34516Y95267D01*
X34430Y95199D01*
X34354Y95121D01*
X34240Y95018D01*
X33792Y94570D01*
X32471Y93557D01*
X31030Y92725D01*
X30399Y92464D01*
X30399Y114300D01*
X30399Y136136D01*
X31030Y135875D01*
X32471Y135043D01*
X33792Y134030D01*
X34240Y133582D01*
X34379Y133459D01*
X34511Y133330D01*
X34615Y133251D01*
X34714Y133164D01*
X34867Y133060D01*
X35015Y132949D01*
X35128Y132883D01*
X35237Y132809D01*
X35402Y132726D01*
X35563Y132634D01*
X35684Y132583D01*
X35801Y132524D01*
X35975Y132462D01*
X36146Y132390D01*
X36273Y132355D01*
X36396Y132311D01*
X36577Y132272D01*
X36756Y132223D01*
X36885Y132204D01*
X37014Y132176D01*
X37198Y132159D01*
X37381Y132133D01*
X37513Y132131D01*
X37643Y132119D01*
X37828Y132126D01*
X38013Y132123D01*
X38144Y132138D01*
X38275Y132143D01*
X38457Y132173D01*
X38641Y132193D01*
X38769Y132224D01*
X38899Y132246D01*
X39076Y132298D01*
X39256Y132342D01*
X39378Y132389D01*
X39504Y132426D01*
X39674Y132501D01*
X39846Y132567D01*
X39962Y132629D01*
X40082Y132682D01*
X40241Y132778D01*
X40404Y132865D01*
X40511Y132941D01*
X40624Y133009D01*
X40769Y133124D01*
X40920Y133231D01*
X41033Y133333D01*
X41119Y133401D01*
X41196Y133479D01*
X41310Y133582D01*
X43035Y135307D01*
X43114Y135397D01*
X43200Y135480D01*
X43323Y135634D01*
X43453Y135781D01*
X43520Y135880D01*
X43594Y135973D01*
X43697Y136142D01*
X43807Y136305D01*
X43861Y136411D01*
X43924Y136513D01*
X44004Y136693D01*
X44093Y136869D01*
X44133Y136981D01*
X44182Y137090D01*
X44239Y137278D01*
X44306Y137464D01*
X44331Y137581D01*
X44366Y137695D01*
X44399Y137889D01*
X44441Y138081D01*
X44452Y138200D01*
X44472Y138318D01*
X44485Y138571D01*
X44498Y138711D01*
X44495Y138769D01*
X44499Y138842D01*
X44499Y153258D01*
X44492Y153377D01*
X44494Y153496D01*
X44472Y153692D01*
X44459Y153889D01*
X44437Y154006D01*
X44424Y154125D01*
X44377Y154316D01*
X44340Y154509D01*
X44303Y154623D01*
X44275Y154739D01*
X44205Y154923D01*
X44143Y155110D01*
X44092Y155218D01*
X44050Y155330D01*
X43957Y155503D01*
X43873Y155681D01*
X43808Y155782D01*
X43752Y155887D01*
X43638Y156047D01*
X43532Y156214D01*
X43455Y156305D01*
X43386Y156403D01*
X43216Y156591D01*
X43127Y156699D01*
X43084Y156738D01*
X43035Y156793D01*
X41310Y158518D01*
X41171Y158640D01*
X41039Y158770D01*
X40934Y158849D01*
X40835Y158936D01*
X40682Y159040D01*
X40535Y159152D01*
X40421Y159217D01*
X40312Y159291D01*
X40147Y159374D01*
X39987Y159466D01*
X39865Y159517D01*
X39748Y159576D01*
X39574Y159639D01*
X39403Y159710D01*
X39277Y159745D01*
X39153Y159789D01*
X38972Y159828D01*
X38794Y159877D01*
X38664Y159896D01*
X38536Y159924D01*
X38351Y159941D01*
X38168Y159967D01*
X38037Y159969D01*
X37906Y159981D01*
X37721Y159974D01*
X37536Y159977D01*
X37406Y159962D01*
X37274Y159957D01*
X37092Y159927D01*
X36908Y159907D01*
X36780Y159876D01*
X36651Y159854D01*
X36474Y159802D01*
X36294Y159758D01*
X36171Y159711D01*
X36045Y159674D01*
X35876Y159599D01*
X35703Y159533D01*
X35587Y159471D01*
X35467Y159418D01*
X35308Y159322D01*
X35145Y159235D01*
X35038Y159159D01*
X34926Y159091D01*
X34781Y158977D01*
X34630Y158869D01*
X34516Y158767D01*
X34430Y158699D01*
X34354Y158621D01*
X34240Y158518D01*
X33792Y158070D01*
X32471Y157057D01*
X31030Y156225D01*
X30399Y155964D01*
X30399Y177800D01*
X30388Y177984D01*
X30386Y178169D01*
X30368Y178299D01*
X30359Y178430D01*
X30325Y178612D01*
X30299Y178795D01*
X30265Y178922D01*
X30240Y179051D01*
X30183Y179227D01*
X30134Y179406D01*
X30085Y179527D01*
X30044Y179652D01*
X29964Y179819D01*
X29894Y179990D01*
X29829Y180104D01*
X29773Y180223D01*
X29673Y180379D01*
X29582Y180540D01*
X29503Y180645D01*
X29432Y180755D01*
X29313Y180898D01*
X29202Y181045D01*
X29111Y181140D01*
X29027Y181241D01*
X28891Y181366D01*
X28763Y181499D01*
X28660Y181581D01*
X28564Y181671D01*
X28413Y181778D01*
X28269Y181894D01*
X28156Y181963D01*
X28050Y182039D01*
X27887Y182127D01*
X27729Y182223D01*
X27609Y182277D01*
X27494Y182339D01*
X27321Y182406D01*
X27152Y182482D01*
X27027Y182520D01*
X26904Y182567D01*
X26725Y182612D01*
X26548Y182665D01*
X26418Y182687D01*
X26291Y182719D01*
X26107Y182740D01*
X25924Y182771D01*
X25771Y182779D01*
X25663Y182792D01*
X25662Y182792D01*
X25554Y182791D01*
X25400Y182799D01*
X25215Y182787D01*
X25030Y182785D01*
X24900Y182767D01*
X24769Y182759D01*
X24587Y182724D01*
X24404Y182699D01*
X24277Y182665D01*
X24148Y182640D01*
X23972Y182582D01*
X23794Y182534D01*
X23673Y182484D01*
X23548Y182443D01*
X23380Y182364D01*
X23209Y182293D01*
X23095Y182229D01*
X22976Y182172D01*
X22820Y182072D01*
X22660Y181981D01*
X22555Y181902D01*
X22444Y181832D01*
X22302Y181713D01*
X22154Y181602D01*
X22060Y181511D01*
X21959Y181426D01*
X21833Y181291D01*
X21700Y181162D01*
X21618Y181059D01*
X21529Y180963D01*
X21421Y180813D01*
X21306Y180668D01*
X21237Y180556D01*
X21161Y180449D01*
X21073Y180287D01*
X20976Y180129D01*
X20922Y180009D01*
X20860Y179893D01*
X20793Y179721D01*
X20718Y179552D01*
X20680Y179426D01*
X20632Y179304D01*
X20588Y179124D01*
X20534Y178947D01*
X20512Y178817D01*
X20481Y178690D01*
X20459Y178507D01*
X20428Y178324D01*
X20420Y178170D01*
X20407Y178062D01*
X20409Y177953D01*
X20401Y177800D01*
X20401Y155964D01*
X19770Y156225D01*
X18329Y157057D01*
X16781Y158245D01*
X16760Y158263D01*
X16546Y158409D01*
X16335Y158559D01*
X16285Y158586D01*
X16237Y158618D01*
X16007Y158736D01*
X15778Y158859D01*
X15725Y158879D01*
X15674Y158905D01*
X15431Y158992D01*
X15188Y159085D01*
X15133Y159099D01*
X15079Y159118D01*
X14826Y159174D01*
X14574Y159236D01*
X14518Y159242D01*
X14462Y159255D01*
X14204Y159278D01*
X13946Y159308D01*
X13889Y159307D01*
X13832Y159312D01*
X13573Y159303D01*
X13314Y159300D01*
X13258Y159292D01*
X13201Y159290D01*
X12945Y159248D01*
X12688Y159212D01*
X12633Y159197D01*
X12577Y159188D01*
X12329Y159114D01*
X12078Y159046D01*
X12026Y159024D01*
X11971Y159008D01*
X11734Y158903D01*
X11494Y158804D01*
X11445Y158776D01*
X11392Y158753D01*
X11170Y158619D01*
X10945Y158491D01*
X10900Y158456D01*
X10851Y158427D01*
X10647Y158266D01*
X10440Y158111D01*
X10400Y158071D01*
X10355Y158035D01*
X10173Y157850D01*
X9988Y157670D01*
X9952Y157625D01*
X9912Y157584D01*
X9755Y157378D01*
X9594Y157175D01*
X9564Y157127D01*
X9530Y157081D01*
X9400Y156856D01*
X9266Y156635D01*
X9242Y156583D01*
X9214Y156533D01*
X9114Y156294D01*
X9008Y156058D01*
X8992Y156003D01*
X8970Y155950D01*
X8901Y155701D01*
X8826Y155453D01*
X8816Y155396D01*
X8801Y155341D01*
X8764Y155085D01*
X8721Y154829D01*
X8718Y154765D01*
X8711Y154715D01*
X8708Y154576D01*
X8695Y154305D01*
X8727Y137803D01*
X8743Y137569D01*
X8750Y137334D01*
X8763Y137254D01*
X8768Y137172D01*
X8813Y136942D01*
X8850Y136710D01*
X8873Y136632D01*
X8889Y136552D01*
X8962Y136329D01*
X9028Y136104D01*
X9061Y136029D01*
X9087Y135951D01*
X9188Y135739D01*
X9282Y135525D01*
X9323Y135455D01*
X9359Y135381D01*
X9486Y135183D01*
X9606Y134982D01*
X9656Y134918D01*
X9701Y134849D01*
X9852Y134669D01*
X9996Y134485D01*
X10054Y134427D01*
X10107Y134365D01*
X10279Y134205D01*
X10446Y134041D01*
X10511Y133991D01*
X10571Y133936D01*
X10761Y133799D01*
X10948Y133657D01*
X11019Y133616D01*
X11085Y133568D01*
X11292Y133457D01*
X11495Y133339D01*
X11570Y133308D01*
X11642Y133269D01*
X11861Y133185D01*
X12077Y133094D01*
X12156Y133072D01*
X12232Y133042D01*
X12460Y132986D01*
X12686Y132923D01*
X12767Y132911D01*
X12846Y132892D01*
X13079Y132865D01*
X13311Y132831D01*
X13393Y132829D01*
X13474Y132820D01*
X13709Y132823D01*
X13943Y132818D01*
X14024Y132827D01*
X14106Y132828D01*
X14339Y132861D01*
X14572Y132886D01*
X14651Y132904D01*
X14732Y132916D01*
X14959Y132978D01*
X15187Y133032D01*
X15263Y133060D01*
X15342Y133082D01*
X15559Y133172D01*
X15778Y133254D01*
X15850Y133292D01*
X15926Y133323D01*
X16130Y133440D01*
X16337Y133549D01*
X16413Y133602D01*
X16475Y133637D01*
X16583Y133719D01*
X16770Y133847D01*
X18329Y135043D01*
X19770Y135875D01*
X20401Y136136D01*
X20401Y114300D01*
X20401Y92464D01*
X19770Y92725D01*
X18329Y93557D01*
X16863Y94681D01*
X16660Y94818D01*
X16461Y94960D01*
X16398Y94994D01*
X16339Y95034D01*
X16120Y95144D01*
X15905Y95259D01*
X15838Y95285D01*
X15774Y95317D01*
X15543Y95398D01*
X15314Y95486D01*
X15245Y95503D01*
X15177Y95527D01*
X14939Y95578D01*
X14701Y95636D01*
X14629Y95645D01*
X14559Y95660D01*
X14316Y95680D01*
X14073Y95708D01*
X14001Y95707D01*
X13929Y95713D01*
X13685Y95703D01*
X13441Y95700D01*
X13369Y95690D01*
X13298Y95687D01*
X13057Y95646D01*
X12815Y95612D01*
X12746Y95594D01*
X12675Y95582D01*
X12440Y95511D01*
X12205Y95446D01*
X12138Y95419D01*
X12070Y95398D01*
X11847Y95298D01*
X11621Y95205D01*
X11558Y95169D01*
X11493Y95140D01*
X11284Y95012D01*
X11072Y94891D01*
X11014Y94848D01*
X10953Y94811D01*
X10762Y94658D01*
X10567Y94511D01*
X10515Y94461D01*
X10459Y94416D01*
X10289Y94241D01*
X10114Y94070D01*
X10069Y94014D01*
X10019Y93963D01*
X9872Y93767D01*
X9720Y93576D01*
X9683Y93515D01*
X9640Y93457D01*
X9519Y93245D01*
X9392Y93036D01*
X9363Y92970D01*
X9327Y92908D01*
X9234Y92682D01*
X9134Y92458D01*
X9114Y92390D01*
X9086Y92323D01*
X9023Y92088D01*
X8952Y91853D01*
X8940Y91782D01*
X8921Y91713D01*
X8888Y91471D01*
X8847Y91230D01*
X8843Y91149D01*
X8835Y91087D01*
X8833Y90948D01*
X8821Y90705D01*
X8895Y53348D01*
X8911Y53103D01*
X8920Y52857D01*
X8931Y52788D01*
X8936Y52717D01*
X8983Y52476D01*
X9023Y52234D01*
X9043Y52166D01*
X9057Y52097D01*
X9133Y51863D01*
X9204Y51628D01*
X9232Y51564D01*
X9254Y51496D01*
X9360Y51275D01*
X9459Y51050D01*
X9496Y50990D01*
X9526Y50926D01*
X9659Y50719D01*
X9786Y50509D01*
X9830Y50454D01*
X9868Y50394D01*
X10026Y50206D01*
X10178Y50013D01*
X10229Y49964D01*
X10274Y49910D01*
X10455Y49743D01*
X10630Y49571D01*
X10686Y49529D01*
X10738Y49481D01*
X10938Y49338D01*
X11134Y49190D01*
X11195Y49154D01*
X11253Y49113D01*
X11469Y48997D01*
X11682Y48875D01*
X11747Y48847D01*
X11810Y48814D01*
X12039Y48726D01*
X12265Y48631D01*
X12333Y48613D01*
X12400Y48587D01*
X12638Y48529D01*
X12875Y48464D01*
X12945Y48454D01*
X13013Y48437D01*
X13258Y48409D01*
X13501Y48374D01*
X13571Y48373D01*
X13641Y48365D01*
X13887Y48368D01*
X14133Y48364D01*
X14203Y48372D01*
X14274Y48373D01*
X14516Y48407D01*
X14761Y48434D01*
X14830Y48451D01*
X14900Y48461D01*
X15136Y48525D01*
X15375Y48583D01*
X15441Y48608D01*
X15509Y48627D01*
X15737Y48721D01*
X15966Y48808D01*
X16028Y48841D01*
X16093Y48868D01*
X16307Y48990D01*
X16523Y49106D01*
X16581Y49147D01*
X16642Y49182D01*
X16839Y49330D01*
X17039Y49472D01*
X17098Y49525D01*
X17147Y49562D01*
X17247Y49659D01*
X17429Y49823D01*
X17772Y50166D01*
X20401Y50166D01*
X20401Y31750D01*
X20401Y13334D01*
X17772Y13334D01*
X17515Y13591D01*
X17323Y13760D01*
X17136Y13934D01*
X17086Y13969D01*
X17041Y14009D01*
X16830Y14152D01*
X16621Y14301D01*
X16568Y14330D01*
X16518Y14364D01*
X16290Y14479D01*
X16065Y14600D01*
X16008Y14622D01*
X15954Y14649D01*
X15713Y14735D01*
X15475Y14827D01*
X15416Y14841D01*
X15358Y14862D01*
X15109Y14916D01*
X14861Y14977D01*
X14800Y14984D01*
X14741Y14997D01*
X14487Y15020D01*
X14233Y15049D01*
X14172Y15048D01*
X14111Y15054D01*
X13856Y15044D01*
X13601Y15041D01*
X13540Y15033D01*
X13480Y15030D01*
X13228Y14989D01*
X12975Y14953D01*
X12916Y14937D01*
X12856Y14927D01*
X12611Y14854D01*
X12365Y14787D01*
X12309Y14764D01*
X12250Y14747D01*
X12016Y14643D01*
X11781Y14546D01*
X11728Y14516D01*
X11672Y14491D01*
X11453Y14359D01*
X11232Y14232D01*
X11183Y14196D01*
X11131Y14164D01*
X10931Y14006D01*
X10727Y13852D01*
X10683Y13810D01*
X10636Y13772D01*
X10457Y13590D01*
X10274Y13411D01*
X10236Y13364D01*
X10193Y13320D01*
X10040Y13117D01*
X9880Y12917D01*
X9848Y12865D01*
X9812Y12816D01*
X9685Y12595D01*
X9552Y12376D01*
X9527Y12321D01*
X9497Y12268D01*
X9398Y12032D01*
X9294Y11799D01*
X9277Y11741D01*
X9254Y11685D01*
X9186Y11439D01*
X9112Y11194D01*
X9102Y11134D01*
X9086Y11076D01*
X9050Y10824D01*
X9007Y10571D01*
X9004Y10503D01*
X8996Y10450D01*
X8994Y10310D01*
X8981Y10046D01*
X8985Y8001D01*
X8997Y7818D01*
X8999Y7635D01*
X9017Y7503D01*
X9026Y7370D01*
X9061Y7190D01*
X9086Y7009D01*
X9121Y6880D01*
X9147Y6750D01*
X9204Y6575D01*
X9252Y6399D01*
X9303Y6276D01*
X9344Y6149D01*
X9423Y5984D01*
X9493Y5814D01*
X9559Y5699D01*
X9616Y5579D01*
X9715Y5425D01*
X9806Y5265D01*
X9886Y5159D01*
X9958Y5047D01*
X10076Y4906D01*
X10186Y4760D01*
X10279Y4665D01*
X10364Y4563D01*
X10499Y4438D01*
X10627Y4307D01*
X10731Y4224D01*
X10828Y4134D01*
X10978Y4027D01*
X11121Y3913D01*
X11235Y3844D01*
X11343Y3766D01*
X11505Y3679D01*
X11661Y3584D01*
X11782Y3530D01*
X11900Y3467D01*
X12071Y3401D01*
X12238Y3326D01*
X12366Y3288D01*
X12490Y3240D01*
X12668Y3197D01*
X12843Y3144D01*
X12974Y3122D01*
X13104Y3090D01*
X13286Y3069D01*
X13467Y3039D01*
X13622Y3031D01*
X13732Y3018D01*
X13840Y3019D01*
X13991Y3012D01*
X428233Y3580D01*
G37*
G36*
X422554Y275894D02*
X422554Y275894D01*
X422738Y275891D01*
X422869Y275906D01*
X423000Y275911D01*
X423183Y275941D01*
X423367Y275961D01*
X423494Y275992D01*
X423624Y276014D01*
X423801Y276066D01*
X423981Y276110D01*
X424104Y276157D01*
X424230Y276194D01*
X424399Y276269D01*
X424572Y276335D01*
X424688Y276397D01*
X424808Y276450D01*
X424966Y276546D01*
X425129Y276633D01*
X425236Y276709D01*
X425349Y276777D01*
X425494Y276892D01*
X425645Y276999D01*
X425759Y277101D01*
X425844Y277169D01*
X425921Y277247D01*
X426035Y277350D01*
X435511Y286826D01*
X435526Y286842D01*
X435542Y286857D01*
X435734Y287079D01*
X435929Y287300D01*
X435941Y287318D01*
X435955Y287334D01*
X436119Y287580D01*
X436284Y287824D01*
X436293Y287843D01*
X436305Y287861D01*
X436437Y288125D01*
X436570Y288387D01*
X436577Y288408D01*
X436586Y288427D01*
X436683Y288705D01*
X436782Y288983D01*
X436786Y289004D01*
X436793Y289024D01*
X436854Y289313D01*
X436917Y289600D01*
X436919Y289621D01*
X436924Y289643D01*
X436948Y289937D01*
X436974Y290230D01*
X436973Y290251D01*
X436975Y290273D01*
X436961Y290566D01*
X436950Y290861D01*
X436947Y290883D01*
X436946Y290904D01*
X436896Y291193D01*
X436848Y291485D01*
X436841Y291506D01*
X436838Y291527D01*
X436752Y291807D01*
X436667Y292091D01*
X436658Y292111D01*
X436652Y292131D01*
X436530Y292399D01*
X436411Y292669D01*
X436400Y292687D01*
X436391Y292707D01*
X436236Y292958D01*
X436084Y293210D01*
X436071Y293227D01*
X436060Y293245D01*
X435875Y293475D01*
X435692Y293706D01*
X435677Y293721D01*
X435663Y293737D01*
X435451Y293942D01*
X435240Y294148D01*
X435223Y294161D01*
X435208Y294176D01*
X434971Y294352D01*
X434736Y294529D01*
X434718Y294540D01*
X434701Y294553D01*
X434246Y294815D01*
X432558Y295675D01*
X431200Y296662D01*
X430012Y297850D01*
X429025Y299208D01*
X428724Y299801D01*
X438150Y299801D01*
X438334Y299812D01*
X438519Y299814D01*
X438649Y299832D01*
X438780Y299841D01*
X438962Y299875D01*
X439145Y299901D01*
X439272Y299935D01*
X439401Y299960D01*
X439577Y300017D01*
X439756Y300066D01*
X439877Y300115D01*
X440002Y300156D01*
X440169Y300236D01*
X440340Y300306D01*
X440454Y300371D01*
X440573Y300427D01*
X440729Y300527D01*
X440890Y300618D01*
X440995Y300697D01*
X441105Y300768D01*
X441248Y300887D01*
X441395Y300998D01*
X441490Y301089D01*
X441591Y301173D01*
X441716Y301309D01*
X441849Y301437D01*
X441931Y301540D01*
X442021Y301636D01*
X442128Y301786D01*
X442244Y301931D01*
X442313Y302044D01*
X442389Y302150D01*
X442477Y302313D01*
X442573Y302471D01*
X442627Y302591D01*
X442689Y302706D01*
X442756Y302879D01*
X442832Y303048D01*
X442870Y303173D01*
X442917Y303296D01*
X442962Y303475D01*
X443015Y303652D01*
X443037Y303782D01*
X443069Y303909D01*
X443090Y304093D01*
X443121Y304276D01*
X443129Y304429D01*
X443142Y304537D01*
X443142Y304538D01*
X443141Y304646D01*
X443149Y304800D01*
X443137Y304985D01*
X443135Y305170D01*
X443117Y305300D01*
X443109Y305431D01*
X443074Y305613D01*
X443049Y305796D01*
X443015Y305922D01*
X442990Y306052D01*
X442932Y306228D01*
X442884Y306406D01*
X442834Y306527D01*
X442793Y306652D01*
X442714Y306820D01*
X442643Y306991D01*
X442579Y307105D01*
X442522Y307224D01*
X442422Y307379D01*
X442331Y307540D01*
X442252Y307645D01*
X442182Y307756D01*
X442063Y307898D01*
X441952Y308046D01*
X441861Y308140D01*
X441776Y308241D01*
X441641Y308367D01*
X441512Y308500D01*
X441409Y308582D01*
X441313Y308671D01*
X441163Y308779D01*
X441018Y308894D01*
X440906Y308963D01*
X440799Y309039D01*
X440637Y309127D01*
X440479Y309224D01*
X440359Y309278D01*
X440243Y309340D01*
X440071Y309407D01*
X439902Y309482D01*
X439776Y309520D01*
X439654Y309568D01*
X439474Y309612D01*
X439297Y309666D01*
X439167Y309688D01*
X439040Y309719D01*
X438857Y309741D01*
X438674Y309772D01*
X438520Y309780D01*
X438412Y309792D01*
X438303Y309791D01*
X438150Y309799D01*
X428724Y309799D01*
X429025Y310392D01*
X430012Y311750D01*
X431200Y312938D01*
X432558Y313925D01*
X432855Y314076D01*
X432873Y314087D01*
X432893Y314095D01*
X433145Y314248D01*
X433399Y314398D01*
X433415Y314411D01*
X433434Y314422D01*
X433665Y314605D01*
X433898Y314786D01*
X433913Y314801D01*
X433930Y314814D01*
X434135Y315024D01*
X434344Y315234D01*
X434357Y315251D01*
X434372Y315266D01*
X434550Y315501D01*
X434729Y315734D01*
X434740Y315753D01*
X434753Y315770D01*
X434901Y316027D01*
X435049Y316279D01*
X435058Y316299D01*
X435068Y316318D01*
X435182Y316591D01*
X435297Y316861D01*
X435303Y316881D01*
X435312Y316901D01*
X435390Y317184D01*
X435470Y317469D01*
X435474Y317490D01*
X435479Y317511D01*
X435521Y317804D01*
X435565Y318094D01*
X435566Y318115D01*
X435569Y318137D01*
X435573Y318429D01*
X435581Y318726D01*
X435578Y318747D01*
X435579Y318769D01*
X435546Y319061D01*
X435516Y319354D01*
X435511Y319375D01*
X435509Y319397D01*
X435439Y319683D01*
X435373Y319970D01*
X435365Y319990D01*
X435360Y320011D01*
X435256Y320285D01*
X435153Y320563D01*
X435143Y320582D01*
X435135Y320602D01*
X434996Y320862D01*
X434860Y321123D01*
X434847Y321140D01*
X434837Y321159D01*
X434667Y321400D01*
X434498Y321641D01*
X434484Y321657D01*
X434471Y321675D01*
X434120Y322065D01*
X433217Y322968D01*
X432127Y325599D01*
X432017Y325824D01*
X431913Y326052D01*
X431878Y326108D01*
X431849Y326167D01*
X431711Y326376D01*
X431579Y326589D01*
X431537Y326640D01*
X431501Y326695D01*
X431339Y326884D01*
X431180Y327079D01*
X431133Y327125D01*
X431090Y327174D01*
X430904Y327343D01*
X430723Y327515D01*
X430670Y327554D01*
X430621Y327598D01*
X430415Y327742D01*
X430214Y327890D01*
X430157Y327922D01*
X430102Y327960D01*
X429880Y328076D01*
X429662Y328198D01*
X429601Y328223D01*
X429542Y328253D01*
X429308Y328340D01*
X429075Y328434D01*
X429011Y328450D01*
X428950Y328473D01*
X428707Y328530D01*
X428464Y328593D01*
X428398Y328602D01*
X428334Y328617D01*
X428085Y328642D01*
X427837Y328675D01*
X427771Y328675D01*
X427706Y328682D01*
X427455Y328676D01*
X427205Y328676D01*
X427139Y328668D01*
X427074Y328666D01*
X426827Y328629D01*
X426577Y328598D01*
X426514Y328582D01*
X426449Y328572D01*
X426208Y328503D01*
X425965Y328441D01*
X425904Y328417D01*
X425841Y328399D01*
X425611Y328301D01*
X425377Y328208D01*
X425320Y328177D01*
X425259Y328151D01*
X425043Y328024D01*
X424824Y327903D01*
X424771Y327865D01*
X424714Y327831D01*
X424515Y327678D01*
X424313Y327531D01*
X424265Y327486D01*
X424213Y327446D01*
X424036Y327269D01*
X423854Y327097D01*
X423812Y327046D01*
X423765Y327000D01*
X423612Y326802D01*
X423452Y326608D01*
X423417Y326553D01*
X423377Y326501D01*
X423250Y326285D01*
X423116Y326073D01*
X423084Y326007D01*
X423055Y325957D01*
X422999Y325829D01*
X422890Y325599D01*
X422184Y323896D01*
X419054Y320765D01*
X414964Y319071D01*
X410536Y319071D01*
X406446Y320765D01*
X403315Y323896D01*
X401621Y327986D01*
X401621Y332414D01*
X403345Y336575D01*
X403453Y336698D01*
X403520Y336797D01*
X403594Y336890D01*
X403697Y337058D01*
X403807Y337221D01*
X403861Y337327D01*
X403924Y337429D01*
X404004Y337609D01*
X404093Y337785D01*
X404133Y337897D01*
X404182Y338006D01*
X404239Y338195D01*
X404306Y338380D01*
X404331Y338497D01*
X404366Y338611D01*
X404399Y338805D01*
X404441Y338998D01*
X404452Y339116D01*
X404472Y339234D01*
X404485Y339488D01*
X404498Y339627D01*
X404495Y339685D01*
X404499Y339758D01*
X404499Y379153D01*
X404485Y379370D01*
X404480Y379588D01*
X404466Y379685D01*
X404459Y379784D01*
X404418Y379997D01*
X404386Y380213D01*
X404359Y380308D01*
X404340Y380404D01*
X404272Y380611D01*
X404213Y380821D01*
X404174Y380911D01*
X404143Y381005D01*
X404050Y381202D01*
X403965Y381402D01*
X403915Y381487D01*
X403873Y381576D01*
X403755Y381760D01*
X403645Y381948D01*
X403585Y382026D01*
X403532Y382109D01*
X403392Y382276D01*
X403259Y382448D01*
X403190Y382518D01*
X403127Y382594D01*
X402967Y382742D01*
X402813Y382896D01*
X402736Y382957D01*
X402663Y383024D01*
X402487Y383151D01*
X402315Y383284D01*
X402230Y383335D01*
X402150Y383392D01*
X401958Y383496D01*
X401771Y383607D01*
X401680Y383646D01*
X401594Y383693D01*
X401390Y383771D01*
X401191Y383858D01*
X401096Y383885D01*
X401004Y383920D01*
X400792Y383973D01*
X400583Y384033D01*
X400486Y384049D01*
X400390Y384072D01*
X400174Y384097D01*
X399959Y384131D01*
X399860Y384134D01*
X399763Y384145D01*
X399545Y384143D01*
X399327Y384149D01*
X399229Y384139D01*
X399130Y384138D01*
X398915Y384109D01*
X398698Y384087D01*
X398602Y384065D01*
X398504Y384052D01*
X398294Y383995D01*
X398082Y383947D01*
X397976Y383909D01*
X397894Y383887D01*
X397775Y383838D01*
X397587Y383772D01*
X396302Y383239D01*
X391098Y383239D01*
X386290Y385231D01*
X384535Y386986D01*
X384396Y387108D01*
X384264Y387238D01*
X384159Y387317D01*
X384061Y387404D01*
X383908Y387508D01*
X383760Y387619D01*
X383646Y387685D01*
X383537Y387758D01*
X383373Y387842D01*
X383212Y387934D01*
X383091Y387985D01*
X382974Y388044D01*
X382800Y388106D01*
X382629Y388178D01*
X382502Y388212D01*
X382378Y388257D01*
X382198Y388296D01*
X382019Y388345D01*
X381889Y388364D01*
X381761Y388392D01*
X381577Y388409D01*
X381394Y388435D01*
X381262Y388437D01*
X381131Y388449D01*
X380947Y388442D01*
X380762Y388445D01*
X380631Y388430D01*
X380500Y388425D01*
X380317Y388395D01*
X380133Y388375D01*
X380005Y388344D01*
X379876Y388322D01*
X379699Y388269D01*
X379519Y388226D01*
X379396Y388179D01*
X379270Y388142D01*
X379101Y388067D01*
X378928Y388001D01*
X378813Y387939D01*
X378692Y387886D01*
X378534Y387790D01*
X378371Y387703D01*
X378264Y387627D01*
X378151Y387559D01*
X378006Y387444D01*
X377855Y387337D01*
X377741Y387235D01*
X377656Y387167D01*
X377579Y387089D01*
X377465Y386986D01*
X375710Y385231D01*
X370902Y383239D01*
X365698Y383239D01*
X360890Y385231D01*
X359135Y386986D01*
X358996Y387108D01*
X358864Y387238D01*
X358759Y387317D01*
X358661Y387404D01*
X358508Y387508D01*
X358360Y387619D01*
X358246Y387685D01*
X358137Y387758D01*
X357973Y387842D01*
X357812Y387934D01*
X357691Y387985D01*
X357574Y388044D01*
X357400Y388106D01*
X357229Y388178D01*
X357102Y388212D01*
X356978Y388257D01*
X356798Y388296D01*
X356619Y388345D01*
X356489Y388364D01*
X356361Y388392D01*
X356177Y388409D01*
X355994Y388435D01*
X355862Y388437D01*
X355731Y388449D01*
X355547Y388442D01*
X355362Y388445D01*
X355231Y388430D01*
X355100Y388425D01*
X354917Y388395D01*
X354733Y388375D01*
X354605Y388344D01*
X354476Y388322D01*
X354299Y388269D01*
X354119Y388226D01*
X353996Y388179D01*
X353870Y388142D01*
X353701Y388067D01*
X353528Y388001D01*
X353413Y387939D01*
X353292Y387886D01*
X353134Y387790D01*
X352971Y387703D01*
X352864Y387627D01*
X352751Y387559D01*
X352606Y387444D01*
X352455Y387337D01*
X352341Y387235D01*
X352256Y387167D01*
X352179Y387089D01*
X352065Y386986D01*
X350310Y385231D01*
X345502Y383239D01*
X340298Y383239D01*
X335490Y385231D01*
X333410Y387311D01*
X333271Y387434D01*
X333139Y387563D01*
X333034Y387642D01*
X332935Y387729D01*
X332782Y387833D01*
X332635Y387945D01*
X332521Y388010D01*
X332412Y388084D01*
X332247Y388167D01*
X332087Y388260D01*
X331965Y388310D01*
X331848Y388369D01*
X331674Y388432D01*
X331503Y388503D01*
X331377Y388538D01*
X331253Y388582D01*
X331072Y388622D01*
X330894Y388671D01*
X330764Y388689D01*
X330636Y388717D01*
X330451Y388734D01*
X330268Y388760D01*
X330137Y388762D01*
X330006Y388774D01*
X329821Y388767D01*
X329636Y388770D01*
X329506Y388755D01*
X329374Y388750D01*
X329192Y388720D01*
X329008Y388700D01*
X328880Y388669D01*
X328751Y388648D01*
X328574Y388595D01*
X328394Y388551D01*
X328271Y388504D01*
X328145Y388467D01*
X327976Y388392D01*
X327803Y388326D01*
X327687Y388264D01*
X327567Y388211D01*
X327409Y388116D01*
X327245Y388028D01*
X327138Y387952D01*
X327026Y387884D01*
X326881Y387770D01*
X326730Y387663D01*
X326616Y387560D01*
X326530Y387492D01*
X326454Y387414D01*
X326340Y387311D01*
X325839Y386811D01*
X324527Y385804D01*
X323094Y384977D01*
X322499Y384730D01*
X322499Y406400D01*
X322499Y428070D01*
X323094Y427823D01*
X324527Y426996D01*
X325839Y425989D01*
X326340Y425489D01*
X326479Y425366D01*
X326611Y425237D01*
X326715Y425158D01*
X326814Y425071D01*
X326967Y424967D01*
X327115Y424855D01*
X327228Y424790D01*
X327337Y424716D01*
X327502Y424633D01*
X327663Y424540D01*
X327784Y424490D01*
X327901Y424431D01*
X328075Y424368D01*
X328246Y424297D01*
X328373Y424262D01*
X328496Y424218D01*
X328677Y424179D01*
X328855Y424129D01*
X328986Y424111D01*
X329114Y424083D01*
X329298Y424066D01*
X329481Y424040D01*
X329613Y424038D01*
X329743Y424026D01*
X329928Y424033D01*
X330113Y424030D01*
X330244Y424045D01*
X330375Y424050D01*
X330557Y424080D01*
X330741Y424100D01*
X330869Y424131D01*
X330999Y424152D01*
X331176Y424205D01*
X331356Y424249D01*
X331478Y424296D01*
X331604Y424333D01*
X331774Y424408D01*
X331946Y424474D01*
X332062Y424536D01*
X332182Y424589D01*
X332341Y424685D01*
X332504Y424772D01*
X332611Y424848D01*
X332724Y424916D01*
X332868Y425030D01*
X333020Y425137D01*
X333134Y425240D01*
X333219Y425308D01*
X333295Y425386D01*
X333410Y425489D01*
X335490Y427569D01*
X340298Y429561D01*
X340516Y429561D01*
X340733Y429574D01*
X340951Y429580D01*
X341048Y429594D01*
X341146Y429601D01*
X341360Y429642D01*
X341576Y429674D01*
X341670Y429701D01*
X341767Y429720D01*
X341974Y429788D01*
X342184Y429847D01*
X342274Y429886D01*
X342368Y429917D01*
X342565Y430010D01*
X342765Y430095D01*
X342850Y430145D01*
X342939Y430187D01*
X343122Y430305D01*
X343310Y430415D01*
X343389Y430475D01*
X343471Y430528D01*
X343639Y430668D01*
X343811Y430801D01*
X343881Y430870D01*
X343957Y430933D01*
X344104Y431093D01*
X344259Y431247D01*
X344320Y431325D01*
X344387Y431397D01*
X344513Y431573D01*
X344647Y431745D01*
X344698Y431830D01*
X344755Y431910D01*
X344858Y432102D01*
X344969Y432289D01*
X345009Y432380D01*
X345055Y432466D01*
X345134Y432670D01*
X345220Y432869D01*
X345248Y432964D01*
X345283Y433056D01*
X345336Y433267D01*
X345396Y433477D01*
X345411Y433574D01*
X345435Y433670D01*
X345460Y433886D01*
X345494Y434101D01*
X345497Y434200D01*
X345508Y434297D01*
X345506Y434515D01*
X345512Y434733D01*
X345502Y434831D01*
X345501Y434930D01*
X345471Y435145D01*
X345450Y435362D01*
X345428Y435458D01*
X345415Y435556D01*
X345358Y435766D01*
X345309Y435978D01*
X345289Y436035D01*
X345289Y440201D01*
X347219Y444859D01*
X347247Y444941D01*
X347282Y445020D01*
X347349Y445240D01*
X347423Y445457D01*
X347441Y445542D01*
X347466Y445625D01*
X347504Y445851D01*
X347551Y446076D01*
X347557Y446162D01*
X347572Y446248D01*
X347589Y446581D01*
X347599Y446707D01*
X347597Y446736D01*
X347599Y446772D01*
X347599Y459037D01*
X347584Y459277D01*
X347576Y459517D01*
X347564Y459592D01*
X347559Y459668D01*
X347514Y459904D01*
X347476Y460141D01*
X347454Y460214D01*
X347440Y460289D01*
X347365Y460517D01*
X347298Y460747D01*
X347267Y460817D01*
X347243Y460889D01*
X347140Y461107D01*
X347044Y461327D01*
X347005Y461392D01*
X346973Y461461D01*
X346843Y461663D01*
X346720Y461869D01*
X346673Y461929D01*
X346632Y461993D01*
X346478Y462177D01*
X346330Y462366D01*
X346275Y462420D01*
X346227Y462478D01*
X346051Y462641D01*
X345880Y462810D01*
X345819Y462856D01*
X345763Y462908D01*
X345568Y463048D01*
X345377Y463194D01*
X345312Y463232D01*
X345250Y463276D01*
X345038Y463391D01*
X344831Y463511D01*
X344761Y463541D01*
X344694Y463577D01*
X344470Y463663D01*
X344248Y463757D01*
X344175Y463777D01*
X344104Y463805D01*
X343871Y463862D01*
X343639Y463927D01*
X343564Y463938D01*
X343490Y463956D01*
X343252Y463984D01*
X343014Y464019D01*
X342938Y464021D01*
X342863Y464029D01*
X342623Y464027D01*
X342382Y464032D01*
X342306Y464023D01*
X342230Y464023D01*
X341993Y463990D01*
X341754Y463964D01*
X341680Y463947D01*
X341604Y463936D01*
X341373Y463874D01*
X341139Y463818D01*
X341067Y463791D01*
X340994Y463771D01*
X340772Y463680D01*
X340547Y463595D01*
X340480Y463560D01*
X340410Y463531D01*
X340200Y463412D01*
X339988Y463300D01*
X339918Y463251D01*
X339860Y463219D01*
X339814Y463184D01*
X338294Y462307D01*
X337699Y462060D01*
X337699Y473650D01*
X337699Y485240D01*
X338294Y484993D01*
X339727Y484166D01*
X341039Y483159D01*
X341540Y482659D01*
X341679Y482536D01*
X341811Y482407D01*
X341915Y482328D01*
X342014Y482241D01*
X342167Y482137D01*
X342315Y482025D01*
X342428Y481960D01*
X342537Y481886D01*
X342702Y481803D01*
X342863Y481710D01*
X342984Y481660D01*
X343101Y481601D01*
X343275Y481538D01*
X343446Y481467D01*
X343573Y481432D01*
X343696Y481388D01*
X343877Y481349D01*
X344055Y481299D01*
X344186Y481281D01*
X344314Y481253D01*
X344498Y481236D01*
X344681Y481210D01*
X344813Y481208D01*
X344943Y481196D01*
X345128Y481203D01*
X345313Y481200D01*
X345444Y481215D01*
X345575Y481220D01*
X345757Y481250D01*
X345941Y481270D01*
X346069Y481301D01*
X346199Y481322D01*
X346376Y481375D01*
X346556Y481419D01*
X346678Y481466D01*
X346804Y481503D01*
X346974Y481578D01*
X347146Y481644D01*
X347262Y481706D01*
X347382Y481759D01*
X347541Y481855D01*
X347704Y481942D01*
X347811Y482018D01*
X347924Y482086D01*
X348068Y482200D01*
X348220Y482307D01*
X348334Y482410D01*
X348419Y482478D01*
X348495Y482556D01*
X348610Y482659D01*
X350690Y484739D01*
X355498Y486731D01*
X360702Y486731D01*
X365510Y484739D01*
X367265Y482984D01*
X367404Y482862D01*
X367536Y482732D01*
X367641Y482653D01*
X367739Y482566D01*
X367893Y482462D01*
X368040Y482351D01*
X368154Y482285D01*
X368263Y482212D01*
X368428Y482128D01*
X368588Y482036D01*
X368709Y481985D01*
X368826Y481926D01*
X369001Y481864D01*
X369171Y481792D01*
X369298Y481758D01*
X369422Y481713D01*
X369602Y481674D01*
X369781Y481625D01*
X369911Y481606D01*
X370039Y481578D01*
X370223Y481561D01*
X370406Y481535D01*
X370538Y481533D01*
X370669Y481521D01*
X370854Y481528D01*
X371039Y481525D01*
X371169Y481540D01*
X371300Y481545D01*
X371483Y481575D01*
X371667Y481595D01*
X371795Y481626D01*
X371924Y481648D01*
X372101Y481701D01*
X372281Y481744D01*
X372404Y481791D01*
X372530Y481828D01*
X372699Y481903D01*
X372872Y481969D01*
X372988Y482031D01*
X373108Y482084D01*
X373266Y482180D01*
X373429Y482267D01*
X373536Y482343D01*
X373649Y482411D01*
X373794Y482526D01*
X373945Y482633D01*
X374059Y482736D01*
X374145Y482803D01*
X374221Y482881D01*
X374335Y482984D01*
X376090Y484739D01*
X380898Y486731D01*
X386102Y486731D01*
X390910Y484739D01*
X392665Y482984D01*
X392804Y482862D01*
X392936Y482732D01*
X393041Y482653D01*
X393139Y482566D01*
X393293Y482462D01*
X393440Y482351D01*
X393554Y482285D01*
X393663Y482212D01*
X393828Y482128D01*
X393988Y482036D01*
X394109Y481985D01*
X394226Y481926D01*
X394401Y481864D01*
X394571Y481792D01*
X394698Y481758D01*
X394822Y481713D01*
X395002Y481674D01*
X395181Y481625D01*
X395311Y481606D01*
X395439Y481578D01*
X395623Y481561D01*
X395806Y481535D01*
X395938Y481533D01*
X396069Y481521D01*
X396254Y481528D01*
X396439Y481525D01*
X396569Y481540D01*
X396700Y481545D01*
X396883Y481575D01*
X397067Y481595D01*
X397195Y481626D01*
X397324Y481648D01*
X397501Y481701D01*
X397681Y481744D01*
X397804Y481791D01*
X397930Y481828D01*
X398099Y481903D01*
X398272Y481969D01*
X398388Y482031D01*
X398508Y482084D01*
X398666Y482180D01*
X398829Y482267D01*
X398936Y482343D01*
X399049Y482411D01*
X399194Y482526D01*
X399345Y482633D01*
X399459Y482736D01*
X399545Y482803D01*
X399621Y482881D01*
X399735Y482984D01*
X401490Y484739D01*
X406298Y486731D01*
X411502Y486731D01*
X416310Y484739D01*
X418390Y482659D01*
X418529Y482536D01*
X418661Y482407D01*
X418766Y482328D01*
X418865Y482241D01*
X419018Y482137D01*
X419165Y482025D01*
X419279Y481960D01*
X419388Y481886D01*
X419553Y481803D01*
X419713Y481710D01*
X419835Y481660D01*
X419952Y481601D01*
X420126Y481538D01*
X420297Y481467D01*
X420423Y481432D01*
X420547Y481388D01*
X420728Y481348D01*
X420906Y481299D01*
X421036Y481281D01*
X421164Y481253D01*
X421349Y481236D01*
X421532Y481210D01*
X421663Y481208D01*
X421794Y481196D01*
X421979Y481203D01*
X422164Y481200D01*
X422294Y481215D01*
X422426Y481220D01*
X422608Y481250D01*
X422792Y481270D01*
X422920Y481301D01*
X423049Y481322D01*
X423226Y481375D01*
X423406Y481419D01*
X423529Y481466D01*
X423655Y481503D01*
X423824Y481578D01*
X423997Y481644D01*
X424113Y481706D01*
X424233Y481759D01*
X424391Y481854D01*
X424555Y481942D01*
X424662Y482018D01*
X424774Y482086D01*
X424919Y482200D01*
X425070Y482307D01*
X425184Y482410D01*
X425270Y482478D01*
X425346Y482556D01*
X425460Y482659D01*
X425961Y483159D01*
X427273Y484166D01*
X428706Y484993D01*
X429301Y485240D01*
X429301Y473650D01*
X429312Y473466D01*
X429314Y473281D01*
X429332Y473151D01*
X429341Y473020D01*
X429375Y472838D01*
X429401Y472655D01*
X429435Y472528D01*
X429460Y472399D01*
X429517Y472223D01*
X429566Y472044D01*
X429615Y471923D01*
X429656Y471798D01*
X429736Y471631D01*
X429806Y471460D01*
X429871Y471346D01*
X429927Y471227D01*
X430027Y471071D01*
X430118Y470910D01*
X430197Y470805D01*
X430268Y470695D01*
X430387Y470552D01*
X430498Y470405D01*
X430589Y470310D01*
X430673Y470209D01*
X430809Y470084D01*
X430937Y469951D01*
X431040Y469869D01*
X431136Y469779D01*
X431286Y469672D01*
X431431Y469556D01*
X431544Y469487D01*
X431650Y469411D01*
X431813Y469323D01*
X431971Y469227D01*
X432091Y469173D01*
X432206Y469111D01*
X432379Y469044D01*
X432548Y468968D01*
X432673Y468930D01*
X432796Y468883D01*
X432975Y468838D01*
X433152Y468785D01*
X433282Y468763D01*
X433409Y468731D01*
X433593Y468710D01*
X433776Y468679D01*
X433929Y468671D01*
X434037Y468658D01*
X434038Y468658D01*
X434146Y468659D01*
X434300Y468651D01*
X434485Y468663D01*
X434670Y468665D01*
X434800Y468683D01*
X434931Y468691D01*
X435113Y468726D01*
X435296Y468751D01*
X435423Y468785D01*
X435552Y468810D01*
X435728Y468868D01*
X435906Y468916D01*
X436027Y468966D01*
X436152Y469007D01*
X436320Y469086D01*
X436491Y469157D01*
X436605Y469221D01*
X436724Y469278D01*
X436879Y469378D01*
X437040Y469469D01*
X437145Y469548D01*
X437256Y469618D01*
X437398Y469737D01*
X437546Y469848D01*
X437640Y469939D01*
X437741Y470024D01*
X437867Y470159D01*
X438000Y470288D01*
X438082Y470391D01*
X438171Y470487D01*
X438279Y470637D01*
X438394Y470782D01*
X438463Y470894D01*
X438539Y471001D01*
X438627Y471163D01*
X438724Y471321D01*
X438778Y471441D01*
X438840Y471557D01*
X438907Y471729D01*
X438982Y471898D01*
X439020Y472024D01*
X439068Y472146D01*
X439112Y472326D01*
X439166Y472503D01*
X439188Y472633D01*
X439219Y472760D01*
X439241Y472943D01*
X439272Y473126D01*
X439280Y473280D01*
X439292Y473388D01*
X439291Y473497D01*
X439299Y473650D01*
X439299Y487218D01*
X439309Y487225D01*
X439440Y487321D01*
X439552Y487427D01*
X439670Y487524D01*
X439781Y487643D01*
X439900Y487755D01*
X439997Y487874D01*
X440102Y487986D01*
X440198Y488118D01*
X440301Y488244D01*
X440383Y488374D01*
X440472Y488498D01*
X440551Y488641D01*
X440637Y488779D01*
X440716Y488945D01*
X440775Y489053D01*
X440809Y489139D01*
X440864Y489253D01*
X443071Y494582D01*
X443142Y494791D01*
X443222Y494997D01*
X443245Y495090D01*
X443275Y495180D01*
X443320Y495397D01*
X443373Y495611D01*
X443383Y495706D01*
X443403Y495799D01*
X443420Y496020D01*
X443445Y496239D01*
X443444Y496334D01*
X443451Y496429D01*
X443440Y496650D01*
X443437Y496871D01*
X443424Y496965D01*
X443419Y497061D01*
X443380Y497278D01*
X443350Y497497D01*
X443325Y497589D01*
X443308Y497683D01*
X443242Y497894D01*
X443184Y498107D01*
X443148Y498195D01*
X443119Y498286D01*
X443027Y498487D01*
X442943Y498691D01*
X442896Y498774D01*
X442856Y498861D01*
X442739Y499049D01*
X442630Y499241D01*
X442573Y499317D01*
X442522Y499397D01*
X442383Y499569D01*
X442250Y499746D01*
X442184Y499814D01*
X442124Y499888D01*
X441964Y500041D01*
X441809Y500199D01*
X441735Y500258D01*
X441666Y500324D01*
X441488Y500455D01*
X441315Y500593D01*
X441234Y500643D01*
X441157Y500699D01*
X440964Y500807D01*
X440775Y500922D01*
X440688Y500960D01*
X440605Y501007D01*
X440400Y501089D01*
X440198Y501179D01*
X440107Y501207D01*
X440019Y501242D01*
X439804Y501298D01*
X439593Y501362D01*
X439499Y501378D01*
X439407Y501402D01*
X439188Y501431D01*
X438970Y501467D01*
X438861Y501473D01*
X438780Y501483D01*
X438650Y501484D01*
X438445Y501494D01*
X44765Y500954D01*
X44551Y500940D01*
X44337Y500935D01*
X44236Y500920D01*
X44134Y500913D01*
X43924Y500872D01*
X43712Y500840D01*
X43613Y500812D01*
X43513Y500793D01*
X43310Y500726D01*
X43104Y500667D01*
X43010Y500627D01*
X42913Y500595D01*
X42720Y500503D01*
X42522Y500419D01*
X42434Y500368D01*
X42342Y500324D01*
X42162Y500208D01*
X41977Y500100D01*
X41896Y500038D01*
X41810Y499982D01*
X41646Y499844D01*
X41476Y499714D01*
X41404Y499642D01*
X41326Y499576D01*
X41180Y499419D01*
X41028Y499268D01*
X40966Y499188D01*
X40896Y499113D01*
X40771Y498938D01*
X40640Y498769D01*
X40588Y498682D01*
X40529Y498598D01*
X40427Y498410D01*
X40318Y498225D01*
X40277Y498132D01*
X40229Y498042D01*
X40152Y497842D01*
X40067Y497645D01*
X40039Y497547D01*
X40002Y497452D01*
X39951Y497244D01*
X39891Y497038D01*
X39875Y496937D01*
X39851Y496838D01*
X39827Y496625D01*
X39794Y496414D01*
X39791Y496312D01*
X39779Y496210D01*
X39782Y495995D01*
X39775Y495782D01*
X39785Y495680D01*
X39787Y495578D01*
X39816Y495366D01*
X39837Y495153D01*
X39860Y495053D01*
X39874Y494952D01*
X39930Y494745D01*
X39978Y494536D01*
X40017Y494427D01*
X40040Y494342D01*
X40088Y494224D01*
X40153Y494041D01*
X42040Y489485D01*
X42041Y489481D01*
X42082Y489268D01*
X42114Y489052D01*
X42141Y488957D01*
X42160Y488861D01*
X42228Y488653D01*
X42287Y488444D01*
X42326Y488354D01*
X42357Y488260D01*
X42450Y488063D01*
X42535Y487863D01*
X42585Y487778D01*
X42627Y487689D01*
X42745Y487505D01*
X42855Y487317D01*
X42915Y487239D01*
X42968Y487156D01*
X43108Y486989D01*
X43241Y486817D01*
X43310Y486747D01*
X43373Y486671D01*
X43533Y486523D01*
X43687Y486369D01*
X43764Y486308D01*
X43837Y486241D01*
X44013Y486114D01*
X44185Y485980D01*
X44270Y485930D01*
X44350Y485873D01*
X44542Y485770D01*
X44729Y485658D01*
X44820Y485619D01*
X44906Y485572D01*
X45110Y485494D01*
X45309Y485407D01*
X45404Y485380D01*
X45496Y485345D01*
X45707Y485292D01*
X45917Y485232D01*
X46014Y485216D01*
X46110Y485193D01*
X46326Y485168D01*
X46541Y485134D01*
X46640Y485131D01*
X46737Y485120D01*
X46955Y485122D01*
X47173Y485116D01*
X47271Y485126D01*
X47370Y485127D01*
X47585Y485156D01*
X47802Y485178D01*
X47898Y485200D01*
X47996Y485213D01*
X48206Y485270D01*
X48301Y485291D01*
X48301Y473650D01*
X48312Y473466D01*
X48314Y473281D01*
X48332Y473151D01*
X48341Y473020D01*
X48375Y472838D01*
X48401Y472655D01*
X48435Y472528D01*
X48460Y472399D01*
X48517Y472223D01*
X48566Y472044D01*
X48615Y471923D01*
X48656Y471798D01*
X48736Y471631D01*
X48806Y471460D01*
X48871Y471346D01*
X48927Y471227D01*
X49027Y471071D01*
X49118Y470910D01*
X49197Y470805D01*
X49268Y470695D01*
X49387Y470552D01*
X49498Y470405D01*
X49589Y470310D01*
X49673Y470209D01*
X49809Y470084D01*
X49937Y469951D01*
X50040Y469869D01*
X50136Y469779D01*
X50286Y469672D01*
X50431Y469556D01*
X50544Y469487D01*
X50650Y469411D01*
X50813Y469323D01*
X50971Y469227D01*
X51091Y469173D01*
X51206Y469111D01*
X51379Y469044D01*
X51548Y468968D01*
X51673Y468930D01*
X51796Y468883D01*
X51975Y468838D01*
X52152Y468785D01*
X52282Y468763D01*
X52409Y468731D01*
X52593Y468710D01*
X52776Y468679D01*
X52929Y468671D01*
X53037Y468658D01*
X53038Y468658D01*
X53146Y468659D01*
X53300Y468651D01*
X53485Y468663D01*
X53670Y468665D01*
X53800Y468683D01*
X53931Y468691D01*
X54113Y468726D01*
X54296Y468751D01*
X54423Y468785D01*
X54552Y468810D01*
X54728Y468868D01*
X54906Y468916D01*
X55027Y468966D01*
X55152Y469007D01*
X55320Y469086D01*
X55491Y469157D01*
X55605Y469221D01*
X55724Y469278D01*
X55879Y469378D01*
X56040Y469469D01*
X56145Y469548D01*
X56256Y469618D01*
X56398Y469737D01*
X56546Y469848D01*
X56640Y469939D01*
X56741Y470024D01*
X56867Y470159D01*
X57000Y470288D01*
X57082Y470391D01*
X57171Y470487D01*
X57279Y470637D01*
X57394Y470782D01*
X57463Y470894D01*
X57539Y471001D01*
X57627Y471163D01*
X57724Y471321D01*
X57778Y471441D01*
X57840Y471557D01*
X57907Y471729D01*
X57982Y471898D01*
X58020Y472024D01*
X58068Y472146D01*
X58112Y472326D01*
X58166Y472503D01*
X58188Y472633D01*
X58219Y472760D01*
X58241Y472943D01*
X58272Y473126D01*
X58280Y473280D01*
X58292Y473388D01*
X58291Y473497D01*
X58299Y473650D01*
X58299Y485240D01*
X58894Y484993D01*
X60327Y484166D01*
X61639Y483159D01*
X62140Y482659D01*
X62279Y482536D01*
X62411Y482407D01*
X62515Y482328D01*
X62614Y482241D01*
X62767Y482137D01*
X62915Y482025D01*
X63028Y481960D01*
X63137Y481886D01*
X63302Y481803D01*
X63463Y481710D01*
X63584Y481660D01*
X63701Y481601D01*
X63875Y481538D01*
X64046Y481467D01*
X64173Y481432D01*
X64296Y481388D01*
X64477Y481349D01*
X64655Y481299D01*
X64786Y481281D01*
X64914Y481253D01*
X65098Y481236D01*
X65281Y481210D01*
X65413Y481208D01*
X65543Y481196D01*
X65728Y481203D01*
X65913Y481200D01*
X66044Y481215D01*
X66175Y481220D01*
X66357Y481250D01*
X66541Y481270D01*
X66669Y481301D01*
X66799Y481322D01*
X66976Y481375D01*
X67156Y481419D01*
X67278Y481466D01*
X67404Y481503D01*
X67574Y481578D01*
X67746Y481644D01*
X67862Y481706D01*
X67982Y481759D01*
X68141Y481855D01*
X68304Y481942D01*
X68411Y482018D01*
X68524Y482086D01*
X68668Y482200D01*
X68820Y482307D01*
X68934Y482410D01*
X69019Y482478D01*
X69095Y482556D01*
X69210Y482659D01*
X71290Y484739D01*
X76098Y486731D01*
X81302Y486731D01*
X86110Y484739D01*
X87865Y482984D01*
X88004Y482862D01*
X88136Y482732D01*
X88241Y482653D01*
X88339Y482566D01*
X88493Y482462D01*
X88640Y482351D01*
X88754Y482285D01*
X88863Y482212D01*
X89028Y482128D01*
X89188Y482036D01*
X89309Y481985D01*
X89426Y481926D01*
X89601Y481864D01*
X89771Y481792D01*
X89898Y481758D01*
X90022Y481713D01*
X90202Y481674D01*
X90381Y481625D01*
X90511Y481606D01*
X90639Y481578D01*
X90823Y481561D01*
X91006Y481535D01*
X91138Y481533D01*
X91269Y481521D01*
X91454Y481528D01*
X91639Y481525D01*
X91769Y481540D01*
X91900Y481545D01*
X92083Y481575D01*
X92267Y481595D01*
X92395Y481626D01*
X92524Y481648D01*
X92701Y481701D01*
X92881Y481744D01*
X93004Y481791D01*
X93130Y481828D01*
X93299Y481903D01*
X93472Y481969D01*
X93588Y482031D01*
X93708Y482084D01*
X93866Y482180D01*
X94029Y482267D01*
X94136Y482343D01*
X94249Y482411D01*
X94394Y482526D01*
X94545Y482633D01*
X94659Y482736D01*
X94745Y482803D01*
X94821Y482881D01*
X94935Y482984D01*
X96690Y484739D01*
X101498Y486731D01*
X106702Y486731D01*
X111510Y484739D01*
X113265Y482984D01*
X113404Y482862D01*
X113536Y482732D01*
X113641Y482653D01*
X113739Y482566D01*
X113893Y482462D01*
X114040Y482351D01*
X114154Y482285D01*
X114263Y482212D01*
X114428Y482128D01*
X114588Y482036D01*
X114709Y481985D01*
X114826Y481926D01*
X115001Y481864D01*
X115171Y481792D01*
X115298Y481758D01*
X115422Y481713D01*
X115602Y481674D01*
X115781Y481625D01*
X115911Y481606D01*
X116039Y481578D01*
X116223Y481561D01*
X116406Y481535D01*
X116538Y481533D01*
X116669Y481521D01*
X116854Y481528D01*
X117039Y481525D01*
X117169Y481540D01*
X117300Y481545D01*
X117483Y481575D01*
X117667Y481595D01*
X117795Y481626D01*
X117924Y481648D01*
X118101Y481701D01*
X118281Y481744D01*
X118404Y481791D01*
X118530Y481828D01*
X118699Y481903D01*
X118872Y481969D01*
X118988Y482031D01*
X119108Y482084D01*
X119266Y482180D01*
X119429Y482267D01*
X119536Y482343D01*
X119649Y482411D01*
X119794Y482526D01*
X119945Y482633D01*
X120059Y482736D01*
X120145Y482803D01*
X120221Y482881D01*
X120335Y482984D01*
X122090Y484739D01*
X126898Y486731D01*
X132102Y486731D01*
X136910Y484739D01*
X138665Y482984D01*
X138804Y482862D01*
X138936Y482732D01*
X139041Y482653D01*
X139139Y482566D01*
X139293Y482462D01*
X139440Y482351D01*
X139554Y482285D01*
X139663Y482212D01*
X139828Y482128D01*
X139988Y482036D01*
X140109Y481985D01*
X140226Y481926D01*
X140401Y481864D01*
X140571Y481792D01*
X140698Y481758D01*
X140822Y481713D01*
X141002Y481674D01*
X141181Y481625D01*
X141311Y481606D01*
X141439Y481578D01*
X141623Y481561D01*
X141806Y481535D01*
X141938Y481533D01*
X142069Y481521D01*
X142254Y481528D01*
X142439Y481525D01*
X142569Y481540D01*
X142700Y481545D01*
X142883Y481575D01*
X143067Y481595D01*
X143195Y481626D01*
X143324Y481648D01*
X143501Y481701D01*
X143681Y481744D01*
X143804Y481791D01*
X143930Y481828D01*
X144099Y481903D01*
X144272Y481969D01*
X144388Y482031D01*
X144508Y482084D01*
X144666Y482180D01*
X144829Y482267D01*
X144936Y482343D01*
X145049Y482411D01*
X145194Y482526D01*
X145345Y482633D01*
X145459Y482736D01*
X145545Y482803D01*
X145621Y482881D01*
X145735Y482984D01*
X147490Y484739D01*
X152298Y486731D01*
X157502Y486731D01*
X162310Y484739D01*
X164065Y482984D01*
X164204Y482862D01*
X164336Y482732D01*
X164441Y482653D01*
X164539Y482566D01*
X164693Y482462D01*
X164840Y482351D01*
X164954Y482285D01*
X165063Y482212D01*
X165228Y482128D01*
X165388Y482036D01*
X165509Y481985D01*
X165626Y481926D01*
X165801Y481864D01*
X165971Y481792D01*
X166098Y481758D01*
X166222Y481713D01*
X166402Y481674D01*
X166581Y481625D01*
X166711Y481606D01*
X166839Y481578D01*
X167023Y481561D01*
X167206Y481535D01*
X167338Y481533D01*
X167469Y481521D01*
X167654Y481528D01*
X167839Y481525D01*
X167969Y481540D01*
X168100Y481545D01*
X168283Y481575D01*
X168467Y481595D01*
X168595Y481626D01*
X168724Y481648D01*
X168901Y481701D01*
X169081Y481744D01*
X169204Y481791D01*
X169330Y481828D01*
X169499Y481903D01*
X169672Y481969D01*
X169788Y482031D01*
X169908Y482084D01*
X170066Y482180D01*
X170229Y482267D01*
X170336Y482343D01*
X170449Y482411D01*
X170594Y482526D01*
X170745Y482633D01*
X170859Y482736D01*
X170945Y482803D01*
X171021Y482881D01*
X171135Y482984D01*
X172890Y484739D01*
X177698Y486731D01*
X182902Y486731D01*
X187710Y484739D01*
X189465Y482984D01*
X189604Y482862D01*
X189736Y482732D01*
X189841Y482653D01*
X189939Y482566D01*
X190093Y482462D01*
X190240Y482351D01*
X190354Y482285D01*
X190463Y482212D01*
X190628Y482128D01*
X190788Y482036D01*
X190909Y481985D01*
X191026Y481926D01*
X191201Y481864D01*
X191371Y481792D01*
X191498Y481758D01*
X191622Y481713D01*
X191802Y481674D01*
X191981Y481625D01*
X192111Y481606D01*
X192239Y481578D01*
X192423Y481561D01*
X192606Y481535D01*
X192738Y481533D01*
X192869Y481521D01*
X193054Y481528D01*
X193239Y481525D01*
X193369Y481540D01*
X193500Y481545D01*
X193683Y481575D01*
X193867Y481595D01*
X193995Y481626D01*
X194124Y481648D01*
X194301Y481701D01*
X194481Y481744D01*
X194604Y481791D01*
X194730Y481828D01*
X194899Y481903D01*
X195072Y481969D01*
X195188Y482031D01*
X195308Y482084D01*
X195466Y482180D01*
X195629Y482267D01*
X195736Y482343D01*
X195849Y482411D01*
X195994Y482526D01*
X196145Y482633D01*
X196259Y482736D01*
X196345Y482803D01*
X196421Y482881D01*
X196535Y482984D01*
X198290Y484739D01*
X203098Y486731D01*
X208302Y486731D01*
X213110Y484739D01*
X214865Y482984D01*
X215004Y482862D01*
X215136Y482732D01*
X215241Y482653D01*
X215339Y482566D01*
X215492Y482462D01*
X215640Y482351D01*
X215754Y482285D01*
X215863Y482212D01*
X216027Y482128D01*
X216188Y482036D01*
X216309Y481985D01*
X216426Y481926D01*
X216600Y481864D01*
X216771Y481792D01*
X216898Y481758D01*
X217022Y481713D01*
X217202Y481674D01*
X217381Y481625D01*
X217511Y481606D01*
X217639Y481578D01*
X217823Y481561D01*
X218006Y481535D01*
X218138Y481533D01*
X218269Y481521D01*
X218453Y481528D01*
X218638Y481525D01*
X218769Y481540D01*
X218900Y481545D01*
X219083Y481575D01*
X219267Y481595D01*
X219395Y481626D01*
X219524Y481648D01*
X219701Y481701D01*
X219881Y481744D01*
X220004Y481791D01*
X220130Y481828D01*
X220299Y481903D01*
X220472Y481969D01*
X220587Y482031D01*
X220708Y482084D01*
X220866Y482180D01*
X221029Y482267D01*
X221136Y482343D01*
X221249Y482411D01*
X221394Y482526D01*
X221545Y482633D01*
X221659Y482735D01*
X221744Y482803D01*
X221821Y482881D01*
X221935Y482984D01*
X223690Y484739D01*
X228498Y486731D01*
X233702Y486731D01*
X238510Y484739D01*
X240265Y482984D01*
X240404Y482862D01*
X240536Y482732D01*
X240641Y482653D01*
X240739Y482566D01*
X240893Y482462D01*
X241040Y482351D01*
X241154Y482285D01*
X241263Y482212D01*
X241428Y482128D01*
X241588Y482036D01*
X241709Y481985D01*
X241826Y481926D01*
X242001Y481864D01*
X242171Y481792D01*
X242298Y481758D01*
X242422Y481713D01*
X242602Y481674D01*
X242781Y481625D01*
X242911Y481606D01*
X243039Y481578D01*
X243223Y481561D01*
X243406Y481535D01*
X243538Y481533D01*
X243669Y481521D01*
X243854Y481528D01*
X244039Y481525D01*
X244169Y481540D01*
X244300Y481545D01*
X244483Y481575D01*
X244667Y481595D01*
X244795Y481626D01*
X244924Y481648D01*
X245101Y481701D01*
X245281Y481744D01*
X245404Y481791D01*
X245530Y481828D01*
X245699Y481903D01*
X245872Y481969D01*
X245988Y482031D01*
X246108Y482084D01*
X246266Y482180D01*
X246429Y482267D01*
X246536Y482343D01*
X246649Y482411D01*
X246794Y482526D01*
X246945Y482633D01*
X247059Y482736D01*
X247145Y482803D01*
X247221Y482881D01*
X247335Y482984D01*
X249090Y484739D01*
X253898Y486731D01*
X259102Y486731D01*
X263910Y484739D01*
X265665Y482984D01*
X265804Y482862D01*
X265936Y482732D01*
X266041Y482653D01*
X266139Y482566D01*
X266293Y482462D01*
X266440Y482351D01*
X266554Y482285D01*
X266663Y482212D01*
X266828Y482128D01*
X266988Y482036D01*
X267109Y481985D01*
X267226Y481926D01*
X267401Y481864D01*
X267571Y481792D01*
X267698Y481758D01*
X267822Y481713D01*
X268002Y481674D01*
X268181Y481625D01*
X268311Y481606D01*
X268439Y481578D01*
X268623Y481561D01*
X268806Y481535D01*
X268938Y481533D01*
X269069Y481521D01*
X269254Y481528D01*
X269439Y481525D01*
X269569Y481540D01*
X269700Y481545D01*
X269883Y481575D01*
X270067Y481595D01*
X270195Y481626D01*
X270324Y481648D01*
X270501Y481701D01*
X270681Y481744D01*
X270804Y481791D01*
X270930Y481828D01*
X271099Y481903D01*
X271272Y481969D01*
X271388Y482031D01*
X271508Y482084D01*
X271666Y482180D01*
X271829Y482267D01*
X271936Y482343D01*
X272049Y482411D01*
X272194Y482526D01*
X272345Y482633D01*
X272459Y482736D01*
X272545Y482803D01*
X272621Y482881D01*
X272735Y482984D01*
X274490Y484739D01*
X279298Y486731D01*
X284502Y486731D01*
X289310Y484739D01*
X291065Y482984D01*
X291204Y482862D01*
X291336Y482732D01*
X291441Y482653D01*
X291539Y482566D01*
X291693Y482462D01*
X291840Y482351D01*
X291954Y482285D01*
X292063Y482212D01*
X292228Y482128D01*
X292388Y482036D01*
X292509Y481985D01*
X292626Y481926D01*
X292801Y481864D01*
X292971Y481792D01*
X293098Y481758D01*
X293222Y481713D01*
X293402Y481674D01*
X293581Y481625D01*
X293711Y481606D01*
X293839Y481578D01*
X294023Y481561D01*
X294206Y481535D01*
X294338Y481533D01*
X294469Y481521D01*
X294654Y481528D01*
X294839Y481525D01*
X294969Y481540D01*
X295100Y481545D01*
X295283Y481575D01*
X295467Y481595D01*
X295595Y481626D01*
X295724Y481648D01*
X295901Y481701D01*
X296081Y481744D01*
X296204Y481791D01*
X296330Y481828D01*
X296499Y481903D01*
X296672Y481969D01*
X296788Y482031D01*
X296908Y482084D01*
X297066Y482180D01*
X297229Y482267D01*
X297336Y482343D01*
X297449Y482411D01*
X297594Y482526D01*
X297745Y482633D01*
X297859Y482736D01*
X297945Y482803D01*
X298021Y482881D01*
X298135Y482984D01*
X299890Y484739D01*
X304698Y486731D01*
X309902Y486731D01*
X314710Y484739D01*
X316790Y482659D01*
X316929Y482536D01*
X317061Y482407D01*
X317166Y482328D01*
X317265Y482241D01*
X317418Y482137D01*
X317565Y482025D01*
X317679Y481960D01*
X317788Y481886D01*
X317953Y481803D01*
X318113Y481710D01*
X318235Y481660D01*
X318352Y481601D01*
X318526Y481538D01*
X318697Y481467D01*
X318823Y481432D01*
X318947Y481388D01*
X319128Y481348D01*
X319306Y481299D01*
X319436Y481281D01*
X319564Y481253D01*
X319749Y481236D01*
X319932Y481210D01*
X320063Y481208D01*
X320194Y481196D01*
X320379Y481203D01*
X320564Y481200D01*
X320694Y481215D01*
X320826Y481220D01*
X321008Y481250D01*
X321192Y481270D01*
X321320Y481301D01*
X321449Y481322D01*
X321626Y481375D01*
X321806Y481419D01*
X321929Y481466D01*
X322055Y481503D01*
X322224Y481578D01*
X322397Y481644D01*
X322513Y481706D01*
X322633Y481759D01*
X322791Y481854D01*
X322955Y481942D01*
X323062Y482018D01*
X323174Y482086D01*
X323319Y482200D01*
X323470Y482307D01*
X323584Y482410D01*
X323670Y482478D01*
X323746Y482556D01*
X323860Y482659D01*
X324361Y483159D01*
X325673Y484166D01*
X327106Y484993D01*
X327701Y485240D01*
X327701Y473650D01*
X327701Y462060D01*
X327106Y462307D01*
X325673Y463134D01*
X324361Y464141D01*
X323860Y464641D01*
X323721Y464764D01*
X323589Y464893D01*
X323485Y464972D01*
X323386Y465059D01*
X323233Y465163D01*
X323085Y465275D01*
X322972Y465340D01*
X322863Y465414D01*
X322698Y465497D01*
X322537Y465590D01*
X322416Y465640D01*
X322299Y465699D01*
X322125Y465762D01*
X321954Y465833D01*
X321827Y465868D01*
X321704Y465912D01*
X321523Y465951D01*
X321345Y466001D01*
X321214Y466019D01*
X321086Y466047D01*
X320902Y466064D01*
X320719Y466090D01*
X320587Y466092D01*
X320457Y466104D01*
X320272Y466097D01*
X320087Y466100D01*
X319956Y466085D01*
X319825Y466080D01*
X319643Y466050D01*
X319459Y466030D01*
X319331Y465999D01*
X319201Y465978D01*
X319024Y465925D01*
X318844Y465881D01*
X318722Y465834D01*
X318596Y465797D01*
X318426Y465722D01*
X318254Y465656D01*
X318138Y465594D01*
X318018Y465541D01*
X317859Y465445D01*
X317696Y465358D01*
X317589Y465282D01*
X317476Y465214D01*
X317332Y465100D01*
X317180Y464993D01*
X317066Y464890D01*
X316981Y464822D01*
X316905Y464744D01*
X316790Y464641D01*
X314710Y462561D01*
X310790Y460937D01*
X310712Y460899D01*
X310632Y460868D01*
X310429Y460760D01*
X310223Y460659D01*
X310150Y460611D01*
X310074Y460570D01*
X309887Y460438D01*
X309695Y460311D01*
X309629Y460255D01*
X309558Y460205D01*
X309311Y459982D01*
X309215Y459900D01*
X309195Y459878D01*
X309168Y459853D01*
X303783Y454468D01*
X303661Y454330D01*
X303532Y454197D01*
X303452Y454093D01*
X303365Y453994D01*
X303262Y453841D01*
X303150Y453694D01*
X303084Y453580D01*
X303011Y453471D01*
X302927Y453306D01*
X302835Y453145D01*
X302784Y453024D01*
X302725Y452907D01*
X302663Y452733D01*
X302592Y452562D01*
X302557Y452435D01*
X302513Y452312D01*
X302473Y452131D01*
X302424Y451953D01*
X302405Y451822D01*
X302377Y451694D01*
X302361Y451510D01*
X302334Y451327D01*
X302332Y451195D01*
X302321Y451065D01*
X302327Y450880D01*
X302325Y450695D01*
X302339Y450564D01*
X302344Y450433D01*
X302374Y450251D01*
X302395Y450067D01*
X302426Y449939D01*
X302447Y449809D01*
X302500Y449632D01*
X302543Y449452D01*
X302590Y449329D01*
X302628Y449204D01*
X302702Y449035D01*
X302768Y448862D01*
X302830Y448746D01*
X302883Y448626D01*
X302979Y448467D01*
X303066Y448304D01*
X303142Y448197D01*
X303210Y448084D01*
X303325Y447940D01*
X303432Y447789D01*
X303535Y447674D01*
X303602Y447589D01*
X303680Y447513D01*
X303783Y447398D01*
X307191Y443990D01*
X308761Y440201D01*
X308761Y436099D01*
X308496Y435460D01*
X308418Y435233D01*
X308334Y435009D01*
X308316Y434934D01*
X308291Y434862D01*
X308243Y434627D01*
X308188Y434394D01*
X308179Y434317D01*
X308164Y434242D01*
X308146Y434004D01*
X308120Y433765D01*
X308122Y433688D01*
X308116Y433612D01*
X308128Y433373D01*
X308132Y433133D01*
X308144Y433057D01*
X308147Y432981D01*
X308189Y432745D01*
X308224Y432508D01*
X308245Y432434D01*
X308258Y432359D01*
X308330Y432130D01*
X308395Y431899D01*
X308424Y431829D01*
X308447Y431755D01*
X308547Y431538D01*
X308640Y431317D01*
X308679Y431250D01*
X308710Y431181D01*
X308837Y430978D01*
X308957Y430770D01*
X309004Y430709D01*
X309044Y430644D01*
X309195Y430458D01*
X309341Y430268D01*
X309395Y430213D01*
X309443Y430154D01*
X309616Y429988D01*
X309785Y429818D01*
X309845Y429770D01*
X309900Y429717D01*
X310093Y429575D01*
X310282Y429427D01*
X310348Y429388D01*
X310409Y429342D01*
X310619Y429226D01*
X310824Y429103D01*
X310895Y429072D01*
X310961Y429035D01*
X311184Y428945D01*
X311403Y428849D01*
X311477Y428828D01*
X311548Y428799D01*
X311780Y428738D01*
X312010Y428671D01*
X312085Y428659D01*
X312160Y428639D01*
X312397Y428609D01*
X312501Y428592D01*
X312501Y406400D01*
X312501Y384730D01*
X311906Y384977D01*
X310473Y385804D01*
X309161Y386811D01*
X308660Y387311D01*
X308521Y387434D01*
X308389Y387563D01*
X308285Y387642D01*
X308186Y387729D01*
X308033Y387833D01*
X307885Y387945D01*
X307772Y388010D01*
X307663Y388084D01*
X307498Y388167D01*
X307337Y388260D01*
X307216Y388310D01*
X307099Y388369D01*
X306925Y388432D01*
X306754Y388503D01*
X306627Y388538D01*
X306504Y388582D01*
X306323Y388621D01*
X306145Y388671D01*
X306014Y388689D01*
X305886Y388717D01*
X305702Y388734D01*
X305519Y388760D01*
X305387Y388762D01*
X305257Y388774D01*
X305072Y388767D01*
X304887Y388770D01*
X304756Y388755D01*
X304625Y388750D01*
X304443Y388720D01*
X304259Y388700D01*
X304131Y388669D01*
X304001Y388648D01*
X303824Y388595D01*
X303644Y388551D01*
X303522Y388504D01*
X303396Y388467D01*
X303226Y388392D01*
X303054Y388326D01*
X302938Y388264D01*
X302818Y388211D01*
X302659Y388115D01*
X302496Y388028D01*
X302389Y387952D01*
X302276Y387884D01*
X302132Y387770D01*
X301980Y387663D01*
X301866Y387560D01*
X301781Y387492D01*
X301705Y387414D01*
X301590Y387311D01*
X299510Y385231D01*
X294702Y383239D01*
X294125Y383239D01*
X294006Y383232D01*
X293886Y383234D01*
X293690Y383212D01*
X293494Y383199D01*
X293377Y383177D01*
X293258Y383164D01*
X293067Y383117D01*
X292873Y383080D01*
X292760Y383043D01*
X292644Y383015D01*
X292460Y382945D01*
X292272Y382883D01*
X292164Y382832D01*
X292053Y382790D01*
X291880Y382697D01*
X291701Y382613D01*
X291601Y382548D01*
X291496Y382492D01*
X291335Y382378D01*
X291169Y382272D01*
X291077Y382195D01*
X290980Y382126D01*
X290791Y381956D01*
X290684Y381867D01*
X290644Y381824D01*
X290590Y381775D01*
X217486Y308671D01*
X214532Y305717D01*
X211591Y304499D01*
X138492Y304499D01*
X138373Y304492D01*
X138254Y304494D01*
X138058Y304472D01*
X137861Y304459D01*
X137744Y304437D01*
X137625Y304424D01*
X137434Y304377D01*
X137241Y304340D01*
X137127Y304303D01*
X137011Y304275D01*
X136827Y304205D01*
X136640Y304143D01*
X136532Y304092D01*
X136420Y304050D01*
X136247Y303957D01*
X136069Y303873D01*
X135968Y303808D01*
X135863Y303752D01*
X135702Y303638D01*
X135536Y303532D01*
X135445Y303455D01*
X135347Y303386D01*
X135159Y303216D01*
X135051Y303127D01*
X135012Y303084D01*
X134957Y303035D01*
X131873Y299950D01*
X131708Y299873D01*
X131681Y299855D01*
X131651Y299840D01*
X131416Y299685D01*
X131176Y299532D01*
X131151Y299511D01*
X131123Y299493D01*
X130909Y299308D01*
X130691Y299127D01*
X130669Y299103D01*
X130644Y299081D01*
X130453Y298870D01*
X130261Y298663D01*
X130242Y298637D01*
X130220Y298612D01*
X130056Y298378D01*
X129893Y298150D01*
X129877Y298121D01*
X129858Y298094D01*
X129726Y297841D01*
X129592Y297594D01*
X129580Y297563D01*
X129565Y297534D01*
X129466Y297268D01*
X129364Y297004D01*
X129356Y296972D01*
X129345Y296941D01*
X129281Y296666D01*
X129212Y296390D01*
X129209Y296358D01*
X129201Y296326D01*
X129172Y296043D01*
X129139Y295763D01*
X129140Y295730D01*
X129136Y295697D01*
X129143Y295412D01*
X129146Y295130D01*
X129151Y295098D01*
X129151Y295065D01*
X129194Y294784D01*
X129233Y294504D01*
X129241Y294473D01*
X129246Y294440D01*
X129324Y294167D01*
X129398Y293894D01*
X129410Y293864D01*
X129419Y293832D01*
X129530Y293571D01*
X129638Y293310D01*
X129654Y293281D01*
X129667Y293251D01*
X129810Y293007D01*
X129950Y292760D01*
X129970Y292734D01*
X129987Y292705D01*
X130159Y292481D01*
X130329Y292254D01*
X130352Y292231D01*
X130372Y292205D01*
X130573Y292003D01*
X130769Y291800D01*
X130795Y291780D01*
X130818Y291757D01*
X131041Y291583D01*
X131263Y291406D01*
X131291Y291388D01*
X131317Y291368D01*
X131560Y291225D01*
X131803Y291076D01*
X131833Y291063D01*
X131861Y291046D01*
X132121Y290934D01*
X132380Y290818D01*
X132411Y290808D01*
X132441Y290795D01*
X132714Y290716D01*
X132984Y290634D01*
X133017Y290629D01*
X133048Y290620D01*
X133328Y290576D01*
X133607Y290528D01*
X133644Y290526D01*
X133673Y290522D01*
X133799Y290518D01*
X134132Y290501D01*
X301591Y290501D01*
X304532Y289283D01*
X313965Y279850D01*
X314104Y279728D01*
X314236Y279598D01*
X314341Y279519D01*
X314439Y279432D01*
X314592Y279328D01*
X314740Y279217D01*
X314854Y279151D01*
X314963Y279077D01*
X315128Y278994D01*
X315288Y278902D01*
X315409Y278851D01*
X315526Y278792D01*
X315701Y278729D01*
X315871Y278658D01*
X315998Y278623D01*
X316122Y278579D01*
X316302Y278540D01*
X316481Y278491D01*
X316611Y278472D01*
X316739Y278444D01*
X316923Y278427D01*
X317106Y278401D01*
X317238Y278399D01*
X317369Y278387D01*
X317554Y278394D01*
X317738Y278391D01*
X317869Y278406D01*
X318000Y278411D01*
X318183Y278441D01*
X318367Y278461D01*
X318495Y278492D01*
X318624Y278514D01*
X318801Y278566D01*
X318981Y278610D01*
X319104Y278657D01*
X319230Y278694D01*
X319399Y278769D01*
X319572Y278835D01*
X319688Y278897D01*
X319808Y278950D01*
X319966Y279046D01*
X320129Y279133D01*
X320236Y279209D01*
X320349Y279277D01*
X320494Y279392D01*
X320645Y279499D01*
X320759Y279601D01*
X320845Y279669D01*
X320921Y279747D01*
X321035Y279850D01*
X327514Y286329D01*
X330468Y289283D01*
X333409Y290501D01*
X404091Y290501D01*
X407032Y289283D01*
X418965Y277350D01*
X419104Y277227D01*
X419236Y277098D01*
X419341Y277019D01*
X419439Y276932D01*
X419593Y276828D01*
X419740Y276717D01*
X419853Y276651D01*
X419963Y276577D01*
X420128Y276493D01*
X420288Y276402D01*
X420409Y276351D01*
X420526Y276292D01*
X420701Y276229D01*
X420871Y276158D01*
X420998Y276123D01*
X421122Y276079D01*
X421302Y276040D01*
X421481Y275991D01*
X421611Y275972D01*
X421739Y275944D01*
X421923Y275927D01*
X422106Y275901D01*
X422238Y275899D01*
X422369Y275887D01*
X422554Y275894D01*
G37*
%LPC*%
G36*
X300314Y301999D02*
X300314Y301999D01*
X293192Y303907D01*
X286807Y307594D01*
X281594Y312807D01*
X277907Y319192D01*
X275999Y326314D01*
X275999Y333686D01*
X277907Y340808D01*
X281594Y347193D01*
X286807Y352406D01*
X293192Y356093D01*
X300314Y358001D01*
X307686Y358001D01*
X314808Y356093D01*
X321193Y352406D01*
X326406Y347193D01*
X330093Y340808D01*
X332001Y333686D01*
X332001Y326314D01*
X330093Y319192D01*
X326406Y312807D01*
X321193Y307594D01*
X314808Y303907D01*
X307686Y301999D01*
X300314Y301999D01*
G37*
%LPD*%
%LPC*%
G36*
X362225Y195499D02*
X362225Y195499D01*
X362121Y195719D01*
X362020Y195948D01*
X361986Y196004D01*
X361958Y196063D01*
X361822Y196275D01*
X361693Y196489D01*
X361652Y196540D01*
X361617Y196596D01*
X361456Y196788D01*
X361301Y196984D01*
X361254Y197030D01*
X361212Y197081D01*
X361028Y197251D01*
X360849Y197426D01*
X360797Y197466D01*
X360748Y197511D01*
X360545Y197657D01*
X360507Y197685D01*
X360661Y197706D01*
X360911Y197734D01*
X360975Y197750D01*
X361040Y197759D01*
X361281Y197824D01*
X361525Y197883D01*
X361587Y197906D01*
X361650Y197923D01*
X361881Y198019D01*
X362116Y198108D01*
X362174Y198139D01*
X362234Y198164D01*
X362453Y198288D01*
X362673Y198406D01*
X362727Y198444D01*
X362784Y198476D01*
X362984Y198626D01*
X363189Y198771D01*
X363244Y198821D01*
X363290Y198855D01*
X363390Y198953D01*
X363579Y199123D01*
X373372Y208916D01*
X376001Y208916D01*
X376001Y195499D01*
X362225Y195499D01*
G37*
%LPD*%
%LPC*%
G36*
X30399Y36749D02*
X30399Y36749D01*
X30399Y50166D01*
X33028Y50166D01*
X43816Y39378D01*
X43816Y36749D01*
X30399Y36749D01*
G37*
%LPD*%
%LPC*%
G36*
X30399Y13334D02*
X30399Y13334D01*
X30399Y26751D01*
X43816Y26751D01*
X43816Y24122D01*
X33028Y13334D01*
X30399Y13334D01*
G37*
%LPD*%
%LPC*%
G36*
X442349Y106599D02*
X442349Y106599D01*
X442349Y114272D01*
X443387Y113842D01*
X444934Y112950D01*
X446350Y111863D01*
X447613Y110600D01*
X448700Y109184D01*
X449592Y107637D01*
X450022Y106599D01*
X442349Y106599D01*
G37*
%LPD*%
%LPC*%
G36*
X240528Y106599D02*
X240528Y106599D01*
X240958Y107637D01*
X241850Y109184D01*
X242937Y110600D01*
X244200Y111863D01*
X245616Y112950D01*
X247163Y113842D01*
X248201Y114272D01*
X248201Y106599D01*
X240528Y106599D01*
G37*
%LPD*%
%LPC*%
G36*
X424678Y106599D02*
X424678Y106599D01*
X425108Y107637D01*
X426000Y109184D01*
X427087Y110600D01*
X428350Y111863D01*
X429766Y112950D01*
X431313Y113842D01*
X432351Y114272D01*
X432351Y106599D01*
X424678Y106599D01*
G37*
%LPD*%
%LPC*%
G36*
X442349Y96601D02*
X442349Y96601D01*
X450022Y96601D01*
X449592Y95563D01*
X448700Y94016D01*
X447613Y92600D01*
X446350Y91337D01*
X444934Y90250D01*
X443387Y89358D01*
X442349Y88928D01*
X442349Y96601D01*
G37*
%LPD*%
%LPC*%
G36*
X247163Y89358D02*
X247163Y89358D01*
X245616Y90250D01*
X244200Y91337D01*
X242937Y92600D01*
X241850Y94016D01*
X240958Y95563D01*
X240528Y96601D01*
X248201Y96601D01*
X248201Y88928D01*
X247163Y89358D01*
G37*
%LPD*%
%LPC*%
G36*
X431313Y89358D02*
X431313Y89358D01*
X429766Y90250D01*
X428350Y91337D01*
X427087Y92600D01*
X426000Y94016D01*
X425108Y95563D01*
X424678Y96601D01*
X432351Y96601D01*
X432351Y88928D01*
X431313Y89358D01*
G37*
%LPD*%
D10*
X425450Y190500D03*
D11*
X393700Y396320D02*
X393700Y416480D01*
X368300Y416480D02*
X368300Y396320D01*
X342900Y396320D02*
X342900Y416480D01*
X317500Y416480D02*
X317500Y396320D01*
X292100Y396320D02*
X292100Y416480D01*
X266700Y416480D02*
X266700Y396320D01*
X241300Y396320D02*
X241300Y416480D01*
X215900Y416480D02*
X215900Y396320D01*
X190500Y396320D02*
X190500Y416480D01*
X165100Y416480D02*
X165100Y396320D01*
X139700Y396320D02*
X139700Y416480D01*
X114300Y416480D02*
X114300Y396320D01*
X88900Y396320D02*
X88900Y416480D01*
X63500Y416480D02*
X63500Y396320D01*
X38100Y396320D02*
X38100Y416480D01*
X38100Y264080D02*
X38100Y243920D01*
X63500Y243920D02*
X63500Y264080D01*
X88900Y264080D02*
X88900Y243920D01*
X114300Y243920D02*
X114300Y264080D01*
X139700Y264080D02*
X139700Y243920D01*
X165100Y243920D02*
X165100Y264080D01*
X190500Y264080D02*
X190500Y243920D01*
X215900Y243920D02*
X215900Y264080D01*
X241300Y264080D02*
X241300Y243920D01*
X266700Y243920D02*
X266700Y264080D01*
X292100Y264080D02*
X292100Y243920D01*
X317500Y243920D02*
X317500Y264080D01*
X342900Y264080D02*
X342900Y243920D01*
X368300Y243920D02*
X368300Y264080D01*
X393700Y264080D02*
X393700Y243920D01*
D12*
X228600Y47244D02*
X228600Y28956D01*
X203200Y28956D02*
X203200Y47244D01*
D13*
X337350Y101600D03*
X387350Y101600D03*
X437350Y101600D03*
D14*
X434300Y473650D03*
X408900Y473650D03*
X383500Y473650D03*
X358100Y473650D03*
X332700Y473650D03*
X307300Y473650D03*
X281900Y473650D03*
X256500Y473650D03*
X231100Y473650D03*
X205700Y473650D03*
X180300Y473650D03*
X154900Y473650D03*
X129500Y473650D03*
X104100Y473650D03*
X78700Y473650D03*
X53300Y473650D03*
D10*
X381000Y190500D03*
D15*
X438150Y355600D03*
X412750Y330200D03*
X438150Y304800D03*
D10*
X127000Y190500D03*
X127000Y139700D03*
D16*
X266700Y203200D03*
X342900Y203200D03*
X254000Y165100D03*
X330200Y165100D03*
D17*
X88900Y82550D03*
X88900Y158750D03*
X177800Y127000D03*
X177800Y203200D03*
D12*
X292100Y47244D02*
X292100Y28956D01*
X266700Y28956D02*
X266700Y47244D01*
D13*
X153200Y101600D03*
X203200Y101600D03*
X253200Y101600D03*
D18*
X50800Y104140D02*
X50800Y124460D01*
X25400Y124460D02*
X25400Y104140D01*
X50800Y167640D02*
X50800Y187960D01*
X25400Y187960D02*
X25400Y167640D01*
D12*
X330200Y47244D02*
X330200Y28956D01*
X355600Y28956D02*
X355600Y47244D01*
X139700Y47244D02*
X139700Y28956D01*
X165100Y28956D02*
X165100Y47244D01*
D10*
X76200Y38100D03*
X25400Y31750D03*
D18*
X40640Y317500D02*
X60960Y317500D01*
X60960Y342900D02*
X40640Y342900D01*
X104140Y336550D02*
X124460Y336550D01*
X124460Y311150D02*
X104140Y311150D01*
D19*
X407500Y305000D02*
X437500Y305000D01*
X407500Y305000D02*
X317500Y395000D01*
X317500Y406400D01*
X437500Y305000D02*
X438150Y304800D01*
X60000Y480000D02*
X55000Y475000D01*
X60000Y480000D02*
X60000Y482500D01*
X70000Y492500D01*
X315000Y492500D01*
X332500Y475000D01*
X55000Y475000D02*
X53300Y473650D01*
X332500Y475000D02*
X332700Y473650D01*
X427500Y480000D02*
X432500Y475000D01*
X427500Y480000D02*
X427500Y482500D01*
X417500Y492500D01*
X350000Y492500D01*
X335000Y477500D01*
X432500Y475000D02*
X434300Y473650D01*
X335000Y477500D02*
X332700Y473650D01*
X320000Y460000D02*
X320000Y410000D01*
X320000Y460000D02*
X330000Y470000D01*
X320000Y410000D02*
X317500Y406400D01*
X330000Y470000D02*
X332700Y473650D01*
X27500Y177500D02*
X27500Y115000D01*
X25400Y114300D01*
X27500Y177500D02*
X25400Y177800D01*
X27500Y110000D02*
X27500Y32500D01*
X27500Y110000D02*
X25400Y114300D01*
X27500Y32500D02*
X25400Y31750D01*
X370000Y202500D02*
X370000Y222500D01*
X370000Y252500D01*
X370000Y202500D02*
X380000Y192500D01*
X370000Y252500D02*
X368300Y254000D01*
X380000Y192500D02*
X381000Y190500D01*
X255000Y140000D02*
X255000Y102500D01*
X255000Y140000D02*
X337500Y222500D01*
X370000Y222500D01*
X255000Y102500D02*
X253200Y101600D01*
X435000Y100000D02*
X435000Y82500D01*
X362500Y10000D01*
X260000Y10000D01*
X247500Y22500D01*
X247500Y95000D01*
X250000Y97500D01*
X435000Y100000D02*
X437350Y101600D01*
X253200Y101600D02*
X250000Y97500D01*
X47500Y32500D02*
X32500Y32500D01*
X47500Y32500D02*
X70000Y10000D01*
X235000Y10000D01*
X247500Y22500D01*
X32500Y32500D02*
X25400Y31750D01*
X437500Y462500D02*
X437500Y470000D01*
X437500Y462500D02*
X470000Y430000D01*
X470000Y135000D01*
X440000Y105000D01*
X437500Y470000D02*
X434300Y473650D01*
X440000Y105000D02*
X437350Y101600D01*
X87500Y380000D02*
X87500Y405000D01*
X87500Y380000D02*
X52500Y345000D01*
X87500Y405000D02*
X88900Y406400D01*
X52500Y345000D02*
X50800Y342900D01*
X112500Y372500D02*
X112500Y405000D01*
X112500Y372500D02*
X80000Y340000D01*
X80000Y335000D01*
X62500Y317500D01*
X50800Y317500D01*
X112500Y405000D02*
X114300Y406400D01*
X437500Y442500D02*
X437500Y357500D01*
X437500Y442500D02*
X407500Y472500D01*
X437500Y357500D02*
X438150Y355600D01*
X407500Y472500D02*
X408900Y473650D01*
X317500Y265000D02*
X317500Y254000D01*
X317500Y265000D02*
X335000Y282500D01*
X402500Y282500D01*
X422500Y262500D02*
X425000Y260000D01*
X422500Y262500D02*
X402500Y282500D01*
X425000Y260000D02*
X425000Y192500D01*
X425450Y190500D01*
X440000Y327500D02*
X440000Y352500D01*
X440000Y327500D02*
X455000Y312500D01*
X455000Y295000D01*
X422500Y262500D01*
X440000Y352500D02*
X438150Y355600D01*
X202500Y40000D02*
X167500Y40000D01*
X165100Y38100D01*
X202500Y40000D02*
X203200Y38100D01*
X155000Y57500D02*
X155000Y100000D01*
X155000Y57500D02*
X167500Y45000D01*
X155000Y100000D02*
X153200Y101600D01*
X167500Y45000D02*
X165100Y38100D01*
X72500Y467500D02*
X77500Y472500D01*
X72500Y467500D02*
X72500Y465000D01*
X61550Y454050D01*
X23650Y454050D01*
X20000Y450400D01*
X20000Y282500D02*
X20000Y220000D01*
X20000Y282500D02*
X20000Y450400D01*
X20000Y220000D02*
X50000Y190000D01*
X50000Y180000D01*
X77500Y472500D02*
X78700Y473650D01*
X50000Y180000D02*
X50800Y177800D01*
X52500Y175000D02*
X52500Y115000D01*
X50800Y114300D01*
X52500Y175000D02*
X50800Y177800D01*
X75000Y70000D02*
X75000Y40000D01*
X62500Y82500D02*
X52500Y92500D01*
X62500Y82500D02*
X75000Y70000D01*
X52500Y92500D02*
X52500Y110000D01*
X75000Y40000D02*
X76200Y38100D01*
X52500Y110000D02*
X50800Y114300D01*
X80000Y100000D02*
X150000Y100000D01*
X80000Y100000D02*
X62500Y82500D01*
X150000Y100000D02*
X153200Y101600D01*
X315000Y267500D02*
X300000Y282500D01*
X20000Y282500D01*
X315000Y267500D02*
X317500Y254000D01*
X351000Y117000D02*
X338000Y104000D01*
X351000Y117000D02*
X351000Y143000D01*
X370500Y162500D01*
X396500Y162500D01*
X422500Y188500D01*
X425450Y190500D01*
X338000Y104000D02*
X337350Y101600D01*
X240000Y420000D02*
X205000Y455000D01*
X197500Y455000D01*
X180300Y472200D02*
X180300Y473650D01*
X180300Y472200D02*
X197500Y455000D01*
X240000Y420000D02*
X240000Y407700D01*
X241300Y406400D01*
X200000Y435000D02*
X192500Y435000D01*
X200000Y435000D02*
X215000Y420000D01*
X215000Y407300D02*
X215900Y406400D01*
X215000Y407300D02*
X215000Y420000D01*
X192500Y435000D02*
X154900Y472600D01*
X154900Y473650D01*
X167500Y435000D02*
X172500Y435000D01*
X190000Y417500D01*
X190000Y406900D02*
X190500Y406400D01*
X190000Y406900D02*
X190000Y417500D01*
X167500Y435000D02*
X129500Y473000D01*
X129500Y473650D01*
X142500Y435000D02*
X147500Y435000D01*
X165000Y417500D01*
X165000Y406500D02*
X165100Y406400D01*
X165000Y406500D02*
X165000Y417500D01*
X142500Y435000D02*
X104100Y473400D01*
X104100Y473650D01*
X412500Y442500D02*
X412500Y332500D01*
X412500Y442500D02*
X382500Y472500D01*
X412500Y332500D02*
X412750Y330200D01*
X382500Y472500D02*
X383500Y473650D01*
X330000Y40000D02*
X292500Y40000D01*
X292100Y38100D01*
X330000Y40000D02*
X330200Y38100D01*
X267500Y40000D02*
X267500Y87500D01*
X312500Y132500D01*
X312500Y172500D01*
X342500Y202500D01*
X267500Y40000D02*
X266700Y38100D01*
X342500Y202500D02*
X342900Y203200D01*
X330000Y165000D02*
X330000Y122500D01*
X317500Y110000D01*
X317500Y85000D01*
X355000Y47500D01*
X355000Y40000D01*
X330000Y165000D02*
X330200Y165100D01*
X355000Y40000D02*
X355600Y38100D01*
X63500Y406400D02*
X63500Y419100D01*
X82550Y438150D01*
X114300Y438150D01*
D20*
X114300Y438150D03*
X254000Y438150D03*
D19*
X298450Y438150D01*
D20*
X298450Y438150D03*
X355600Y438150D03*
D19*
X355600Y471150D01*
X358100Y473650D01*
X38100Y425450D02*
X38100Y406400D01*
X38100Y425450D02*
X53700Y441050D01*
D20*
X90000Y453460D03*
D19*
X77165Y451150D02*
X67065Y441050D01*
X77165Y451150D02*
X87690Y451150D01*
X90000Y453460D01*
D20*
X240143Y453857D03*
D19*
X291857Y453857D01*
X307300Y469300D02*
X307300Y473650D01*
X67065Y441050D02*
X53700Y441050D01*
X291857Y453857D02*
X307300Y469300D01*
X167500Y252500D02*
X167500Y240000D01*
X202500Y205000D01*
X202500Y102500D01*
X167500Y252500D02*
X165100Y254000D01*
X202500Y102500D02*
X203200Y101600D01*
X190500Y241300D02*
X190500Y254000D01*
X190500Y241300D02*
X222250Y209550D01*
X222250Y133350D01*
D20*
X222250Y133350D03*
X368300Y133350D03*
D19*
X383500Y117000D02*
X383500Y104000D01*
X383500Y117000D02*
X370500Y130000D01*
X383500Y104000D02*
X387350Y101600D01*
X370500Y130000D02*
X368300Y133350D01*
X95000Y160000D02*
X90000Y160000D01*
X95000Y160000D02*
X125000Y190000D01*
X90000Y160000D02*
X88900Y158750D01*
X125000Y190000D02*
X127000Y190500D01*
X115000Y205000D02*
X115000Y252500D01*
X115000Y205000D02*
X125000Y195000D01*
X115000Y252500D02*
X114300Y254000D01*
X125000Y195000D02*
X127000Y190500D01*
X177500Y205000D02*
X140000Y242500D01*
X140000Y252500D01*
X177500Y205000D02*
X177800Y203200D01*
X140000Y252500D02*
X139700Y254000D01*
X127500Y152500D02*
X127500Y140000D01*
X127500Y152500D02*
X175000Y200000D01*
X127500Y140000D02*
X127000Y139700D01*
X175000Y200000D02*
X177800Y203200D01*
X252500Y205000D02*
X265000Y205000D01*
X252500Y205000D02*
X217500Y240000D01*
X217500Y252500D01*
X265000Y205000D02*
X266700Y203200D01*
X217500Y252500D02*
X215900Y254000D01*
X272500Y185000D02*
X255000Y167500D01*
X272500Y185000D02*
X275000Y185000D01*
X285000Y195000D01*
X285000Y210000D01*
X270000Y225000D01*
X260000Y225000D01*
X242500Y242500D01*
X242500Y252500D01*
X255000Y167500D02*
X254000Y165100D01*
X242500Y252500D02*
X241300Y254000D01*
X137500Y40000D02*
X132500Y40000D01*
X90000Y82500D01*
X137500Y40000D02*
X139700Y38100D01*
X90000Y82500D02*
X88900Y82550D01*
X227500Y50000D02*
X227500Y40000D01*
X227500Y50000D02*
X180000Y97500D01*
X180000Y125000D01*
X227500Y40000D02*
X228600Y38100D01*
X180000Y125000D02*
X177800Y127000D01*
X290000Y392500D02*
X290000Y405000D01*
X290000Y392500D02*
X210000Y312500D01*
X115000Y312500D01*
X290000Y405000D02*
X292100Y406400D01*
X115000Y312500D02*
X114300Y311150D01*
X265000Y392500D02*
X265000Y405000D01*
X265000Y392500D02*
X210000Y337500D01*
X115000Y337500D01*
X265000Y405000D02*
X266700Y406400D01*
X115000Y337500D02*
X114300Y336550D01*
M02*
