G04 EAGLE Gerber RS-274X export*
G75*
%MOMM*%
%FSLAX34Y34*%
%LPD*%
%INSilkscreen Bottom*%
%IPPOS*%
%AMOC8*
5,1,8,0,0,1.08239X$1,22.5*%
G01*
%ADD10C,0.152400*%
%ADD11C,0.127000*%
%ADD12C,0.254000*%


D10*
X57150Y127000D02*
X44450Y127000D01*
X38100Y120650D01*
X38100Y107950D01*
X44450Y101600D01*
X63500Y107950D02*
X63500Y120650D01*
X57150Y127000D01*
X63500Y107950D02*
X57150Y101600D01*
X44450Y101600D01*
X38100Y120650D02*
X31750Y127000D01*
X19050Y127000D01*
X12700Y120650D01*
X12700Y107950D01*
X19050Y101600D01*
X31750Y101600D01*
X38100Y107950D01*
D11*
X82677Y135763D02*
X82679Y135663D01*
X82685Y135564D01*
X82695Y135464D01*
X82708Y135366D01*
X82726Y135267D01*
X82747Y135170D01*
X82772Y135074D01*
X82801Y134978D01*
X82834Y134884D01*
X82870Y134791D01*
X82910Y134700D01*
X82954Y134610D01*
X83001Y134522D01*
X83051Y134436D01*
X83105Y134352D01*
X83162Y134270D01*
X83222Y134191D01*
X83286Y134113D01*
X83352Y134039D01*
X83421Y133967D01*
X83493Y133898D01*
X83567Y133832D01*
X83645Y133768D01*
X83724Y133708D01*
X83806Y133651D01*
X83890Y133597D01*
X83976Y133547D01*
X84064Y133500D01*
X84154Y133456D01*
X84245Y133416D01*
X84338Y133380D01*
X84432Y133347D01*
X84528Y133318D01*
X84624Y133293D01*
X84721Y133272D01*
X84820Y133254D01*
X84918Y133241D01*
X85018Y133231D01*
X85117Y133225D01*
X85217Y133223D01*
X85358Y133225D01*
X85499Y133230D01*
X85640Y133240D01*
X85781Y133253D01*
X85921Y133269D01*
X86061Y133290D01*
X86200Y133314D01*
X86339Y133342D01*
X86476Y133373D01*
X86613Y133408D01*
X86749Y133446D01*
X86884Y133488D01*
X87017Y133534D01*
X87150Y133583D01*
X87281Y133636D01*
X87410Y133692D01*
X87539Y133751D01*
X87665Y133814D01*
X87790Y133880D01*
X87913Y133949D01*
X88034Y134022D01*
X88153Y134098D01*
X88271Y134177D01*
X88386Y134258D01*
X88498Y134343D01*
X88609Y134431D01*
X88717Y134522D01*
X88823Y134615D01*
X88926Y134712D01*
X89027Y134811D01*
X88710Y142113D02*
X88708Y142213D01*
X88702Y142312D01*
X88692Y142412D01*
X88679Y142510D01*
X88661Y142609D01*
X88640Y142706D01*
X88615Y142802D01*
X88586Y142898D01*
X88553Y142992D01*
X88517Y143085D01*
X88477Y143176D01*
X88433Y143266D01*
X88386Y143354D01*
X88336Y143440D01*
X88282Y143524D01*
X88225Y143606D01*
X88165Y143685D01*
X88101Y143763D01*
X88035Y143837D01*
X87966Y143909D01*
X87894Y143978D01*
X87820Y144044D01*
X87742Y144108D01*
X87663Y144168D01*
X87581Y144225D01*
X87497Y144279D01*
X87411Y144329D01*
X87323Y144376D01*
X87233Y144420D01*
X87142Y144460D01*
X87049Y144496D01*
X86955Y144529D01*
X86859Y144558D01*
X86763Y144583D01*
X86666Y144604D01*
X86567Y144622D01*
X86469Y144635D01*
X86369Y144645D01*
X86270Y144651D01*
X86170Y144653D01*
X86170Y144654D02*
X86037Y144652D01*
X85904Y144647D01*
X85771Y144637D01*
X85638Y144624D01*
X85506Y144607D01*
X85374Y144587D01*
X85243Y144563D01*
X85113Y144535D01*
X84983Y144504D01*
X84855Y144469D01*
X84727Y144430D01*
X84601Y144388D01*
X84476Y144342D01*
X84352Y144293D01*
X84229Y144241D01*
X84108Y144185D01*
X83989Y144125D01*
X83871Y144063D01*
X83756Y143997D01*
X83642Y143928D01*
X83530Y143855D01*
X83420Y143780D01*
X83312Y143701D01*
X87440Y139890D02*
X87524Y139942D01*
X87607Y139997D01*
X87687Y140056D01*
X87765Y140117D01*
X87840Y140181D01*
X87913Y140249D01*
X87984Y140319D01*
X88051Y140391D01*
X88116Y140466D01*
X88178Y140544D01*
X88237Y140624D01*
X88293Y140706D01*
X88345Y140790D01*
X88394Y140876D01*
X88440Y140964D01*
X88483Y141054D01*
X88522Y141145D01*
X88557Y141238D01*
X88589Y141332D01*
X88617Y141427D01*
X88642Y141523D01*
X88662Y141620D01*
X88680Y141718D01*
X88693Y141816D01*
X88702Y141915D01*
X88708Y142014D01*
X88710Y142113D01*
X83947Y137986D02*
X83863Y137934D01*
X83780Y137879D01*
X83700Y137820D01*
X83622Y137759D01*
X83547Y137695D01*
X83474Y137627D01*
X83403Y137557D01*
X83336Y137485D01*
X83271Y137410D01*
X83209Y137332D01*
X83150Y137252D01*
X83094Y137170D01*
X83042Y137086D01*
X82993Y137000D01*
X82947Y136912D01*
X82904Y136822D01*
X82865Y136731D01*
X82830Y136638D01*
X82798Y136544D01*
X82770Y136449D01*
X82745Y136353D01*
X82725Y136256D01*
X82707Y136158D01*
X82694Y136060D01*
X82685Y135961D01*
X82679Y135862D01*
X82677Y135763D01*
X83947Y137986D02*
X87440Y139891D01*
X77978Y141478D02*
X77978Y136398D01*
X77978Y141478D02*
X77976Y141589D01*
X77970Y141699D01*
X77961Y141810D01*
X77947Y141920D01*
X77930Y142029D01*
X77909Y142138D01*
X77884Y142246D01*
X77855Y142353D01*
X77823Y142459D01*
X77787Y142564D01*
X77747Y142667D01*
X77704Y142769D01*
X77657Y142870D01*
X77606Y142969D01*
X77553Y143066D01*
X77496Y143160D01*
X77435Y143253D01*
X77372Y143344D01*
X77305Y143433D01*
X77235Y143519D01*
X77162Y143602D01*
X77087Y143684D01*
X77009Y143762D01*
X76927Y143837D01*
X76844Y143910D01*
X76758Y143980D01*
X76669Y144047D01*
X76578Y144110D01*
X76485Y144171D01*
X76391Y144228D01*
X76294Y144281D01*
X76195Y144332D01*
X76094Y144379D01*
X75992Y144422D01*
X75889Y144462D01*
X75784Y144498D01*
X75678Y144530D01*
X75571Y144559D01*
X75463Y144584D01*
X75354Y144605D01*
X75245Y144622D01*
X75135Y144636D01*
X75024Y144645D01*
X74914Y144651D01*
X74803Y144653D01*
X74692Y144651D01*
X74582Y144645D01*
X74471Y144636D01*
X74361Y144622D01*
X74252Y144605D01*
X74143Y144584D01*
X74035Y144559D01*
X73928Y144530D01*
X73822Y144498D01*
X73717Y144462D01*
X73614Y144422D01*
X73512Y144379D01*
X73411Y144332D01*
X73312Y144281D01*
X73216Y144228D01*
X73121Y144171D01*
X73028Y144110D01*
X72937Y144047D01*
X72848Y143980D01*
X72762Y143910D01*
X72679Y143837D01*
X72597Y143762D01*
X72519Y143684D01*
X72444Y143602D01*
X72371Y143519D01*
X72301Y143433D01*
X72234Y143344D01*
X72171Y143253D01*
X72110Y143160D01*
X72053Y143066D01*
X72000Y142969D01*
X71949Y142870D01*
X71902Y142769D01*
X71859Y142667D01*
X71819Y142564D01*
X71783Y142459D01*
X71751Y142353D01*
X71722Y142246D01*
X71697Y142138D01*
X71676Y142029D01*
X71659Y141920D01*
X71645Y141810D01*
X71636Y141699D01*
X71630Y141589D01*
X71628Y141478D01*
X71628Y136398D01*
X71630Y136287D01*
X71636Y136177D01*
X71645Y136066D01*
X71659Y135956D01*
X71676Y135847D01*
X71697Y135738D01*
X71722Y135630D01*
X71751Y135523D01*
X71783Y135417D01*
X71819Y135312D01*
X71859Y135209D01*
X71902Y135107D01*
X71949Y135006D01*
X72000Y134907D01*
X72053Y134811D01*
X72110Y134716D01*
X72171Y134623D01*
X72234Y134532D01*
X72301Y134443D01*
X72371Y134357D01*
X72444Y134274D01*
X72519Y134192D01*
X72597Y134114D01*
X72679Y134039D01*
X72762Y133966D01*
X72848Y133896D01*
X72937Y133829D01*
X73028Y133766D01*
X73121Y133705D01*
X73216Y133648D01*
X73312Y133595D01*
X73411Y133544D01*
X73512Y133497D01*
X73614Y133454D01*
X73717Y133414D01*
X73822Y133378D01*
X73928Y133346D01*
X74035Y133317D01*
X74143Y133292D01*
X74252Y133271D01*
X74361Y133254D01*
X74471Y133240D01*
X74582Y133231D01*
X74692Y133225D01*
X74803Y133223D01*
X74914Y133225D01*
X75024Y133231D01*
X75135Y133240D01*
X75245Y133254D01*
X75354Y133271D01*
X75463Y133292D01*
X75571Y133317D01*
X75678Y133346D01*
X75784Y133378D01*
X75889Y133414D01*
X75992Y133454D01*
X76094Y133497D01*
X76195Y133544D01*
X76294Y133595D01*
X76390Y133648D01*
X76485Y133705D01*
X76578Y133766D01*
X76669Y133829D01*
X76758Y133896D01*
X76844Y133966D01*
X76927Y134039D01*
X77009Y134114D01*
X77087Y134192D01*
X77162Y134274D01*
X77235Y134357D01*
X77305Y134443D01*
X77372Y134532D01*
X77435Y134623D01*
X77496Y134716D01*
X77553Y134810D01*
X77606Y134907D01*
X77657Y135006D01*
X77704Y135107D01*
X77747Y135209D01*
X77787Y135312D01*
X77823Y135417D01*
X77855Y135523D01*
X77884Y135630D01*
X77909Y135738D01*
X77930Y135847D01*
X77947Y135956D01*
X77961Y136066D01*
X77970Y136177D01*
X77976Y136287D01*
X77978Y136398D01*
X66167Y133223D02*
X66167Y144653D01*
X59817Y133223D01*
X59817Y144653D01*
X51181Y144653D02*
X54991Y133223D01*
X47371Y133223D02*
X51181Y144653D01*
X48324Y136081D02*
X54039Y136081D01*
X42355Y139573D02*
X39180Y139573D01*
X39069Y139571D01*
X38959Y139565D01*
X38848Y139556D01*
X38738Y139542D01*
X38629Y139525D01*
X38520Y139504D01*
X38412Y139479D01*
X38305Y139450D01*
X38199Y139418D01*
X38094Y139382D01*
X37991Y139342D01*
X37889Y139299D01*
X37788Y139252D01*
X37689Y139201D01*
X37593Y139148D01*
X37498Y139091D01*
X37405Y139030D01*
X37314Y138967D01*
X37225Y138900D01*
X37139Y138830D01*
X37056Y138757D01*
X36974Y138682D01*
X36896Y138604D01*
X36821Y138522D01*
X36748Y138439D01*
X36678Y138353D01*
X36611Y138264D01*
X36548Y138173D01*
X36487Y138080D01*
X36430Y137986D01*
X36377Y137889D01*
X36326Y137790D01*
X36279Y137689D01*
X36236Y137587D01*
X36196Y137484D01*
X36160Y137379D01*
X36128Y137273D01*
X36099Y137166D01*
X36074Y137058D01*
X36053Y136949D01*
X36036Y136840D01*
X36022Y136730D01*
X36013Y136619D01*
X36007Y136509D01*
X36005Y136398D01*
X36007Y136287D01*
X36013Y136177D01*
X36022Y136066D01*
X36036Y135956D01*
X36053Y135847D01*
X36074Y135738D01*
X36099Y135630D01*
X36128Y135523D01*
X36160Y135417D01*
X36196Y135312D01*
X36236Y135209D01*
X36279Y135107D01*
X36326Y135006D01*
X36377Y134907D01*
X36430Y134811D01*
X36487Y134716D01*
X36548Y134623D01*
X36611Y134532D01*
X36678Y134443D01*
X36748Y134357D01*
X36821Y134274D01*
X36896Y134192D01*
X36974Y134114D01*
X37056Y134039D01*
X37139Y133966D01*
X37225Y133896D01*
X37314Y133829D01*
X37405Y133766D01*
X37498Y133705D01*
X37593Y133648D01*
X37689Y133595D01*
X37788Y133544D01*
X37889Y133497D01*
X37991Y133454D01*
X38094Y133414D01*
X38199Y133378D01*
X38305Y133346D01*
X38412Y133317D01*
X38520Y133292D01*
X38629Y133271D01*
X38738Y133254D01*
X38848Y133240D01*
X38959Y133231D01*
X39069Y133225D01*
X39180Y133223D01*
X42355Y133223D01*
X42355Y144653D01*
X39180Y144653D01*
X39080Y144651D01*
X38981Y144645D01*
X38881Y144635D01*
X38783Y144622D01*
X38684Y144604D01*
X38587Y144583D01*
X38491Y144558D01*
X38395Y144529D01*
X38301Y144496D01*
X38208Y144460D01*
X38117Y144420D01*
X38027Y144376D01*
X37939Y144329D01*
X37853Y144279D01*
X37769Y144225D01*
X37687Y144168D01*
X37608Y144108D01*
X37530Y144044D01*
X37456Y143978D01*
X37384Y143909D01*
X37315Y143837D01*
X37249Y143763D01*
X37185Y143685D01*
X37125Y143606D01*
X37068Y143524D01*
X37014Y143440D01*
X36964Y143354D01*
X36917Y143266D01*
X36873Y143176D01*
X36833Y143085D01*
X36797Y142992D01*
X36764Y142898D01*
X36735Y142802D01*
X36710Y142706D01*
X36689Y142609D01*
X36671Y142510D01*
X36658Y142412D01*
X36648Y142312D01*
X36642Y142213D01*
X36640Y142113D01*
X36642Y142013D01*
X36648Y141914D01*
X36658Y141814D01*
X36671Y141716D01*
X36689Y141617D01*
X36710Y141520D01*
X36735Y141424D01*
X36764Y141328D01*
X36797Y141234D01*
X36833Y141141D01*
X36873Y141050D01*
X36917Y140960D01*
X36964Y140872D01*
X37014Y140786D01*
X37068Y140702D01*
X37125Y140620D01*
X37185Y140541D01*
X37249Y140463D01*
X37315Y140389D01*
X37384Y140317D01*
X37456Y140248D01*
X37530Y140182D01*
X37608Y140118D01*
X37687Y140058D01*
X37769Y140001D01*
X37853Y139947D01*
X37939Y139897D01*
X38027Y139850D01*
X38117Y139806D01*
X38208Y139766D01*
X38301Y139730D01*
X38395Y139697D01*
X38491Y139668D01*
X38587Y139643D01*
X38684Y139622D01*
X38783Y139604D01*
X38881Y139591D01*
X38981Y139581D01*
X39080Y139575D01*
X39180Y139573D01*
X31496Y141478D02*
X31496Y136398D01*
X31496Y141478D02*
X31494Y141589D01*
X31488Y141699D01*
X31479Y141810D01*
X31465Y141920D01*
X31448Y142029D01*
X31427Y142138D01*
X31402Y142246D01*
X31373Y142353D01*
X31341Y142459D01*
X31305Y142564D01*
X31265Y142667D01*
X31222Y142769D01*
X31175Y142870D01*
X31124Y142969D01*
X31071Y143066D01*
X31014Y143160D01*
X30953Y143253D01*
X30890Y143344D01*
X30823Y143433D01*
X30753Y143519D01*
X30680Y143602D01*
X30605Y143684D01*
X30527Y143762D01*
X30445Y143837D01*
X30362Y143910D01*
X30276Y143980D01*
X30187Y144047D01*
X30096Y144110D01*
X30003Y144171D01*
X29909Y144228D01*
X29812Y144281D01*
X29713Y144332D01*
X29612Y144379D01*
X29510Y144422D01*
X29407Y144462D01*
X29302Y144498D01*
X29196Y144530D01*
X29089Y144559D01*
X28981Y144584D01*
X28872Y144605D01*
X28763Y144622D01*
X28653Y144636D01*
X28542Y144645D01*
X28432Y144651D01*
X28321Y144653D01*
X28210Y144651D01*
X28100Y144645D01*
X27989Y144636D01*
X27879Y144622D01*
X27770Y144605D01*
X27661Y144584D01*
X27553Y144559D01*
X27446Y144530D01*
X27340Y144498D01*
X27235Y144462D01*
X27132Y144422D01*
X27030Y144379D01*
X26929Y144332D01*
X26830Y144281D01*
X26733Y144228D01*
X26639Y144171D01*
X26546Y144110D01*
X26455Y144047D01*
X26366Y143980D01*
X26280Y143910D01*
X26197Y143837D01*
X26115Y143762D01*
X26037Y143684D01*
X25962Y143602D01*
X25889Y143519D01*
X25819Y143433D01*
X25752Y143344D01*
X25689Y143253D01*
X25628Y143160D01*
X25571Y143066D01*
X25518Y142969D01*
X25467Y142870D01*
X25420Y142769D01*
X25377Y142667D01*
X25337Y142564D01*
X25301Y142459D01*
X25269Y142353D01*
X25240Y142246D01*
X25215Y142138D01*
X25194Y142029D01*
X25177Y141920D01*
X25163Y141810D01*
X25154Y141699D01*
X25148Y141589D01*
X25146Y141478D01*
X25146Y136398D01*
X25148Y136287D01*
X25154Y136177D01*
X25163Y136066D01*
X25177Y135956D01*
X25194Y135847D01*
X25215Y135738D01*
X25240Y135630D01*
X25269Y135523D01*
X25301Y135417D01*
X25337Y135312D01*
X25377Y135209D01*
X25420Y135107D01*
X25467Y135006D01*
X25518Y134907D01*
X25571Y134811D01*
X25628Y134716D01*
X25689Y134623D01*
X25752Y134532D01*
X25819Y134443D01*
X25889Y134357D01*
X25962Y134274D01*
X26037Y134192D01*
X26115Y134114D01*
X26197Y134039D01*
X26280Y133966D01*
X26366Y133896D01*
X26455Y133829D01*
X26546Y133766D01*
X26639Y133705D01*
X26733Y133648D01*
X26830Y133595D01*
X26929Y133544D01*
X27030Y133497D01*
X27132Y133454D01*
X27235Y133414D01*
X27340Y133378D01*
X27446Y133346D01*
X27553Y133317D01*
X27661Y133292D01*
X27770Y133271D01*
X27879Y133254D01*
X27989Y133240D01*
X28100Y133231D01*
X28210Y133225D01*
X28321Y133223D01*
X28432Y133225D01*
X28542Y133231D01*
X28653Y133240D01*
X28763Y133254D01*
X28872Y133271D01*
X28981Y133292D01*
X29089Y133317D01*
X29196Y133346D01*
X29302Y133378D01*
X29407Y133414D01*
X29510Y133454D01*
X29612Y133497D01*
X29713Y133544D01*
X29812Y133595D01*
X29908Y133648D01*
X30003Y133705D01*
X30096Y133766D01*
X30187Y133829D01*
X30276Y133896D01*
X30362Y133966D01*
X30445Y134039D01*
X30527Y134114D01*
X30605Y134192D01*
X30680Y134274D01*
X30753Y134357D01*
X30823Y134443D01*
X30890Y134532D01*
X30953Y134623D01*
X31014Y134716D01*
X31071Y134810D01*
X31124Y134907D01*
X31175Y135006D01*
X31222Y135107D01*
X31265Y135209D01*
X31305Y135312D01*
X31341Y135417D01*
X31373Y135523D01*
X31402Y135630D01*
X31427Y135738D01*
X31448Y135847D01*
X31465Y135956D01*
X31479Y136066D01*
X31488Y136177D01*
X31494Y136287D01*
X31496Y136398D01*
X17653Y133223D02*
X17653Y144653D01*
X20828Y144653D02*
X14478Y144653D01*
X7747Y144653D02*
X7747Y133223D01*
X10922Y144653D02*
X4572Y144653D01*
X254Y141478D02*
X254Y136398D01*
X254Y141478D02*
X252Y141589D01*
X246Y141699D01*
X237Y141810D01*
X223Y141920D01*
X206Y142029D01*
X185Y142138D01*
X160Y142246D01*
X131Y142353D01*
X99Y142459D01*
X63Y142564D01*
X23Y142667D01*
X-20Y142769D01*
X-67Y142870D01*
X-118Y142969D01*
X-171Y143066D01*
X-228Y143160D01*
X-289Y143253D01*
X-352Y143344D01*
X-419Y143433D01*
X-489Y143519D01*
X-562Y143602D01*
X-637Y143684D01*
X-715Y143762D01*
X-797Y143837D01*
X-880Y143910D01*
X-966Y143980D01*
X-1055Y144047D01*
X-1146Y144110D01*
X-1239Y144171D01*
X-1334Y144228D01*
X-1430Y144281D01*
X-1529Y144332D01*
X-1630Y144379D01*
X-1732Y144422D01*
X-1835Y144462D01*
X-1940Y144498D01*
X-2046Y144530D01*
X-2153Y144559D01*
X-2261Y144584D01*
X-2370Y144605D01*
X-2479Y144622D01*
X-2589Y144636D01*
X-2700Y144645D01*
X-2810Y144651D01*
X-2921Y144653D01*
X-3032Y144651D01*
X-3142Y144645D01*
X-3253Y144636D01*
X-3363Y144622D01*
X-3472Y144605D01*
X-3581Y144584D01*
X-3689Y144559D01*
X-3796Y144530D01*
X-3902Y144498D01*
X-4007Y144462D01*
X-4110Y144422D01*
X-4212Y144379D01*
X-4313Y144332D01*
X-4412Y144281D01*
X-4509Y144228D01*
X-4603Y144171D01*
X-4696Y144110D01*
X-4787Y144047D01*
X-4876Y143980D01*
X-4962Y143910D01*
X-5045Y143837D01*
X-5127Y143762D01*
X-5205Y143684D01*
X-5280Y143602D01*
X-5353Y143519D01*
X-5423Y143433D01*
X-5490Y143344D01*
X-5553Y143253D01*
X-5614Y143160D01*
X-5671Y143066D01*
X-5724Y142969D01*
X-5775Y142870D01*
X-5822Y142769D01*
X-5865Y142667D01*
X-5905Y142564D01*
X-5941Y142459D01*
X-5973Y142353D01*
X-6002Y142246D01*
X-6027Y142138D01*
X-6048Y142029D01*
X-6065Y141920D01*
X-6079Y141810D01*
X-6088Y141699D01*
X-6094Y141589D01*
X-6096Y141478D01*
X-6096Y136398D01*
X-6094Y136287D01*
X-6088Y136177D01*
X-6079Y136066D01*
X-6065Y135956D01*
X-6048Y135847D01*
X-6027Y135738D01*
X-6002Y135630D01*
X-5973Y135523D01*
X-5941Y135417D01*
X-5905Y135312D01*
X-5865Y135209D01*
X-5822Y135107D01*
X-5775Y135006D01*
X-5724Y134907D01*
X-5671Y134811D01*
X-5614Y134716D01*
X-5553Y134623D01*
X-5490Y134532D01*
X-5423Y134443D01*
X-5353Y134357D01*
X-5280Y134274D01*
X-5205Y134192D01*
X-5127Y134114D01*
X-5045Y134039D01*
X-4962Y133966D01*
X-4876Y133896D01*
X-4787Y133829D01*
X-4696Y133766D01*
X-4603Y133705D01*
X-4509Y133648D01*
X-4412Y133595D01*
X-4313Y133544D01*
X-4212Y133497D01*
X-4110Y133454D01*
X-4007Y133414D01*
X-3902Y133378D01*
X-3796Y133346D01*
X-3689Y133317D01*
X-3581Y133292D01*
X-3472Y133271D01*
X-3363Y133254D01*
X-3253Y133240D01*
X-3142Y133231D01*
X-3032Y133225D01*
X-2921Y133223D01*
X-2810Y133225D01*
X-2700Y133231D01*
X-2589Y133240D01*
X-2479Y133254D01*
X-2370Y133271D01*
X-2261Y133292D01*
X-2153Y133317D01*
X-2046Y133346D01*
X-1940Y133378D01*
X-1835Y133414D01*
X-1732Y133454D01*
X-1630Y133497D01*
X-1529Y133544D01*
X-1430Y133595D01*
X-1334Y133648D01*
X-1239Y133705D01*
X-1146Y133766D01*
X-1055Y133829D01*
X-966Y133896D01*
X-880Y133966D01*
X-797Y134039D01*
X-715Y134114D01*
X-637Y134192D01*
X-562Y134274D01*
X-489Y134357D01*
X-419Y134443D01*
X-352Y134532D01*
X-289Y134623D01*
X-228Y134716D01*
X-171Y134810D01*
X-118Y134907D01*
X-67Y135006D01*
X-20Y135107D01*
X23Y135209D01*
X63Y135312D01*
X99Y135417D01*
X131Y135523D01*
X160Y135630D01*
X185Y135738D01*
X206Y135847D01*
X223Y135956D01*
X237Y136066D01*
X246Y136177D01*
X252Y136287D01*
X254Y136398D01*
X-11684Y133223D02*
X-11684Y144653D01*
X-15494Y138303D01*
X-19304Y144653D01*
X-19304Y133223D01*
X-27305Y133223D02*
X-27305Y144653D01*
X-24130Y144653D02*
X-30480Y144653D01*
X-37973Y144653D02*
X-34163Y133223D01*
X-41783Y133223D02*
X-37973Y144653D01*
X-40831Y136081D02*
X-35116Y136081D01*
X-46609Y133223D02*
X-46609Y144653D01*
X-52959Y133223D01*
X-52959Y144653D01*
X-58992Y144653D02*
X-58992Y133223D01*
X-58992Y137668D02*
X-65342Y144653D01*
X-61532Y140208D02*
X-65342Y133223D01*
D10*
X44450Y190500D02*
X57150Y190500D01*
X44450Y190500D02*
X38100Y184150D01*
X38100Y171450D01*
X44450Y165100D01*
X63500Y171450D02*
X63500Y184150D01*
X57150Y190500D01*
X63500Y171450D02*
X57150Y165100D01*
X44450Y165100D01*
X38100Y184150D02*
X31750Y190500D01*
X19050Y190500D01*
X12700Y184150D01*
X12700Y171450D01*
X19050Y165100D01*
X31750Y165100D01*
X38100Y171450D01*
D11*
X82677Y199263D02*
X82679Y199163D01*
X82685Y199064D01*
X82695Y198964D01*
X82708Y198866D01*
X82726Y198767D01*
X82747Y198670D01*
X82772Y198574D01*
X82801Y198478D01*
X82834Y198384D01*
X82870Y198291D01*
X82910Y198200D01*
X82954Y198110D01*
X83001Y198022D01*
X83051Y197936D01*
X83105Y197852D01*
X83162Y197770D01*
X83222Y197691D01*
X83286Y197613D01*
X83352Y197539D01*
X83421Y197467D01*
X83493Y197398D01*
X83567Y197332D01*
X83645Y197268D01*
X83724Y197208D01*
X83806Y197151D01*
X83890Y197097D01*
X83976Y197047D01*
X84064Y197000D01*
X84154Y196956D01*
X84245Y196916D01*
X84338Y196880D01*
X84432Y196847D01*
X84528Y196818D01*
X84624Y196793D01*
X84721Y196772D01*
X84820Y196754D01*
X84918Y196741D01*
X85018Y196731D01*
X85117Y196725D01*
X85217Y196723D01*
X85358Y196725D01*
X85499Y196730D01*
X85640Y196740D01*
X85781Y196753D01*
X85921Y196769D01*
X86061Y196790D01*
X86200Y196814D01*
X86339Y196842D01*
X86476Y196873D01*
X86613Y196908D01*
X86749Y196946D01*
X86884Y196988D01*
X87017Y197034D01*
X87150Y197083D01*
X87281Y197136D01*
X87410Y197192D01*
X87539Y197251D01*
X87665Y197314D01*
X87790Y197380D01*
X87913Y197449D01*
X88034Y197522D01*
X88153Y197598D01*
X88271Y197677D01*
X88386Y197758D01*
X88498Y197843D01*
X88609Y197931D01*
X88717Y198022D01*
X88823Y198115D01*
X88926Y198212D01*
X89027Y198311D01*
X88710Y205613D02*
X88708Y205713D01*
X88702Y205812D01*
X88692Y205912D01*
X88679Y206010D01*
X88661Y206109D01*
X88640Y206206D01*
X88615Y206302D01*
X88586Y206398D01*
X88553Y206492D01*
X88517Y206585D01*
X88477Y206676D01*
X88433Y206766D01*
X88386Y206854D01*
X88336Y206940D01*
X88282Y207024D01*
X88225Y207106D01*
X88165Y207185D01*
X88101Y207263D01*
X88035Y207337D01*
X87966Y207409D01*
X87894Y207478D01*
X87820Y207544D01*
X87742Y207608D01*
X87663Y207668D01*
X87581Y207725D01*
X87497Y207779D01*
X87411Y207829D01*
X87323Y207876D01*
X87233Y207920D01*
X87142Y207960D01*
X87049Y207996D01*
X86955Y208029D01*
X86859Y208058D01*
X86763Y208083D01*
X86666Y208104D01*
X86567Y208122D01*
X86469Y208135D01*
X86369Y208145D01*
X86270Y208151D01*
X86170Y208153D01*
X86170Y208154D02*
X86037Y208152D01*
X85904Y208147D01*
X85771Y208137D01*
X85638Y208124D01*
X85506Y208107D01*
X85374Y208087D01*
X85243Y208063D01*
X85113Y208035D01*
X84983Y208004D01*
X84855Y207969D01*
X84727Y207930D01*
X84601Y207888D01*
X84476Y207842D01*
X84352Y207793D01*
X84229Y207741D01*
X84108Y207685D01*
X83989Y207625D01*
X83871Y207563D01*
X83756Y207497D01*
X83642Y207428D01*
X83530Y207355D01*
X83420Y207280D01*
X83312Y207201D01*
X87440Y203390D02*
X87524Y203442D01*
X87607Y203497D01*
X87687Y203556D01*
X87765Y203617D01*
X87840Y203681D01*
X87913Y203749D01*
X87984Y203819D01*
X88051Y203891D01*
X88116Y203966D01*
X88178Y204044D01*
X88237Y204124D01*
X88293Y204206D01*
X88345Y204290D01*
X88394Y204376D01*
X88440Y204464D01*
X88483Y204554D01*
X88522Y204645D01*
X88557Y204738D01*
X88589Y204832D01*
X88617Y204927D01*
X88642Y205023D01*
X88662Y205120D01*
X88680Y205218D01*
X88693Y205316D01*
X88702Y205415D01*
X88708Y205514D01*
X88710Y205613D01*
X83947Y201486D02*
X83863Y201434D01*
X83780Y201379D01*
X83700Y201320D01*
X83622Y201259D01*
X83547Y201195D01*
X83474Y201127D01*
X83403Y201057D01*
X83336Y200985D01*
X83271Y200910D01*
X83209Y200832D01*
X83150Y200752D01*
X83094Y200670D01*
X83042Y200586D01*
X82993Y200500D01*
X82947Y200412D01*
X82904Y200322D01*
X82865Y200231D01*
X82830Y200138D01*
X82798Y200044D01*
X82770Y199949D01*
X82745Y199853D01*
X82725Y199756D01*
X82707Y199658D01*
X82694Y199560D01*
X82685Y199461D01*
X82679Y199362D01*
X82677Y199263D01*
X83947Y201486D02*
X87440Y203391D01*
X77978Y204978D02*
X77978Y199898D01*
X77978Y204978D02*
X77976Y205089D01*
X77970Y205199D01*
X77961Y205310D01*
X77947Y205420D01*
X77930Y205529D01*
X77909Y205638D01*
X77884Y205746D01*
X77855Y205853D01*
X77823Y205959D01*
X77787Y206064D01*
X77747Y206167D01*
X77704Y206269D01*
X77657Y206370D01*
X77606Y206469D01*
X77553Y206566D01*
X77496Y206660D01*
X77435Y206753D01*
X77372Y206844D01*
X77305Y206933D01*
X77235Y207019D01*
X77162Y207102D01*
X77087Y207184D01*
X77009Y207262D01*
X76927Y207337D01*
X76844Y207410D01*
X76758Y207480D01*
X76669Y207547D01*
X76578Y207610D01*
X76485Y207671D01*
X76391Y207728D01*
X76294Y207781D01*
X76195Y207832D01*
X76094Y207879D01*
X75992Y207922D01*
X75889Y207962D01*
X75784Y207998D01*
X75678Y208030D01*
X75571Y208059D01*
X75463Y208084D01*
X75354Y208105D01*
X75245Y208122D01*
X75135Y208136D01*
X75024Y208145D01*
X74914Y208151D01*
X74803Y208153D01*
X74692Y208151D01*
X74582Y208145D01*
X74471Y208136D01*
X74361Y208122D01*
X74252Y208105D01*
X74143Y208084D01*
X74035Y208059D01*
X73928Y208030D01*
X73822Y207998D01*
X73717Y207962D01*
X73614Y207922D01*
X73512Y207879D01*
X73411Y207832D01*
X73312Y207781D01*
X73216Y207728D01*
X73121Y207671D01*
X73028Y207610D01*
X72937Y207547D01*
X72848Y207480D01*
X72762Y207410D01*
X72679Y207337D01*
X72597Y207262D01*
X72519Y207184D01*
X72444Y207102D01*
X72371Y207019D01*
X72301Y206933D01*
X72234Y206844D01*
X72171Y206753D01*
X72110Y206660D01*
X72053Y206566D01*
X72000Y206469D01*
X71949Y206370D01*
X71902Y206269D01*
X71859Y206167D01*
X71819Y206064D01*
X71783Y205959D01*
X71751Y205853D01*
X71722Y205746D01*
X71697Y205638D01*
X71676Y205529D01*
X71659Y205420D01*
X71645Y205310D01*
X71636Y205199D01*
X71630Y205089D01*
X71628Y204978D01*
X71628Y199898D01*
X71630Y199787D01*
X71636Y199677D01*
X71645Y199566D01*
X71659Y199456D01*
X71676Y199347D01*
X71697Y199238D01*
X71722Y199130D01*
X71751Y199023D01*
X71783Y198917D01*
X71819Y198812D01*
X71859Y198709D01*
X71902Y198607D01*
X71949Y198506D01*
X72000Y198407D01*
X72053Y198311D01*
X72110Y198216D01*
X72171Y198123D01*
X72234Y198032D01*
X72301Y197943D01*
X72371Y197857D01*
X72444Y197774D01*
X72519Y197692D01*
X72597Y197614D01*
X72679Y197539D01*
X72762Y197466D01*
X72848Y197396D01*
X72937Y197329D01*
X73028Y197266D01*
X73121Y197205D01*
X73216Y197148D01*
X73312Y197095D01*
X73411Y197044D01*
X73512Y196997D01*
X73614Y196954D01*
X73717Y196914D01*
X73822Y196878D01*
X73928Y196846D01*
X74035Y196817D01*
X74143Y196792D01*
X74252Y196771D01*
X74361Y196754D01*
X74471Y196740D01*
X74582Y196731D01*
X74692Y196725D01*
X74803Y196723D01*
X74914Y196725D01*
X75024Y196731D01*
X75135Y196740D01*
X75245Y196754D01*
X75354Y196771D01*
X75463Y196792D01*
X75571Y196817D01*
X75678Y196846D01*
X75784Y196878D01*
X75889Y196914D01*
X75992Y196954D01*
X76094Y196997D01*
X76195Y197044D01*
X76294Y197095D01*
X76390Y197148D01*
X76485Y197205D01*
X76578Y197266D01*
X76669Y197329D01*
X76758Y197396D01*
X76844Y197466D01*
X76927Y197539D01*
X77009Y197614D01*
X77087Y197692D01*
X77162Y197774D01*
X77235Y197857D01*
X77305Y197943D01*
X77372Y198032D01*
X77435Y198123D01*
X77496Y198216D01*
X77553Y198310D01*
X77606Y198407D01*
X77657Y198506D01*
X77704Y198607D01*
X77747Y198709D01*
X77787Y198812D01*
X77823Y198917D01*
X77855Y199023D01*
X77884Y199130D01*
X77909Y199238D01*
X77930Y199347D01*
X77947Y199456D01*
X77961Y199566D01*
X77970Y199677D01*
X77976Y199787D01*
X77978Y199898D01*
X66167Y196723D02*
X66167Y208153D01*
X59817Y196723D01*
X59817Y208153D01*
X51181Y208153D02*
X54991Y196723D01*
X47371Y196723D02*
X51181Y208153D01*
X48324Y199581D02*
X54039Y199581D01*
X42545Y199898D02*
X42545Y208153D01*
X42545Y199898D02*
X42543Y199787D01*
X42537Y199677D01*
X42528Y199566D01*
X42514Y199456D01*
X42497Y199347D01*
X42476Y199238D01*
X42451Y199130D01*
X42422Y199023D01*
X42390Y198917D01*
X42354Y198812D01*
X42314Y198709D01*
X42271Y198607D01*
X42224Y198506D01*
X42173Y198407D01*
X42120Y198310D01*
X42063Y198216D01*
X42002Y198123D01*
X41939Y198032D01*
X41872Y197943D01*
X41802Y197857D01*
X41729Y197774D01*
X41654Y197692D01*
X41576Y197614D01*
X41494Y197539D01*
X41411Y197466D01*
X41325Y197396D01*
X41236Y197329D01*
X41145Y197266D01*
X41052Y197205D01*
X40957Y197148D01*
X40861Y197095D01*
X40762Y197044D01*
X40661Y196997D01*
X40559Y196954D01*
X40456Y196914D01*
X40351Y196878D01*
X40245Y196846D01*
X40138Y196817D01*
X40030Y196792D01*
X39921Y196771D01*
X39812Y196754D01*
X39702Y196740D01*
X39591Y196731D01*
X39481Y196725D01*
X39370Y196723D01*
X39259Y196725D01*
X39149Y196731D01*
X39038Y196740D01*
X38928Y196754D01*
X38819Y196771D01*
X38710Y196792D01*
X38602Y196817D01*
X38495Y196846D01*
X38389Y196878D01*
X38284Y196914D01*
X38181Y196954D01*
X38079Y196997D01*
X37978Y197044D01*
X37879Y197095D01*
X37783Y197148D01*
X37688Y197205D01*
X37595Y197266D01*
X37504Y197329D01*
X37415Y197396D01*
X37329Y197466D01*
X37246Y197539D01*
X37164Y197614D01*
X37086Y197692D01*
X37011Y197774D01*
X36938Y197857D01*
X36868Y197943D01*
X36801Y198032D01*
X36738Y198123D01*
X36677Y198216D01*
X36620Y198311D01*
X36567Y198407D01*
X36516Y198506D01*
X36469Y198607D01*
X36426Y198709D01*
X36386Y198812D01*
X36350Y198917D01*
X36318Y199023D01*
X36289Y199130D01*
X36264Y199238D01*
X36243Y199347D01*
X36226Y199456D01*
X36212Y199566D01*
X36203Y199677D01*
X36197Y199787D01*
X36195Y199898D01*
X36195Y208153D01*
X30163Y208153D02*
X30163Y196723D01*
X30163Y208153D02*
X26988Y208153D01*
X26877Y208151D01*
X26767Y208145D01*
X26656Y208136D01*
X26546Y208122D01*
X26437Y208105D01*
X26328Y208084D01*
X26220Y208059D01*
X26113Y208030D01*
X26007Y207998D01*
X25902Y207962D01*
X25799Y207922D01*
X25697Y207879D01*
X25596Y207832D01*
X25497Y207781D01*
X25401Y207728D01*
X25306Y207671D01*
X25213Y207610D01*
X25122Y207547D01*
X25033Y207480D01*
X24947Y207410D01*
X24864Y207337D01*
X24782Y207262D01*
X24704Y207184D01*
X24629Y207102D01*
X24556Y207019D01*
X24486Y206933D01*
X24419Y206844D01*
X24356Y206753D01*
X24295Y206660D01*
X24238Y206566D01*
X24185Y206469D01*
X24134Y206370D01*
X24087Y206269D01*
X24044Y206167D01*
X24004Y206064D01*
X23968Y205959D01*
X23936Y205853D01*
X23907Y205746D01*
X23882Y205638D01*
X23861Y205529D01*
X23844Y205420D01*
X23830Y205310D01*
X23821Y205199D01*
X23815Y205089D01*
X23813Y204978D01*
X23815Y204867D01*
X23821Y204757D01*
X23830Y204646D01*
X23844Y204536D01*
X23861Y204427D01*
X23882Y204318D01*
X23907Y204210D01*
X23936Y204103D01*
X23968Y203997D01*
X24004Y203892D01*
X24044Y203789D01*
X24087Y203687D01*
X24134Y203586D01*
X24185Y203487D01*
X24238Y203391D01*
X24295Y203296D01*
X24356Y203203D01*
X24419Y203112D01*
X24486Y203023D01*
X24556Y202937D01*
X24629Y202854D01*
X24704Y202772D01*
X24782Y202694D01*
X24864Y202619D01*
X24947Y202546D01*
X25033Y202476D01*
X25122Y202409D01*
X25213Y202346D01*
X25306Y202285D01*
X25401Y202228D01*
X25497Y202175D01*
X25596Y202124D01*
X25697Y202077D01*
X25799Y202034D01*
X25902Y201994D01*
X26007Y201958D01*
X26113Y201926D01*
X26220Y201897D01*
X26328Y201872D01*
X26437Y201851D01*
X26546Y201834D01*
X26656Y201820D01*
X26767Y201811D01*
X26877Y201805D01*
X26988Y201803D01*
X30163Y201803D01*
X18733Y196723D02*
X18733Y208153D01*
X15558Y208153D01*
X15447Y208151D01*
X15337Y208145D01*
X15226Y208136D01*
X15116Y208122D01*
X15007Y208105D01*
X14898Y208084D01*
X14790Y208059D01*
X14683Y208030D01*
X14577Y207998D01*
X14472Y207962D01*
X14369Y207922D01*
X14267Y207879D01*
X14166Y207832D01*
X14067Y207781D01*
X13970Y207728D01*
X13876Y207671D01*
X13783Y207610D01*
X13692Y207547D01*
X13603Y207480D01*
X13517Y207410D01*
X13434Y207337D01*
X13352Y207262D01*
X13274Y207184D01*
X13199Y207102D01*
X13126Y207019D01*
X13056Y206933D01*
X12989Y206844D01*
X12926Y206753D01*
X12865Y206660D01*
X12808Y206566D01*
X12755Y206469D01*
X12704Y206370D01*
X12657Y206269D01*
X12614Y206167D01*
X12574Y206064D01*
X12538Y205959D01*
X12506Y205853D01*
X12477Y205746D01*
X12452Y205638D01*
X12431Y205529D01*
X12414Y205420D01*
X12400Y205310D01*
X12391Y205199D01*
X12385Y205089D01*
X12383Y204978D01*
X12385Y204867D01*
X12391Y204757D01*
X12400Y204646D01*
X12414Y204536D01*
X12431Y204427D01*
X12452Y204318D01*
X12477Y204210D01*
X12506Y204103D01*
X12538Y203997D01*
X12574Y203892D01*
X12614Y203789D01*
X12657Y203687D01*
X12704Y203586D01*
X12755Y203487D01*
X12808Y203391D01*
X12865Y203296D01*
X12926Y203203D01*
X12989Y203112D01*
X13056Y203023D01*
X13126Y202937D01*
X13199Y202854D01*
X13274Y202772D01*
X13352Y202694D01*
X13434Y202619D01*
X13517Y202546D01*
X13603Y202476D01*
X13692Y202409D01*
X13783Y202346D01*
X13876Y202285D01*
X13971Y202228D01*
X14067Y202175D01*
X14166Y202124D01*
X14267Y202077D01*
X14369Y202034D01*
X14472Y201994D01*
X14577Y201958D01*
X14683Y201926D01*
X14790Y201897D01*
X14898Y201872D01*
X15007Y201851D01*
X15116Y201834D01*
X15226Y201820D01*
X15337Y201811D01*
X15447Y201805D01*
X15558Y201803D01*
X18733Y201803D01*
X7468Y196723D02*
X2388Y196723D01*
X7468Y196723D02*
X7468Y208153D01*
X2388Y208153D01*
X3658Y203073D02*
X7468Y203073D01*
X-2496Y208153D02*
X-2496Y196723D01*
X-2496Y208153D02*
X-5671Y208153D01*
X-5782Y208151D01*
X-5892Y208145D01*
X-6003Y208136D01*
X-6113Y208122D01*
X-6222Y208105D01*
X-6331Y208084D01*
X-6439Y208059D01*
X-6546Y208030D01*
X-6652Y207998D01*
X-6757Y207962D01*
X-6860Y207922D01*
X-6962Y207879D01*
X-7063Y207832D01*
X-7162Y207781D01*
X-7259Y207728D01*
X-7353Y207671D01*
X-7446Y207610D01*
X-7537Y207547D01*
X-7626Y207480D01*
X-7712Y207410D01*
X-7795Y207337D01*
X-7877Y207262D01*
X-7955Y207184D01*
X-8030Y207102D01*
X-8103Y207019D01*
X-8173Y206933D01*
X-8240Y206844D01*
X-8303Y206753D01*
X-8364Y206660D01*
X-8421Y206566D01*
X-8474Y206469D01*
X-8525Y206370D01*
X-8572Y206269D01*
X-8615Y206167D01*
X-8655Y206064D01*
X-8691Y205959D01*
X-8723Y205853D01*
X-8752Y205746D01*
X-8777Y205638D01*
X-8798Y205529D01*
X-8815Y205420D01*
X-8829Y205310D01*
X-8838Y205199D01*
X-8844Y205089D01*
X-8846Y204978D01*
X-8844Y204867D01*
X-8838Y204757D01*
X-8829Y204646D01*
X-8815Y204536D01*
X-8798Y204427D01*
X-8777Y204318D01*
X-8752Y204210D01*
X-8723Y204103D01*
X-8691Y203997D01*
X-8655Y203892D01*
X-8615Y203789D01*
X-8572Y203687D01*
X-8525Y203586D01*
X-8474Y203487D01*
X-8421Y203391D01*
X-8364Y203296D01*
X-8303Y203203D01*
X-8240Y203112D01*
X-8173Y203023D01*
X-8103Y202937D01*
X-8030Y202854D01*
X-7955Y202772D01*
X-7877Y202694D01*
X-7795Y202619D01*
X-7712Y202546D01*
X-7626Y202476D01*
X-7537Y202409D01*
X-7446Y202346D01*
X-7353Y202285D01*
X-7258Y202228D01*
X-7162Y202175D01*
X-7063Y202124D01*
X-6962Y202077D01*
X-6860Y202034D01*
X-6757Y201994D01*
X-6652Y201958D01*
X-6546Y201926D01*
X-6439Y201897D01*
X-6331Y201872D01*
X-6222Y201851D01*
X-6113Y201834D01*
X-6003Y201820D01*
X-5892Y201811D01*
X-5782Y201805D01*
X-5671Y201803D01*
X-2496Y201803D01*
X-6306Y201803D02*
X-8846Y196723D01*
X-16256Y196723D02*
X-16256Y208153D01*
X-13081Y208153D02*
X-19431Y208153D01*
X-26924Y208153D02*
X-23114Y196723D01*
X-30734Y196723D02*
X-26924Y208153D01*
X-29781Y199581D02*
X-24066Y199581D01*
X-35560Y196723D02*
X-35560Y208153D01*
X-41910Y196723D01*
X-41910Y208153D01*
X-47942Y208153D02*
X-47942Y196723D01*
X-47942Y201168D02*
X-54292Y208153D01*
X-50482Y203708D02*
X-54292Y196723D01*
D10*
X314960Y16510D02*
X321310Y22860D01*
X314960Y16510D02*
X321310Y10160D01*
X327660Y16510D01*
X342900Y20320D02*
X343331Y20325D01*
X343762Y20341D01*
X344192Y20367D01*
X344622Y20404D01*
X345050Y20451D01*
X345478Y20508D01*
X345903Y20576D01*
X346328Y20653D01*
X346750Y20742D01*
X347169Y20840D01*
X347587Y20949D01*
X348001Y21067D01*
X348412Y21196D01*
X348821Y21335D01*
X349225Y21483D01*
X349627Y21642D01*
X350024Y21809D01*
X350417Y21987D01*
X350805Y22174D01*
X351189Y22370D01*
X351568Y22576D01*
X351942Y22791D01*
X352310Y23014D01*
X352673Y23247D01*
X353030Y23488D01*
X353382Y23738D01*
X353727Y23997D01*
X354066Y24263D01*
X354398Y24538D01*
X354723Y24821D01*
X355042Y25111D01*
X355353Y25410D01*
X355657Y25715D01*
X355954Y26028D01*
X356243Y26348D01*
X356524Y26675D01*
X356797Y27009D01*
X357062Y27349D01*
X357318Y27696D01*
X357566Y28048D01*
X357806Y28407D01*
X358036Y28771D01*
X358258Y29141D01*
X342900Y20320D02*
X342469Y20325D01*
X342038Y20341D01*
X341608Y20367D01*
X341178Y20404D01*
X340750Y20451D01*
X340322Y20508D01*
X339897Y20576D01*
X339472Y20653D01*
X339050Y20742D01*
X338631Y20840D01*
X338213Y20949D01*
X337799Y21067D01*
X337388Y21196D01*
X336979Y21335D01*
X336575Y21483D01*
X336173Y21642D01*
X335776Y21809D01*
X335383Y21987D01*
X334995Y22174D01*
X334611Y22370D01*
X334232Y22576D01*
X333858Y22791D01*
X333490Y23014D01*
X333127Y23247D01*
X332770Y23488D01*
X332418Y23738D01*
X332073Y23997D01*
X331734Y24263D01*
X331402Y24538D01*
X331077Y24821D01*
X330758Y25111D01*
X330447Y25410D01*
X330143Y25715D01*
X329846Y26028D01*
X329557Y26348D01*
X329276Y26675D01*
X329003Y27009D01*
X328738Y27349D01*
X328482Y27696D01*
X328234Y28048D01*
X327994Y28407D01*
X327764Y28771D01*
X327542Y29141D01*
X327542Y47059D02*
X327764Y47429D01*
X327994Y47793D01*
X328234Y48152D01*
X328482Y48504D01*
X328738Y48851D01*
X329003Y49191D01*
X329276Y49525D01*
X329557Y49852D01*
X329846Y50172D01*
X330143Y50485D01*
X330447Y50790D01*
X330758Y51089D01*
X331077Y51379D01*
X331402Y51662D01*
X331734Y51937D01*
X332073Y52203D01*
X332418Y52462D01*
X332770Y52712D01*
X333127Y52953D01*
X333490Y53186D01*
X333858Y53409D01*
X334232Y53624D01*
X334611Y53830D01*
X334995Y54026D01*
X335383Y54213D01*
X335776Y54391D01*
X336173Y54558D01*
X336575Y54717D01*
X336979Y54865D01*
X337388Y55004D01*
X337799Y55133D01*
X338213Y55251D01*
X338631Y55360D01*
X339050Y55458D01*
X339472Y55547D01*
X339897Y55624D01*
X340322Y55692D01*
X340750Y55749D01*
X341178Y55796D01*
X341608Y55833D01*
X342038Y55859D01*
X342469Y55875D01*
X342900Y55880D01*
X343331Y55875D01*
X343762Y55859D01*
X344192Y55833D01*
X344622Y55796D01*
X345050Y55749D01*
X345478Y55692D01*
X345903Y55624D01*
X346328Y55547D01*
X346750Y55458D01*
X347169Y55360D01*
X347587Y55251D01*
X348001Y55133D01*
X348412Y55004D01*
X348821Y54865D01*
X349225Y54717D01*
X349627Y54558D01*
X350024Y54391D01*
X350417Y54213D01*
X350805Y54026D01*
X351189Y53830D01*
X351568Y53624D01*
X351942Y53409D01*
X352310Y53186D01*
X352673Y52953D01*
X353030Y52712D01*
X353382Y52462D01*
X353727Y52203D01*
X354066Y51937D01*
X354398Y51662D01*
X354723Y51379D01*
X355042Y51089D01*
X355353Y50790D01*
X355657Y50485D01*
X355954Y50172D01*
X356243Y49852D01*
X356524Y49525D01*
X356797Y49191D01*
X357062Y48851D01*
X357318Y48504D01*
X357566Y48152D01*
X357806Y47793D01*
X358036Y47429D01*
X358258Y47059D01*
X316230Y38100D02*
X316238Y38755D01*
X316262Y39409D01*
X316302Y40062D01*
X316358Y40714D01*
X316431Y41365D01*
X316519Y42013D01*
X316623Y42660D01*
X316742Y43303D01*
X316878Y43943D01*
X317029Y44580D01*
X317196Y45213D01*
X317378Y45842D01*
X317576Y46466D01*
X317789Y47085D01*
X318017Y47698D01*
X318260Y48306D01*
X318518Y48908D01*
X318791Y49503D01*
X319078Y50091D01*
X319379Y50672D01*
X319695Y51246D01*
X320024Y51811D01*
X320368Y52368D01*
X320725Y52917D01*
X321095Y53457D01*
X321478Y53987D01*
X321875Y54508D01*
X322284Y55019D01*
X322705Y55520D01*
X323139Y56010D01*
X323584Y56490D01*
X324041Y56959D01*
X324510Y57416D01*
X324990Y57861D01*
X325480Y58295D01*
X325981Y58716D01*
X326492Y59125D01*
X327013Y59522D01*
X327543Y59905D01*
X328083Y60275D01*
X328632Y60632D01*
X329189Y60976D01*
X329754Y61305D01*
X330328Y61621D01*
X330909Y61922D01*
X331497Y62209D01*
X332092Y62482D01*
X332694Y62740D01*
X333302Y62983D01*
X333915Y63211D01*
X334534Y63424D01*
X335158Y63622D01*
X335787Y63804D01*
X336420Y63971D01*
X337057Y64122D01*
X337697Y64258D01*
X338340Y64377D01*
X338987Y64481D01*
X339635Y64569D01*
X340286Y64642D01*
X340938Y64698D01*
X341591Y64738D01*
X342245Y64762D01*
X342900Y64770D01*
X343555Y64762D01*
X344209Y64738D01*
X344862Y64698D01*
X345514Y64642D01*
X346165Y64569D01*
X346813Y64481D01*
X347460Y64377D01*
X348103Y64258D01*
X348743Y64122D01*
X349380Y63971D01*
X350013Y63804D01*
X350642Y63622D01*
X351266Y63424D01*
X351885Y63211D01*
X352498Y62983D01*
X353106Y62740D01*
X353708Y62482D01*
X354303Y62209D01*
X354891Y61922D01*
X355472Y61621D01*
X356046Y61305D01*
X356611Y60976D01*
X357168Y60632D01*
X357717Y60275D01*
X358257Y59905D01*
X358787Y59522D01*
X359308Y59125D01*
X359819Y58716D01*
X360320Y58295D01*
X360810Y57861D01*
X361290Y57416D01*
X361759Y56959D01*
X362216Y56490D01*
X362661Y56010D01*
X363095Y55520D01*
X363516Y55019D01*
X363925Y54508D01*
X364322Y53987D01*
X364705Y53457D01*
X365075Y52917D01*
X365432Y52368D01*
X365776Y51811D01*
X366105Y51246D01*
X366421Y50672D01*
X366722Y50091D01*
X367009Y49503D01*
X367282Y48908D01*
X367540Y48306D01*
X367783Y47698D01*
X368011Y47085D01*
X368224Y46466D01*
X368422Y45842D01*
X368604Y45213D01*
X368771Y44580D01*
X368922Y43943D01*
X369058Y43303D01*
X369177Y42660D01*
X369281Y42013D01*
X369369Y41365D01*
X369442Y40714D01*
X369498Y40062D01*
X369538Y39409D01*
X369562Y38755D01*
X369570Y38100D01*
X369562Y37445D01*
X369538Y36791D01*
X369498Y36138D01*
X369442Y35486D01*
X369369Y34835D01*
X369281Y34187D01*
X369177Y33540D01*
X369058Y32897D01*
X368922Y32257D01*
X368771Y31620D01*
X368604Y30987D01*
X368422Y30358D01*
X368224Y29734D01*
X368011Y29115D01*
X367783Y28502D01*
X367540Y27894D01*
X367282Y27292D01*
X367009Y26697D01*
X366722Y26109D01*
X366421Y25528D01*
X366105Y24954D01*
X365776Y24389D01*
X365432Y23832D01*
X365075Y23283D01*
X364705Y22743D01*
X364322Y22213D01*
X363925Y21692D01*
X363516Y21181D01*
X363095Y20680D01*
X362661Y20190D01*
X362216Y19710D01*
X361759Y19241D01*
X361290Y18784D01*
X360810Y18339D01*
X360320Y17905D01*
X359819Y17484D01*
X359308Y17075D01*
X358787Y16678D01*
X358257Y16295D01*
X357717Y15925D01*
X357168Y15568D01*
X356611Y15224D01*
X356046Y14895D01*
X355472Y14579D01*
X354891Y14278D01*
X354303Y13991D01*
X353708Y13718D01*
X353106Y13460D01*
X352498Y13217D01*
X351885Y12989D01*
X351266Y12776D01*
X350642Y12578D01*
X350013Y12396D01*
X349380Y12229D01*
X348743Y12078D01*
X348103Y11942D01*
X347460Y11823D01*
X346813Y11719D01*
X346165Y11631D01*
X345514Y11558D01*
X344862Y11502D01*
X344209Y11462D01*
X343555Y11438D01*
X342900Y11430D01*
X342245Y11438D01*
X341591Y11462D01*
X340938Y11502D01*
X340286Y11558D01*
X339635Y11631D01*
X338987Y11719D01*
X338340Y11823D01*
X337697Y11942D01*
X337057Y12078D01*
X336420Y12229D01*
X335787Y12396D01*
X335158Y12578D01*
X334534Y12776D01*
X333915Y12989D01*
X333302Y13217D01*
X332694Y13460D01*
X332092Y13718D01*
X331497Y13991D01*
X330909Y14278D01*
X330328Y14579D01*
X329754Y14895D01*
X329189Y15224D01*
X328632Y15568D01*
X328083Y15925D01*
X327543Y16295D01*
X327013Y16678D01*
X326492Y17075D01*
X325981Y17484D01*
X325480Y17905D01*
X324990Y18339D01*
X324510Y18784D01*
X324041Y19241D01*
X323584Y19710D01*
X323139Y20190D01*
X322705Y20680D01*
X322284Y21181D01*
X321875Y21692D01*
X321478Y22213D01*
X321095Y22743D01*
X320725Y23283D01*
X320368Y23832D01*
X320024Y24389D01*
X319695Y24954D01*
X319379Y25528D01*
X319078Y26109D01*
X318791Y26697D01*
X318518Y27292D01*
X318260Y27894D01*
X318017Y28502D01*
X317789Y29115D01*
X317576Y29734D01*
X317378Y30358D01*
X317196Y30987D01*
X317029Y31620D01*
X316878Y32257D01*
X316742Y32897D01*
X316623Y33540D01*
X316519Y34187D01*
X316431Y34835D01*
X316358Y35486D01*
X316302Y36138D01*
X316262Y36791D01*
X316238Y37445D01*
X316230Y38100D01*
D12*
X318770Y38100D02*
X318777Y38692D01*
X318799Y39284D01*
X318835Y39875D01*
X318886Y40465D01*
X318951Y41054D01*
X319031Y41641D01*
X319125Y42225D01*
X319234Y42808D01*
X319356Y43387D01*
X319493Y43963D01*
X319644Y44536D01*
X319809Y45105D01*
X319988Y45669D01*
X320181Y46229D01*
X320387Y46784D01*
X320607Y47334D01*
X320840Y47878D01*
X321087Y48417D01*
X321346Y48949D01*
X321619Y49475D01*
X321905Y49994D01*
X322203Y50505D01*
X322514Y51009D01*
X322837Y51506D01*
X323172Y51994D01*
X323519Y52474D01*
X323877Y52946D01*
X324247Y53408D01*
X324629Y53861D01*
X325021Y54305D01*
X325424Y54739D01*
X325838Y55162D01*
X326261Y55576D01*
X326695Y55979D01*
X327139Y56371D01*
X327592Y56753D01*
X328054Y57123D01*
X328526Y57481D01*
X329006Y57828D01*
X329494Y58163D01*
X329991Y58486D01*
X330495Y58797D01*
X331006Y59095D01*
X331525Y59381D01*
X332051Y59654D01*
X332583Y59913D01*
X333122Y60160D01*
X333666Y60393D01*
X334216Y60613D01*
X334771Y60819D01*
X335331Y61012D01*
X335895Y61191D01*
X336464Y61356D01*
X337037Y61507D01*
X337613Y61644D01*
X338192Y61766D01*
X338775Y61875D01*
X339359Y61969D01*
X339946Y62049D01*
X340535Y62114D01*
X341125Y62165D01*
X341716Y62201D01*
X342308Y62223D01*
X342900Y62230D01*
X343492Y62223D01*
X344084Y62201D01*
X344675Y62165D01*
X345265Y62114D01*
X345854Y62049D01*
X346441Y61969D01*
X347025Y61875D01*
X347608Y61766D01*
X348187Y61644D01*
X348763Y61507D01*
X349336Y61356D01*
X349905Y61191D01*
X350469Y61012D01*
X351029Y60819D01*
X351584Y60613D01*
X352134Y60393D01*
X352678Y60160D01*
X353217Y59913D01*
X353749Y59654D01*
X354275Y59381D01*
X354794Y59095D01*
X355305Y58797D01*
X355809Y58486D01*
X356306Y58163D01*
X356794Y57828D01*
X357274Y57481D01*
X357746Y57123D01*
X358208Y56753D01*
X358661Y56371D01*
X359105Y55979D01*
X359539Y55576D01*
X359962Y55162D01*
X360376Y54739D01*
X360779Y54305D01*
X361171Y53861D01*
X361553Y53408D01*
X361923Y52946D01*
X362281Y52474D01*
X362628Y51994D01*
X362963Y51506D01*
X363286Y51009D01*
X363597Y50505D01*
X363895Y49994D01*
X364181Y49475D01*
X364454Y48949D01*
X364713Y48417D01*
X364960Y47878D01*
X365193Y47334D01*
X365413Y46784D01*
X365619Y46229D01*
X365812Y45669D01*
X365991Y45105D01*
X366156Y44536D01*
X366307Y43963D01*
X366444Y43387D01*
X366566Y42808D01*
X366675Y42225D01*
X366769Y41641D01*
X366849Y41054D01*
X366914Y40465D01*
X366965Y39875D01*
X367001Y39284D01*
X367023Y38692D01*
X367030Y38100D01*
X367023Y37508D01*
X367001Y36916D01*
X366965Y36325D01*
X366914Y35735D01*
X366849Y35146D01*
X366769Y34559D01*
X366675Y33975D01*
X366566Y33392D01*
X366444Y32813D01*
X366307Y32237D01*
X366156Y31664D01*
X365991Y31095D01*
X365812Y30531D01*
X365619Y29971D01*
X365413Y29416D01*
X365193Y28866D01*
X364960Y28322D01*
X364713Y27783D01*
X364454Y27251D01*
X364181Y26725D01*
X363895Y26206D01*
X363597Y25695D01*
X363286Y25191D01*
X362963Y24694D01*
X362628Y24206D01*
X362281Y23726D01*
X361923Y23254D01*
X361553Y22792D01*
X361171Y22339D01*
X360779Y21895D01*
X360376Y21461D01*
X359962Y21038D01*
X359539Y20624D01*
X359105Y20221D01*
X358661Y19829D01*
X358208Y19447D01*
X357746Y19077D01*
X357274Y18719D01*
X356794Y18372D01*
X356306Y18037D01*
X355809Y17714D01*
X355305Y17403D01*
X354794Y17105D01*
X354275Y16819D01*
X353749Y16546D01*
X353217Y16287D01*
X352678Y16040D01*
X352134Y15807D01*
X351584Y15587D01*
X351029Y15381D01*
X350469Y15188D01*
X349905Y15009D01*
X349336Y14844D01*
X348763Y14693D01*
X348187Y14556D01*
X347608Y14434D01*
X347025Y14325D01*
X346441Y14231D01*
X345854Y14151D01*
X345265Y14086D01*
X344675Y14035D01*
X344084Y13999D01*
X343492Y13977D01*
X342900Y13970D01*
X342308Y13977D01*
X341716Y13999D01*
X341125Y14035D01*
X340535Y14086D01*
X339946Y14151D01*
X339359Y14231D01*
X338775Y14325D01*
X338192Y14434D01*
X337613Y14556D01*
X337037Y14693D01*
X336464Y14844D01*
X335895Y15009D01*
X335331Y15188D01*
X334771Y15381D01*
X334216Y15587D01*
X333666Y15807D01*
X333122Y16040D01*
X332583Y16287D01*
X332051Y16546D01*
X331525Y16819D01*
X331006Y17105D01*
X330495Y17403D01*
X329991Y17714D01*
X329494Y18037D01*
X329006Y18372D01*
X328526Y18719D01*
X328054Y19077D01*
X327592Y19447D01*
X327139Y19829D01*
X326695Y20221D01*
X326261Y20624D01*
X325838Y21038D01*
X325424Y21461D01*
X325021Y21895D01*
X324629Y22339D01*
X324247Y22792D01*
X323877Y23254D01*
X323519Y23726D01*
X323172Y24206D01*
X322837Y24694D01*
X322514Y25191D01*
X322203Y25695D01*
X321905Y26206D01*
X321619Y26725D01*
X321346Y27251D01*
X321087Y27783D01*
X320840Y28322D01*
X320607Y28866D01*
X320387Y29416D01*
X320181Y29971D01*
X319988Y30531D01*
X319809Y31095D01*
X319644Y31664D01*
X319493Y32237D01*
X319356Y32813D01*
X319234Y33392D01*
X319125Y33975D01*
X319031Y34559D01*
X318951Y35146D01*
X318886Y35735D01*
X318835Y36325D01*
X318799Y36916D01*
X318777Y37508D01*
X318770Y38100D01*
D11*
X387477Y-1905D02*
X387479Y-2005D01*
X387485Y-2104D01*
X387495Y-2204D01*
X387508Y-2302D01*
X387526Y-2401D01*
X387547Y-2498D01*
X387572Y-2594D01*
X387601Y-2690D01*
X387634Y-2784D01*
X387670Y-2877D01*
X387710Y-2968D01*
X387754Y-3058D01*
X387801Y-3146D01*
X387851Y-3232D01*
X387905Y-3316D01*
X387962Y-3398D01*
X388022Y-3477D01*
X388086Y-3555D01*
X388152Y-3629D01*
X388221Y-3701D01*
X388293Y-3770D01*
X388367Y-3836D01*
X388445Y-3900D01*
X388524Y-3960D01*
X388606Y-4017D01*
X388690Y-4071D01*
X388776Y-4121D01*
X388864Y-4168D01*
X388954Y-4212D01*
X389045Y-4252D01*
X389138Y-4288D01*
X389232Y-4321D01*
X389328Y-4350D01*
X389424Y-4375D01*
X389521Y-4396D01*
X389620Y-4414D01*
X389718Y-4427D01*
X389818Y-4437D01*
X389917Y-4443D01*
X390017Y-4445D01*
X390158Y-4443D01*
X390299Y-4438D01*
X390440Y-4428D01*
X390581Y-4415D01*
X390721Y-4399D01*
X390861Y-4378D01*
X391000Y-4354D01*
X391139Y-4326D01*
X391276Y-4295D01*
X391413Y-4260D01*
X391549Y-4222D01*
X391684Y-4180D01*
X391817Y-4134D01*
X391950Y-4085D01*
X392081Y-4032D01*
X392210Y-3976D01*
X392339Y-3917D01*
X392465Y-3854D01*
X392590Y-3788D01*
X392713Y-3719D01*
X392834Y-3646D01*
X392953Y-3570D01*
X393071Y-3491D01*
X393186Y-3410D01*
X393298Y-3325D01*
X393409Y-3237D01*
X393517Y-3146D01*
X393623Y-3053D01*
X393726Y-2956D01*
X393827Y-2857D01*
X393510Y4445D02*
X393508Y4545D01*
X393502Y4644D01*
X393492Y4744D01*
X393479Y4842D01*
X393461Y4941D01*
X393440Y5038D01*
X393415Y5134D01*
X393386Y5230D01*
X393353Y5324D01*
X393317Y5417D01*
X393277Y5508D01*
X393233Y5598D01*
X393186Y5686D01*
X393136Y5772D01*
X393082Y5856D01*
X393025Y5938D01*
X392965Y6017D01*
X392901Y6095D01*
X392835Y6169D01*
X392766Y6241D01*
X392694Y6310D01*
X392620Y6376D01*
X392542Y6440D01*
X392463Y6500D01*
X392381Y6557D01*
X392297Y6611D01*
X392211Y6661D01*
X392123Y6708D01*
X392033Y6752D01*
X391942Y6792D01*
X391849Y6828D01*
X391755Y6861D01*
X391659Y6890D01*
X391563Y6915D01*
X391466Y6936D01*
X391367Y6954D01*
X391269Y6967D01*
X391169Y6977D01*
X391070Y6983D01*
X390970Y6985D01*
X390970Y6986D02*
X390837Y6984D01*
X390704Y6979D01*
X390571Y6969D01*
X390438Y6956D01*
X390306Y6939D01*
X390174Y6919D01*
X390043Y6895D01*
X389913Y6867D01*
X389783Y6836D01*
X389655Y6801D01*
X389527Y6762D01*
X389401Y6720D01*
X389276Y6674D01*
X389152Y6625D01*
X389029Y6573D01*
X388908Y6517D01*
X388789Y6457D01*
X388671Y6395D01*
X388556Y6329D01*
X388442Y6260D01*
X388330Y6187D01*
X388220Y6112D01*
X388112Y6033D01*
X392240Y2222D02*
X392324Y2274D01*
X392407Y2329D01*
X392487Y2388D01*
X392565Y2449D01*
X392640Y2513D01*
X392713Y2581D01*
X392784Y2651D01*
X392851Y2723D01*
X392916Y2798D01*
X392978Y2876D01*
X393037Y2956D01*
X393093Y3038D01*
X393145Y3122D01*
X393194Y3208D01*
X393240Y3296D01*
X393283Y3386D01*
X393322Y3477D01*
X393357Y3570D01*
X393389Y3664D01*
X393417Y3759D01*
X393442Y3855D01*
X393462Y3952D01*
X393480Y4050D01*
X393493Y4148D01*
X393502Y4247D01*
X393508Y4346D01*
X393510Y4445D01*
X388747Y318D02*
X388663Y266D01*
X388580Y211D01*
X388500Y152D01*
X388422Y91D01*
X388347Y27D01*
X388274Y-41D01*
X388203Y-111D01*
X388136Y-183D01*
X388071Y-258D01*
X388009Y-336D01*
X387950Y-416D01*
X387894Y-498D01*
X387842Y-582D01*
X387793Y-668D01*
X387747Y-756D01*
X387704Y-846D01*
X387665Y-937D01*
X387630Y-1030D01*
X387598Y-1124D01*
X387570Y-1219D01*
X387545Y-1315D01*
X387525Y-1412D01*
X387507Y-1510D01*
X387494Y-1608D01*
X387485Y-1707D01*
X387479Y-1806D01*
X387477Y-1905D01*
X388747Y318D02*
X392240Y2223D01*
X380365Y6985D02*
X380365Y-4445D01*
X383540Y6985D02*
X377190Y6985D01*
X369697Y6985D02*
X373507Y-4445D01*
X365887Y-4445D02*
X369697Y6985D01*
X366840Y-1588D02*
X372555Y-1588D01*
X361061Y-4445D02*
X361061Y6985D01*
X354711Y-4445D01*
X354711Y6985D01*
X348679Y1905D02*
X345504Y1905D01*
X345393Y1903D01*
X345283Y1897D01*
X345172Y1888D01*
X345062Y1874D01*
X344953Y1857D01*
X344844Y1836D01*
X344736Y1811D01*
X344629Y1782D01*
X344523Y1750D01*
X344418Y1714D01*
X344315Y1674D01*
X344213Y1631D01*
X344112Y1584D01*
X344013Y1533D01*
X343917Y1480D01*
X343822Y1423D01*
X343729Y1362D01*
X343638Y1299D01*
X343549Y1232D01*
X343463Y1162D01*
X343380Y1089D01*
X343298Y1014D01*
X343220Y936D01*
X343145Y854D01*
X343072Y771D01*
X343002Y685D01*
X342935Y596D01*
X342872Y505D01*
X342811Y412D01*
X342754Y317D01*
X342701Y221D01*
X342650Y122D01*
X342603Y21D01*
X342560Y-81D01*
X342520Y-184D01*
X342484Y-289D01*
X342452Y-395D01*
X342423Y-502D01*
X342398Y-610D01*
X342377Y-719D01*
X342360Y-828D01*
X342346Y-938D01*
X342337Y-1049D01*
X342331Y-1159D01*
X342329Y-1270D01*
X342331Y-1381D01*
X342337Y-1491D01*
X342346Y-1602D01*
X342360Y-1712D01*
X342377Y-1821D01*
X342398Y-1930D01*
X342423Y-2038D01*
X342452Y-2145D01*
X342484Y-2251D01*
X342520Y-2356D01*
X342560Y-2459D01*
X342603Y-2561D01*
X342650Y-2662D01*
X342701Y-2761D01*
X342754Y-2858D01*
X342811Y-2952D01*
X342872Y-3045D01*
X342935Y-3136D01*
X343002Y-3225D01*
X343072Y-3311D01*
X343145Y-3394D01*
X343220Y-3476D01*
X343298Y-3554D01*
X343380Y-3629D01*
X343463Y-3702D01*
X343549Y-3772D01*
X343638Y-3839D01*
X343729Y-3902D01*
X343822Y-3963D01*
X343917Y-4020D01*
X344013Y-4073D01*
X344112Y-4124D01*
X344213Y-4171D01*
X344315Y-4214D01*
X344418Y-4254D01*
X344523Y-4290D01*
X344629Y-4322D01*
X344736Y-4351D01*
X344844Y-4376D01*
X344953Y-4397D01*
X345062Y-4414D01*
X345172Y-4428D01*
X345283Y-4437D01*
X345393Y-4443D01*
X345504Y-4445D01*
X348679Y-4445D01*
X348679Y6985D01*
X345504Y6985D01*
X345404Y6983D01*
X345305Y6977D01*
X345205Y6967D01*
X345107Y6954D01*
X345008Y6936D01*
X344911Y6915D01*
X344815Y6890D01*
X344719Y6861D01*
X344625Y6828D01*
X344532Y6792D01*
X344441Y6752D01*
X344351Y6708D01*
X344263Y6661D01*
X344177Y6611D01*
X344093Y6557D01*
X344011Y6500D01*
X343932Y6440D01*
X343854Y6376D01*
X343780Y6310D01*
X343708Y6241D01*
X343639Y6169D01*
X343573Y6095D01*
X343509Y6017D01*
X343449Y5938D01*
X343392Y5856D01*
X343338Y5772D01*
X343288Y5686D01*
X343241Y5598D01*
X343197Y5508D01*
X343157Y5417D01*
X343121Y5324D01*
X343088Y5230D01*
X343059Y5134D01*
X343034Y5038D01*
X343013Y4941D01*
X342995Y4842D01*
X342982Y4744D01*
X342972Y4644D01*
X342966Y4545D01*
X342964Y4445D01*
X342966Y4345D01*
X342972Y4246D01*
X342982Y4146D01*
X342995Y4048D01*
X343013Y3949D01*
X343034Y3852D01*
X343059Y3756D01*
X343088Y3660D01*
X343121Y3566D01*
X343157Y3473D01*
X343197Y3382D01*
X343241Y3292D01*
X343288Y3204D01*
X343338Y3118D01*
X343392Y3034D01*
X343449Y2952D01*
X343509Y2873D01*
X343573Y2795D01*
X343639Y2721D01*
X343708Y2649D01*
X343780Y2580D01*
X343854Y2514D01*
X343932Y2450D01*
X344011Y2390D01*
X344093Y2333D01*
X344177Y2279D01*
X344263Y2229D01*
X344351Y2182D01*
X344441Y2138D01*
X344532Y2098D01*
X344625Y2062D01*
X344719Y2029D01*
X344815Y2000D01*
X344911Y1975D01*
X345008Y1954D01*
X345107Y1936D01*
X345205Y1923D01*
X345305Y1913D01*
X345404Y1907D01*
X345504Y1905D01*
X338455Y6985D02*
X334645Y1588D01*
X330835Y6985D01*
X334645Y1588D02*
X334645Y-4445D01*
M02*
