M48
;GenerationSoftware,Autodesk,EAGLE,9.4.2*%
;CreationDate,2020-03-14T06:22:19Z*%
FMAT,2
ICI,OFF
METRIC,TZ,000.000
T10C0.610
T9C0.700
T8C0.813
T7C1.000
T6C1.016
T5C1.200
T4C1.321
T3C2.500
T2C3.000
T1C5.000
%
G90
M71
T1
X44500Y3700
X30400Y33000
T2
X2400Y48600
X45900Y48600
T3
X48930Y78365
X-26070Y78365
X48930Y47365
X-26070Y47365
T4
X12700Y13970
X42545Y19050
X12700Y19050
X38100Y19050
X7620Y3810
X2540Y3175
T5
X25320Y10160
X20320Y10160
X15320Y10160
X43735Y10160
X33735Y10160
X38735Y10160
T6
X5080Y17780
X5080Y11430
X2540Y11430
X11430Y31115
X2540Y17780
X5080Y31750
X5080Y34290
X11430Y33655
T7
X24130Y40640
X19050Y40640
X16510Y40640
X13970Y40640
X11430Y40640
X8890Y40640
X6350Y40640
X3810Y40640
X3810Y25400
X6350Y25400
X8890Y25400
X11430Y25400
X13970Y25400
X16510Y25400
X21590Y25400
X24130Y25400
X26670Y25400
X29210Y25400
X31750Y25400
X34290Y25400
X36830Y25400
X39370Y25400
X21590Y40640
X43430Y47365
X40890Y47365
X38350Y47365
X35810Y47365
X33270Y47365
X30730Y47365
X28190Y47365
X25650Y47365
X23110Y47365
X20570Y47365
X18030Y47365
X15490Y47365
X12950Y47365
X10410Y47365
X7870Y47365
X5330Y47365
X19050Y25400
X39370Y40640
X36830Y40640
X34290Y40640
X31750Y40640
X29210Y40640
X26670Y40640
T8
X26670Y20320
X34290Y20320
X33020Y16510
X8890Y8255
X8890Y15875
X17780Y12700
X17780Y20320
X29210Y3810
X26670Y3810
X20320Y3810
X22860Y3810
X33020Y3810
X35560Y3810
X13970Y3810
X16510Y3810
X25400Y16510
T9
X22225Y13335
X24014Y45386
X9000Y45346
X35560Y43815
X29845Y43815
X25400Y43815
X11430Y43815
X36830Y13335
T10
X43815Y35560
X41275Y33020
X43815Y30480
M30